<?xml version="1.0" standalone="no"?>
<!DOCTYPE svg PUBLIC "-//W3C//DTD SVG 1.1//EN" "http://www.w3.org/Graphics/SVG/1.1/DTD/svg11.dtd" >
<svg xmlns="http://www.w3.org/2000/svg" xmlns:xlink="http://www.w3.org/1999/xlink" version="1.1">
<metadata></metadata>
<defs>
<font id="bouldbold" horiz-adv-x="1388" >
<font-face units-per-em="2048" ascent="1638" descent="-410" />
<missing-glyph horiz-adv-x="516" />
<glyph horiz-adv-x="0" />
<glyph unicode="&#xd;" horiz-adv-x="681" />
<glyph unicode=" "  horiz-adv-x="516" />
<glyph unicode="&#x09;" horiz-adv-x="516" />
<glyph unicode="&#xa0;" horiz-adv-x="516" />
<glyph unicode="!" horiz-adv-x="466" d="M61 154q0 76 46.5 120.5t128 44.5t126 -45t44.5 -120q0 -78 -44.5 -124t-126 -46t-128 46t-46.5 124zM86 1147v287h297v-287l-43 -643h-211z" />
<glyph unicode="&#x22;" horiz-adv-x="708" d="M51 1176v258h252v-258l-31 -256h-192zM406 1176v258h251v-258l-30 -256h-193z" />
<glyph unicode="#" horiz-adv-x="1107" d="M31 418l39 213h182l31 176h-197l39 213h194l46 250h208l-45 -250h154l45 250h209l-45 -250h186l-41 -213h-182l-31 -176h199l-41 -213h-195l-45 -250h-209l46 250h-154l-45 -250h-209l45 250h-184zM461 631h153l31 176h-153z" />
<glyph unicode="$" horiz-adv-x="1118" d="M51 59l31 283q72 -25 209 -48.5t237 -23.5q215 0 215 136q0 51 -29.5 79.5t-101.5 59.5l-262 112q-266 113 -266 385q0 162 101.5 265.5t283.5 132.5v151h225v-145q150 -10 316 -55l-29 -283q-211 57 -389 57q-90 0 -140.5 -32.5t-50.5 -88.5q0 -88 119 -135l185 -75 q201 -84 281.5 -176t80.5 -252q0 -172 -109.5 -282t-324.5 -134v-185h-225v183q-211 16 -357 71z" />
<glyph unicode="%" horiz-adv-x="1853" d="M82 1064.5q0 190.5 90 288t250 97.5t250 -97.5t90 -288t-90 -287.5t-250 -97t-250 97t-90 287.5zM303 1065q0 -197 119 -197t119 197t-119 197t-119 -197zM442 -59l699 1552h270l-698 -1552h-271zM1092 368.5q0 190.5 90 288t249.5 97.5t250 -97.5t90.5 -288 t-90.5 -287.5t-250 -97t-249.5 97t-90 287.5zM1313 368.5q0 -196.5 118.5 -196.5t118.5 196.5t-118.5 196.5t-118.5 -196.5z" />
<glyph unicode="&#x26;" horiz-adv-x="1411" d="M61 436q0 125 62.5 206t167.5 114q-193 72 -193 291q0 211 139.5 307t421.5 96q207 0 396 -53l-49 -258q-188 49 -347 49q-244 0 -243 -156q0 -72 52 -108.5t144 -36.5h738v-256h-236v-584q-80 -25 -229.5 -44t-253.5 -19q-289 0 -429.5 111.5t-140.5 340.5zM375 446 q0 -106 66.5 -149t215.5 -43q68 0 150 12v365h-195q-121 0 -179 -50.5t-58 -134.5z" />
<glyph unicode="'" horiz-adv-x="354" d="M51 1176v258h252v-258l-31 -256h-192z" />
<glyph unicode="(" horiz-adv-x="903" d="M92 657.5q0 411.5 174 668.5t482 304l32 -270q-90 -27 -153.5 -69t-116.5 -119.5t-80 -205.5t-27 -308.5t27 -308.5t80 -205.5t116.5 -119.5t153.5 -69l-32 -270q-307 47 -481.5 304t-174.5 668.5z" />
<glyph unicode=")" horiz-adv-x="903" d="M123 -45q90 27 153.5 69t116.5 119.5t80 205.5t27 308.5t-27 308.5t-80 205.5t-116.5 119.5t-153.5 69l33 270q307 -47 481 -304t174 -668.5t-174 -668.5t-481 -304z" />
<glyph unicode="*" horiz-adv-x="841" d="M51 1186l70 192l143 -55l72 -41l-17 102v152h203v-152l-16 -102l72 41l143 55l70 -192l-142 -51l-78 -15l50 -43l102 -116l-158 -132l-96 115l-47 82l-49 -82l-97 -115l-157 132l102 116l49 43l-77 15z" />
<glyph unicode="+" horiz-adv-x="1021" d="M20 573v230h377v387h230v-387h374v-230h-374v-387h-230v387h-377z" />
<glyph unicode="," horiz-adv-x="536" d="M82 -307q86 258 86 553h287q0 -131 -49 -296t-115 -288z" />
<glyph unicode="-" horiz-adv-x="761" d="M82 492v233h598v-233h-598z" />
<glyph unicode="." horiz-adv-x="507" d="M82 154q0 76 46 120.5t128 44.5t126 -45t44 -120q0 -78 -44 -124t-126 -46t-128 46t-46 124z" />
<glyph unicode="/" horiz-adv-x="786" d="M-10 -264l524 1859h283l-525 -1859h-282z" />
<glyph unicode="0" horiz-adv-x="1204" d="M72 719q0 731 530.5 731t530.5 -731q0 -735 -530.5 -735t-530.5 735zM389 719q0 -256 50 -357.5t163 -101.5q111 0 162 101.5t51 357.5q0 254 -51 354.5t-162 100.5q-113 0 -163 -100.5t-50 -354.5z" />
<glyph unicode="1" horiz-adv-x="829" d="M61 989v287l365 158h270v-1434h-307v1126z" />
<glyph unicode="2" horiz-adv-x="1103" d="M72 0v254q0 106 48 197.5t118.5 151t154.5 116.5t154.5 100t119 96.5t48.5 108.5q0 150 -234 150q-168 0 -338 -56l-61 268q190 63 420 64q250 0 390 -109.5t140 -316.5q0 -111 -65.5 -208t-157.5 -163.5t-185.5 -125t-159 -117t-65.5 -111.5v-23h629v-276h-956z" />
<glyph unicode="3" horiz-adv-x="1110" d="M31 47l67 270q59 -23 170 -39t195 -16q262 0 262 168q0 100 -66.5 147.5t-207.5 47.5h-203v256h203q102 0 167.5 35.5t65.5 105.5q0 152 -205 152q-166 0 -338 -56l-61 268q170 63 424 64q498 0 497 -408q0 -200 -172 -278q98 -31 153.5 -127t55.5 -227 q0 -193 -136 -309.5t-415 -116.5q-109 0 -246 17t-210 46z" />
<glyph unicode="4" horiz-adv-x="1210" d="M57 246v252l236 479q49 100 67.5 170t18.5 162v125h303v-125q0 -182 -94 -373l-201 -414h328l41 371h266v-371h158v-276h-158v-246h-307v246h-658z" />
<glyph unicode="5" horiz-adv-x="1155" d="M59 47l74 272q61 -23 169 -39t190 -16q274 0 274 207q0 190 -256 191q-137 0 -262 -52l-144 86v738h883v-277h-579v-266q87 27 198 27q227 0 352 -120t125 -341q0 -223 -150.5 -348t-424.5 -125q-268 0 -449 63z" />
<glyph unicode="6" horiz-adv-x="1193" d="M72 719q0 360 165.5 545.5t458.5 185.5q211 0 369 -64l-76 -268q-156 55 -301 56q-125 0 -196.5 -68t-94.5 -232q117 44 246 44q233 0 356 -115t123 -336q0 -207 -135 -345t-379 -138q-537 0 -536 735zM391 621q8 -201 59.5 -281t157.5 -80q98 0 147.5 60.5t49.5 146.5 t-50 142.5t-149 56.5q-125 0 -215 -45z" />
<glyph unicode="7" horiz-adv-x="1157" d="M72 1157v277h1013v-295q0 -113 -55 -219.5t-135 -190.5t-159 -168t-134 -184.5t-55 -206.5v-170h-318v170q0 131 55.5 253t134.5 212t158.5 171t135 162t55.5 150v39h-696z" />
<glyph unicode="8" horiz-adv-x="1191" d="M66 397q0 205 210 340q-176 117 -176 318q0 176 132.5 284.5t359.5 110.5h4q229 0 362.5 -105.5t133.5 -277.5q-1 -196 -187 -319q221 -123 221 -371q0 -190 -151.5 -291.5t-386.5 -101.5h-4q-223 2 -370.5 108.5t-147.5 304.5zM379 416q0 -72 55 -119t150 -47h4 q111 0 166 41t55 94q0 43 -30.5 76t-121.5 78l-145 75q-133 -90 -133 -198zM416 1055q0 -90 145 -154l105 -45q111 74 110 184q0 68 -48 114t-132 46h-4q-82 0 -129 -41t-47 -104z" />
<glyph unicode="9" horiz-adv-x="1193" d="M72 967q0 207 135 345t379 138q537 0 536 -735q0 -360 -165.5 -545.5t-458.5 -185.5q-211 0 -369 63l76 268q156 -55 301 -55q125 0 196.5 67.5t94.5 231.5q-117 -43 -246 -43q-233 0 -356 114.5t-123 336.5zM389 967q0 -86 50 -142.5t149 -56.5q125 0 215 45 q-8 201 -59.5 281t-157.5 80q-98 0 -147.5 -60.5t-49.5 -146.5z" />
<glyph unicode=":" horiz-adv-x="507" d="M82 154q0 76 46 120.5t128 44.5t126 -45t44 -120q0 -78 -44 -124t-126 -46t-128 46t-46 124zM82 911q0 76 46 121t128 45t126 -45t44 -121q0 -78 -44 -124t-126 -46t-128 46.5t-46 123.5z" />
<glyph unicode=";" horiz-adv-x="561" d="M82 -307q86 258 86 553h287q0 -131 -49 -296t-115 -288zM135 911q0 76 46 121t128 45t126 -45t44 -121q0 -78 -44 -124t-126 -46t-128 46.5t-46 123.5z" />
<glyph unicode="&#x3c;" horiz-adv-x="1028" d="M82 616v140l827 434v-256l-499 -248l499 -248v-256z" />
<glyph unicode="=" horiz-adv-x="1021" d="M20 348v230h981v-230h-981zM20 799v229h981v-229h-981z" />
<glyph unicode="&#x3e;" horiz-adv-x="991" d="M82 182v256l500 248l-500 248v256l827 -434v-140z" />
<glyph unicode="?" horiz-adv-x="1062" d="M82 1391q188 59 369 59q266 0 398 -94t132 -295q0 -92 -44 -157.5t-106.5 -102.5t-125 -69t-106.5 -75t-44 -102v-51h-297v90q0 74 42 134t101.5 100t119 74t101.5 74t42 85q0 121 -213 121q-150 0 -340 -58zM233 154q0 76 46.5 120.5t128 44.5t126 -45t44.5 -120 q0 -78 -44.5 -124t-126 -46t-128 46t-46.5 124z" />
<glyph unicode="@" horiz-adv-x="1622" d="M102 598q0 322 189.5 525.5t523.5 203.5q326 0 515.5 -179t189.5 -507q0 -199 -87 -307.5t-234.5 -108.5t-213.5 88q-80 -88 -231 -88q-127 0 -208 90.5t-81 280.5q0 180 79 274.5t191 94.5q96 0 162 -66l16 55h195v-428q0 -123 88 -123q55 0 81 49.5t26 188.5 q0 221 -116 349t-372 128q-254 0 -372.5 -143.5t-118.5 -376.5q0 -293 137 -414t403 -121q205 0 418 52l39 -197q-238 -61 -457 -61q-762 0 -762 741zM682 596q0 -172 117 -172q55 0 94 49v234q-37 59 -94 59q-53 0 -85 -43t-32 -127z" />
<glyph unicode="A" horiz-adv-x="1286" d="M20 0l373 1434h496l377 -1434h-332l-74 315h-438l-72 -315h-330zM485 592l312 2l-125 543h-62z" />
<glyph unicode="B" horiz-adv-x="1230" d="M133 0v1434h551q422 0 422 -383q0 -100 -44 -177t-110 -114v-8q207 -82 207 -340q0 -184 -115.5 -298t-312.5 -114h-598zM451 266h202q182 0 183 172q0 100 -49.5 137t-133.5 37h-202v-346zM451 868h178q72 0 113.5 38t41.5 112q0 149 -153 149h-2h-178v-299z" />
<glyph unicode="C" horiz-adv-x="1114" d="M82 719q0 346 154.5 538.5t470.5 192.5q143 0 315 -59l-29 -285q-154 51 -286 51q-150 0 -223.5 -97t-73.5 -341q0 -248 73.5 -345.5t223.5 -97.5q154 0 297 52l28 -285q-182 -59 -325 -59q-315 0 -470 192.5t-155 542.5z" />
<glyph unicode="D" horiz-adv-x="1302" d="M133 0v1434h469q289 0 454 -189.5t165 -523.5q0 -336 -166 -528.5t-453 -192.5h-469zM451 276h151q133 0 212 106.5t79 338.5q0 436 -291 436h-151v-881z" />
<glyph unicode="E" horiz-adv-x="1069" d="M133 0v1434h854v-277h-536v-289h491v-274h-491v-322h536v-272h-854z" />
<glyph unicode="F" horiz-adv-x="1110" d="M133 0v1434h854v-277h-536v-313h491v-275h-491v-569h-318z" />
<glyph unicode="G" horiz-adv-x="1255" d="M82 719q0 731 645 731q188 0 358 -61l-28 -279q-176 53 -336 53q-156 0 -233.5 -99t-77.5 -345q0 -248 73.5 -345.5t223.5 -97.5q80 0 139 13v233h-211v277h508v-738q-194 -75 -436 -77q-315 0 -470 192.5t-155 542.5z" />
<glyph unicode="H" horiz-adv-x="1361" d="M133 0v1434h318v-547h460v547h318v-1434h-318v600h-460v-600h-318z" />
<glyph unicode="I" horiz-adv-x="583" d="M133 0v1434h318v-1434h-318z" />
<glyph unicode="J" horiz-adv-x="675" d="M20 -131l97 57q109 66 108 187v1321h318v-1352q0 -250 -211 -350l-180 -86z" />
<glyph unicode="K" horiz-adv-x="1259" d="M133 0v1434h318v-560h73l342 560h353l-422 -691l432 -743h-361l-344 588h-73v-588h-318z" />
<glyph unicode="L" horiz-adv-x="1028" d="M133 0v1434h318v-1147h536v-287h-854z" />
<glyph unicode="M" horiz-adv-x="1718" d="M133 0l47 1434h348l332 -926l332 926h346l47 -1434h-307l-23 786h-10l-205 -602h-360l-207 602h-10l-23 -786h-307z" />
<glyph unicode="N" horiz-adv-x="1374" d="M133 0v1434h277l514 -842h10v842h307v-1434h-295l-495 823h-11v-823h-307z" />
<glyph unicode="O" d="M82 719q0 360 159.5 545.5t452.5 185.5t453 -185.5t160 -545.5q0 -362 -160 -548.5t-453 -186.5t-452.5 186t-159.5 549zM410 719q0 -233 70.5 -341t214 -108t214 107.5t70.5 341.5q0 231 -70.5 337.5t-214 106.5t-214 -106.5t-70.5 -337.5z" />
<glyph unicode="P" horiz-adv-x="1208" d="M133 0v1434h533q231 0 361 -130t130 -346q0 -205 -132 -342t-359 -137h-215v-479h-318zM451 760h194q88 0 136 54t48 144q0 92 -48 145.5t-136 53.5h-194v-397z" />
<glyph unicode="Q" d="M82 719q0 360 159.5 545.5t452.5 185.5t453 -185.5t160 -545.5q0 -346 -150 -537l105 -127l-191 -155l-110 133q-113 -49 -267 -49q-293 0 -452.5 186t-159.5 549zM410 719q0 -233 70.5 -341t213.5 -108q37 0 68 6l-154 189l191 156l143 -175q37 100 37 273 q0 231 -70.5 337.5t-214 106.5t-214 -106.5t-70.5 -337.5z" />
<glyph unicode="R" horiz-adv-x="1245" d="M133 0v1434h576q213 0 339 -117t126 -328q0 -150 -65 -259t-185 -163l290 -567h-342l-243 526h-178v-526h-318zM451 807h229q80 0 125 50t45 132q0 78 -45 123t-125 45h-229v-350z" />
<glyph unicode="S" horiz-adv-x="1118" d="M51 59l31 283q72 -25 209 -48.5t237 -23.5q215 0 215 136q0 51 -29.5 79.5t-101.5 59.5l-262 112q-266 113 -266 385q0 190 138 299t380 109q190 0 408 -59l-29 -283q-211 57 -389 57q-90 0 -140.5 -32.5t-50.5 -88.5q0 -88 119 -135l185 -75q201 -84 281.5 -176.5 t80.5 -251.5q0 -195 -139.5 -308.5t-413.5 -113.5q-262 0 -463 75z" />
<glyph unicode="T" horiz-adv-x="1204" d="M41 1157v277h1122v-277h-401v-1157h-318v1157h-403z" />
<glyph unicode="U" horiz-adv-x="1343" d="M133 471v963h318v-945q0 -219 221 -219t221 219v945h317v-963q0 -227 -150.5 -357t-388 -130t-388 130t-150.5 357z" />
<glyph unicode="V" horiz-adv-x="1357" d="M31 1434h329l291 -1106h49l291 1106h336l-409 -1434h-484z" />
<glyph unicode="W" horiz-adv-x="1927" d="M31 1434h329l158 -1106h49l181 1106h432l178 -1106h49l158 1106h331l-272 -1434h-496l-165 1077l-166 -1077h-516z" />
<glyph unicode="X" horiz-adv-x="1282" d="M20 0l367 731l-344 703h348l246 -535h8l246 535h348l-344 -703l367 -731h-347l-270 567h-8l-270 -567h-347z" />
<glyph unicode="Y" horiz-adv-x="1206" d="M31 1434h319l244 -609h10l246 609h326l-416 -942v-492h-318v492z" />
<glyph unicode="Z" horiz-adv-x="1146" d="M61 0v246l623 911h-592v277h993v-250l-622 -908h622v-276h-1024z" />
<glyph unicode="[" horiz-adv-x="757" d="M92 -319v1953h543v-245h-256v-1463h256v-245h-543z" />
<glyph unicode="\" horiz-adv-x="786" d="M-10 1595h282l525 -1859h-283z" />
<glyph unicode="]" horiz-adv-x="757" d="M123 -74h256v1463h-256v245h543v-1953h-543v245z" />
<glyph unicode="^" horiz-adv-x="1089" d="M41 750l434 786h139l435 -786h-256l-248 458l-248 -458h-256z" />
<glyph unicode="_" horiz-adv-x="886" d="M-41 -82h969v-233h-969v233z" />
<glyph unicode="`" horiz-adv-x="700" d="M72 1421l104 232l453 -258l-64 -138z" />
<glyph unicode="a" horiz-adv-x="1091" d="M61 297v63q0 283 345 314l276 24v39q0 70 -40 108t-146 38q-168 0 -336 -47l-47 245q199 55 383 56q494 0 493 -389v-748h-274l-19 98q-139 -114 -307 -114q-152 0 -240 89t-88 224zM356 326q0 -97 123 -97q121 0 203 68v184l-195 -16q-131 -10 -131 -113v-26z" />
<glyph unicode="b" horiz-adv-x="1150" d="M113 70v1466h307v-494q94 94 254 95q199 0 307.5 -148.5t108.5 -427.5q0 -274 -145 -425.5t-376 -151.5q-223 0 -456 86zM420 270q68 -20 119 -20q115 0 177 68.5t62 242.5q0 162 -48 235.5t-124 73.5q-102 0 -186 -77v-523z" />
<glyph unicode="c" horiz-adv-x="935" d="M61 561q0 274 129 425t388 151q133 0 274 -43l-53 -263q-104 33 -201 33q-225 0 -225 -303q0 -166 58 -234.5t167 -68.5q107 0 213 33l53 -264q-152 -43 -286 -43q-258 0 -387.5 150.5t-129.5 426.5z" />
<glyph unicode="d" horiz-adv-x="1140" d="M61 559q0 274 144.5 426t376.5 152q63 0 149 -11v410h307v-1536h-270l-29 86q-94 -102 -262 -102q-199 0 -307.5 148.5t-108.5 426.5zM373 559q0 -162 48 -235.5t124 -73.5q102 0 186 78v522q-68 20 -119 20q-115 0 -177 -68.5t-62 -242.5z" />
<glyph unicode="e" horiz-adv-x="1110" d="M61 549q0 268 129 428t377 160q264 0 373 -151.5t109 -436.5v-103h-670q8 -115 68.5 -161.5t170.5 -46.5q162 0 320 47l47 -242q-170 -59 -389 -59q-262 0 -398.5 144t-136.5 421zM379 672h371q-6 119 -49.5 169t-131.5 50q-174 0 -190 -219z" />
<glyph unicode="f" horiz-adv-x="874" d="M41 879v241h178v45q0 383 406 383q104 0 219 -20l-45 -242q-74 12 -146 12q-127 0 -127 -129v-49h242v-241h-242v-879h-307v879h-178z" />
<glyph unicode="g" horiz-adv-x="1167" d="M20 -143q0 86 70 161l64 72q-43 49 -43 117q0 63 65 141l55 68q-131 104 -131 313q0 207 123 307.5t326 100.5q156 0 260 -56l311 39v-233h-145q22 -69 22 -151v-7q0 -207 -122.5 -307t-325.5 -100q-82 0 -141 14l-23 -31q-20 -27 -20 -45q0 -39 77 -39h349 q176 0 261 -77.5t85 -192.5q0 -164 -179.5 -272.5t-453.5 -108.5q-129 0 -232.5 24.5t-177.5 91t-74 171.5zM324 -104q-1 -82 204 -82q135 0 218 33.5t83 82.5q0 70 -118 70h-314h-12l-25 -29q-37 -43 -36 -75zM403 729q0 -102 36 -146t110 -44t109.5 44t35.5 146 q-2 191 -145 191q-145 0 -146 -191z" />
<glyph unicode="h" horiz-adv-x="1165" d="M113 0v1536h307v-510q145 111 334 111q309 0 309 -314v-823h-307v737q0 125 -121 125q-96 0 -215 -71v-791h-307z" />
<glyph unicode="i" horiz-adv-x="522" d="M96 1430q0 74 44 118.5t126 44.5q80 0 124 -45t44 -118q0 -76 -43 -121t-125 -45t-126 45t-44 121zM113 0v1120h307v-1120h-307z" />
<glyph unicode="j" horiz-adv-x="516" d="M-70 -195l90 31q86 29 86 117v1167h308v-1151q0 -164 -56.5 -250t-214.5 -118l-143 -31zM90 1430q0 74 44 118.5t126 44.5q80 0 124 -45t44 -118q0 -76 -43 -121t-125 -45t-126 45t-44 121z" />
<glyph unicode="k" horiz-adv-x="1132" d="M113 0v1536h307v-776h72l266 360h336l-367 -499l375 -621h-334l-276 469h-72v-469h-307z" />
<glyph unicode="l" horiz-adv-x="641" d="M113 319v1217h307v-1196q0 -92 88 -92q31 0 55 6l37 -244q-90 -16 -176 -16q-160 0 -235.5 81t-75.5 244z" />
<glyph unicode="m" horiz-adv-x="1755" d="M113 0v1120h274l19 -98q145 115 329 115q182 0 252 -115q166 115 356 115q309 0 310 -314v-823h-307v737q0 125 -121 125q-92 0 -191 -63v-799h-307v737q0 125 -111 125q-92 0 -196 -76v-786h-307z" />
<glyph unicode="n" horiz-adv-x="1157" d="M113 0v1120h274l19 -98q145 115 339 115q309 0 310 -314v-823h-307v737q0 125 -121 125q-102 0 -207 -76v-786h-307z" />
<glyph unicode="o" horiz-adv-x="1130" d="M61 561q0 285 133.5 430.5t370.5 145.5q240 1 373 -145q131 -143 131 -423v-8q0 -285 -133 -431t-371 -146q-236 0 -370 146t-134 431zM373 561q0 -166 48 -238.5t144.5 -72.5t144.5 72.5t48 238.5q0 164 -48 236.5t-144.5 72.5t-144.5 -72.5t-48 -236.5z" />
<glyph unicode="p" horiz-adv-x="1150" d="M113 -414v1534h274l19 -94q37 45 108.5 78t159.5 33q199 0 307.5 -148.5t108.5 -427.5q0 -274 -144.5 -425.5t-376.5 -151.5q-63 0 -149 10v-408h-307zM420 270q68 -20 119 -20q115 0 177 68.5t62 242.5q0 162 -48 235.5t-124 73.5q-102 0 -186 -77v-523z" />
<glyph unicode="q" horiz-adv-x="1140" d="M61 559q0 274 144.5 426t376.5 152q223 0 456 -86v-1465h-307v492q-94 -94 -254 -94q-199 0 -307.5 148.5t-108.5 426.5zM373 559q0 -162 48 -235.5t124 -73.5q102 0 186 78v522q-68 20 -119 20q-115 0 -177 -68.5t-62 -242.5z" />
<glyph unicode="r" horiz-adv-x="837" d="M113 0v1120h274l19 -137q164 154 315 154q31 0 86 -7l-29 -294q-57 8 -86 8q-80 0 -153.5 -39t-118.5 -86v-719h-307z" />
<glyph unicode="s" horiz-adv-x="1024" d="M72 47l49 264q184 -61 375 -61q149 0 149 79q0 40 -26.5 60.5t-79.5 36.5l-172 49q-256 72 -256 330q0 143 116.5 237.5t337.5 94.5q164 0 340 -54l-49 -258q-164 53 -291 54q-143 0 -143 -76q0 -43 76 -68l143 -45q168 -53 239.5 -134t71.5 -226q0 -172 -120.5 -259 t-344.5 -87q-240 0 -415 63z" />
<glyph unicode="t" horiz-adv-x="890" d="M41 879v241h184v246l301 37v-283h279v-241h-279v-482q0 -78 26 -111.5t93 -33.5q88 0 154 18l51 -237q-172 -39 -293 -39q-168 0 -253 75.5t-85 241.5v568h-178z" />
<glyph unicode="u" horiz-adv-x="1146" d="M102 385v735h308v-710q0 -70 39.5 -115t123.5 -45t124 45t40 115v710h307v-735q0 -168 -129 -284.5t-342 -116.5t-342 116.5t-129 284.5z" />
<glyph unicode="v" horiz-adv-x="1159" d="M31 1120h323l221 -774h9l221 774h323l-366 -1120h-365z" />
<glyph unicode="w" horiz-adv-x="1732" d="M31 1120h327l127 -774h9l190 774h365l190 -774h8l127 774h328l-248 -1120h-393l-191 793h-8l-190 -793h-393z" />
<glyph unicode="x" horiz-adv-x="1163" d="M41 0l299 571l-281 549h334l185 -389h8l184 389h334l-283 -549l301 -571h-334l-202 420h-8l-203 -420h-334z" />
<glyph unicode="y" horiz-adv-x="1159" d="M31 1120h323l221 -794h9l221 794h323l-401 -1210q-59 -180 -177 -260t-341 -80q-78 0 -168 16l51 252q66 -10 117 -10q174 0 219 119l21 53h-52z" />
<glyph unicode="z" horiz-adv-x="1032" d="M51 0v233l518 637h-489v250h870v-231l-518 -639h549v-250h-930z" />
<glyph unicode="{" horiz-adv-x="907" d="M92 561v193q135 35 135 204v295q0 381 379 381h178l-20 -245h-94q-70 0 -113 -36t-43 -106v-289q0 -225 -145 -296v-9q145 -72 145 -297v-288q0 -70 43 -106t113 -36h94l20 -245h-178q-379 0 -379 380v295q0 170 -135 205z" />
<glyph unicode="|" horiz-adv-x="491" d="M102 -238v1809h287v-1809h-287z" />
<glyph unicode="}" horiz-adv-x="907" d="M123 -319l20 245h95q70 0 112.5 36t42.5 106v288q0 225 146 297v9q-145 72 -146 296v289q0 70 -43 106t-112 36h-95l-20 245h178q379 0 379 -381v-295q0 -170 135 -204v-193q-135 -35 -135 -205v-295q0 -380 -379 -380h-178z" />
<glyph unicode="~" horiz-adv-x="929" d="M61 549q0 154 58.5 244t181.5 90q63 0 125.5 -36t111 -71t76.5 -35q76 0 76 127h178q0 -154 -59 -243.5t-184 -89.5q-78 0 -176.5 70.5t-133.5 70.5q-76 0 -75 -127h-179z" />
<glyph unicode="&#xa1;" horiz-adv-x="466" d="M61 956q0 78 46.5 124t128 46t126 -46t44.5 -124q0 -76 -44.5 -120.5t-126 -44.5t-128 45t-46.5 120zM86 -37l43 643h211l43 -643v-287h-297v287z" />
<glyph unicode="&#xa2;" horiz-adv-x="935" d="M61 725q0 238 96.5 383t291.5 182v168h213v-162q90 -8 190 -39l-53 -262q-104 33 -201 33q-225 0 -225 -303q0 -166 58 -234.5t167 -68.5q106 0 213 33l53 -265q-123 -35 -202 -40v-150h-213v158q-195 37 -291.5 183t-96.5 384z" />
<glyph unicode="&#xa3;" horiz-adv-x="1263" d="M82 594v256h145q-10 76 -10 145q0 225 151.5 340t407.5 115q199 0 377 -59l-29 -261q-180 51 -327 52q-262 0 -262 -195q0 -47 8 -137h448l-65 -256h-355q6 -55 7 -111q0 -135 -86 -221h690v-262h-1043v248q68 59 98.5 111.5t30.5 129.5q0 55 -6 105h-180z" />
<glyph unicode="&#xa4;" horiz-adv-x="1175" d="M41 283l168 174q-45 90 -45 219q0 127 45 217l-168 172l166 166l166 -168q90 47 217 47q125 0 215 -47l164 168l166 -166l-166 -168q47 -98 47 -221q0 -125 -47 -223l166 -170l-166 -166l-168 170q-90 -45 -211 -45q-125 0 -215 47l-168 -172zM393 676q0 -207 196.5 -207 t196.5 207t-196 207q-98 0 -147.5 -55.5t-49.5 -151.5z" />
<glyph unicode="&#xa5;" horiz-adv-x="1206" d="M31 1434h319l244 -609h10l246 609h326l-324 -734h164v-208h-256v-93h256v-209h-256v-190h-318v190h-292v209h292v93h-292v208h200z" />
<glyph unicode="&#xa6;" horiz-adv-x="491" d="M102 -238v828h287v-828h-287zM102 743v828h287v-828h-287z" />
<glyph unicode="&#xa7;" horiz-adv-x="1081" d="M51 535q0 129 94 249q-94 94 -94 258q0 193 129 300.5t387 107.5q195 0 404 -53l-47 -262q-205 51 -357 51q-223 0 -223 -142q0 -59 51 -94t127 -49t165 -38.5t165 -58.5t127 -113.5t51 -198.5q0 -129 -94 -250q94 -94 94 -258q0 -193 -129 -300.5t-387 -107.5 q-195 0 -403 53l47 262q205 -51 356 -51q223 0 223 142q0 59 -51 94t-127 49t-165 38.5t-164.5 58.5t-127 114t-51.5 199zM344 549q0 -31 15.5 -54.5t37 -38t60.5 -28.5t71.5 -21.5t86 -19.5t85.5 -22q37 55 37 112q0 31 -15 54.5t-36.5 38t-60.5 28.5t-72 21.5t-86 19.5 t-86 23q-37 -56 -37 -113z" />
<glyph unicode="&#xa8;" horiz-adv-x="837" d="M72 1411q0 72 39 111t110 39q68 0 106 -39t38 -111q0 -74 -38 -112.5t-106 -38.5q-72 0 -110.5 38.5t-38.5 112.5zM473 1411q0 72 38 111t110 39q68 0 106.5 -39t38.5 -111q0 -74 -38.5 -112.5t-106.5 -38.5q-147 0 -148 151z" />
<glyph unicode="&#xa9;" horiz-adv-x="1622" d="M72 715q0 338 200.5 536.5t538.5 198.5t538.5 -198.5t200.5 -536.5q0 -336 -200.5 -533.5t-538.5 -197.5t-538.5 197.5t-200.5 533.5zM297 715q0 -258 140.5 -393.5t373.5 -135.5t373.5 135.5t140.5 393.5q0 262 -140.5 397t-373.5 135t-373.5 -135t-140.5 -397zM432 717 q0 199 101.5 306t279.5 107q96 0 197 -36l-27 -164q-92 27 -170 26q-184 0 -184 -239q0 -238 184 -238q74 0 176 27l27 -164q-100 -37 -203 -37q-176 0 -278.5 107.5t-102.5 304.5z" />
<glyph unicode="&#xaa;" horiz-adv-x="780" d="M82 891v43q0 186 229 209l183 16v25q0 47 -26 72.5t-97 25.5q-109 0 -224 -33l-30 164q133 37 254 37q328 0 327 -258v-498h-182l-12 66q-92 -76 -205 -76q-100 0 -158.5 58.5t-58.5 148.5zM279 911q-1 -65 81 -65q80 0 134 45v123l-129 -10q-86 -6 -86 -76v-17z" />
<glyph unicode="&#xab;" horiz-adv-x="1218" d="M82 625l410 475l174 -148l-277 -327l277 -328l-174 -147zM553 625l410 475l174 -148l-277 -327l277 -328l-174 -147z" />
<glyph unicode="&#xac;" horiz-adv-x="1077" d="M20 565v230h1037v-670h-230v440h-807z" />
<glyph unicode="&#xad;" horiz-adv-x="761" d="M82 492v233h598v-233h-598z" />
<glyph unicode="&#xae;" horiz-adv-x="1167" d="M121 1032q0 209 120.5 335t342 126t342.5 -125t121 -336t-121 -336t-342.5 -125t-342 125t-120.5 336zM262 1032q0 -152 81 -238.5t240.5 -86.5t240.5 87t81 238.5t-80 237.5t-241 86q-160 2 -241 -86t-81 -238zM422 805v459h196q72 0 117 -46t45 -120q0 -84 -69 -133 l86 -160h-127l-62 127h-73v-127h-113zM535 1036h59q66 0 65.5 61.5t-65.5 61.5h-59v-123z" />
<glyph unicode="&#xaf;" horiz-adv-x="716" d="M72 1337v213h573v-213h-573z" />
<glyph unicode="&#xb0;" horiz-adv-x="675" d="M51 1243q0 119 80 201t207 82t207 -82t80 -201t-80 -199.5t-207 -80.5t-207 80.5t-80 199.5zM223 1243q0 -49 34 -82t81 -33t80 33t33 82q0 53 -30 85t-83 32q-51 0 -83 -32t-32 -85z" />
<glyph unicode="&#xb1;" horiz-adv-x="1021" d="M20 20v230h981v-230h-981zM20 717v229h377v346h230v-346h374v-229h-374v-346h-230v346h-377z" />
<glyph unicode="&#xb2;" horiz-adv-x="862" d="M119 508v166q0 82 43 148.5t104.5 110.5t123 81t104.5 76.5t43 83.5q0 96 -152 96q-111 0 -219 -35l-41 174q127 41 272 41q162 0 254 -71.5t92 -204.5q0 -72 -42 -135.5t-103 -106.5t-121.5 -81t-102.5 -76t-42 -73v-14h407v-180h-620z" />
<glyph unicode="&#xb3;" horiz-adv-x="897" d="M119 532l45 177q96 -37 237 -37q172 0 172 110q0 127 -180 127h-131v168h131q68 0 111 23.5t43 68.5q0 100 -135 101q-100 0 -219 -37l-41 176q113 41 276 41q326 0 326 -268q0 -131 -113 -183q66 -18 101.5 -80.5t35.5 -150.5q0 -125 -89 -202t-271 -77q-190 0 -299 43z " />
<glyph unicode="&#xb4;" horiz-adv-x="700" d="M72 1395l452 258l105 -232l-494 -164z" />
<glyph unicode="&#xb5;" horiz-adv-x="1146" d="M102 -414v1534h308v-710q0 -70 39.5 -115t123.5 -45t124 45t40 115v710h307v-735q0 -170 -116.5 -285.5t-313.5 -115.5q-123 0 -204 55v-453h-308z" />
<glyph unicode="&#xb6;" horiz-adv-x="1325" d="M51 995q0 190 120 314.5t335 124.5h156v-873h-185q-195 0 -310.5 118t-115.5 316zM217 -133l51 250q145 -41 283 -43q152 0 215 56t61 175v1129h447v-250h-148v-879q0 -244 -135 -364.5t-440 -120.5q-178 0 -334 47z" />
<glyph unicode="&#xb7;" horiz-adv-x="507" d="M82 670q0 76 46 121t128 45t126 -45.5t44 -120.5q0 -78 -44 -124t-126 -46t-128 46t-46 124z" />
<glyph unicode="&#xb8;" horiz-adv-x="583" d="M72 -432l24 131q66 -10 129 -10q111 0 111 65q0 61 -111 62q-45 0 -104 -13l41 222h166l-41 -97q25 4 49 4q74 0 125 -45t51 -133q0 -98 -63.5 -151.5t-180.5 -53.5q-104 0 -196 19z" />
<glyph unicode="&#xb9;" horiz-adv-x="849" d="M131 508v178h213v549l-211 -84v184l236 99h174v-748h176v-178h-588z" />
<glyph unicode="&#xba;" horiz-adv-x="815" d="M72 1067q0 188 88 285.5t246 97.5q160 0 249.5 -97.5t87.5 -285.5q0 -190 -89 -286.5t-248 -96.5q-156 0 -245 96.5t-89 286.5zM279 1067q0 -207 127 -207q129 0 129 207t-129 207q-127 0 -127 -207z" />
<glyph unicode="&#xbb;" horiz-adv-x="1218" d="M82 297l276 328l-276 327l174 148l410 -475l-410 -475zM553 297l276 328l-276 327l174 148l410 -475l-410 -475z" />
<glyph unicode="&#xbc;" horiz-adv-x="1980" d="M123 508v178h213v549l-211 -84v184l235 99h175v-748h176v-178h-588zM610 -162l527 1757h200l-524 -1757h-203zM1130 162v160l152 313q57 121 57 215v82h195v-82q0 -113 -61 -242l-132 -270h215l27 244h172v-244h103v-176h-103v-162h-199v162h-426z" />
<glyph unicode="&#xbd;" horiz-adv-x="1982" d="M123 508v178h213v549l-211 -84v184l235 99h175v-748h176v-178h-588zM618 -162l527 1757h201l-525 -1757h-203zM1235 6v166q0 82 43 148.5t104.5 110.5t123 81t104.5 77t43 83q0 96 -152 96q-111 0 -219 -35l-41 174q127 41 272 41q162 0 254.5 -71.5t92.5 -204.5 q0 -61 -31 -115.5t-76 -92.5t-99.5 -76t-99.5 -65.5t-75.5 -59.5t-30.5 -62v-15h407v-180h-620z" />
<glyph unicode="&#xbe;" horiz-adv-x="2045" d="M123 532l45 177q96 -37 238 -37q172 0 172 110q0 127 -181 127h-131v168h131q68 0 111 23.5t43 68.5q0 100 -135 101q-100 0 -219 -37l-41 176q113 41 276 41q326 0 326 -268q0 -131 -113 -183q66 -18 101.5 -80.5t35.5 -150.5q0 -125 -89 -202t-271 -77q-190 0 -299 43z M676 -162l526 1757h201l-524 -1757h-203zM1196 162v160l152 313q57 121 57 215v82h194v-82q0 -113 -61 -242l-131 -270h215l27 244h172v-244h102v-176h-102v-162h-199v162h-426z" />
<glyph unicode="&#xbf;" horiz-adv-x="1062" d="M82 49q0 92 44 157.5t106.5 102.5t125 69t106.5 75t44 102v51h297v-90q0 -74 -42 -134t-101.5 -100t-119 -74t-101.5 -74t-42 -85q0 -121 213 -121q150 0 340 58l29 -267q-188 -59 -369 -59q-266 0 -398 94t-132 295zM485 956q0 78 44 124t126 46t128 -46t46 -124 q0 -76 -46 -120.5t-128 -44.5t-126 45t-44 120z" />
<glyph unicode="&#xc0;" horiz-adv-x="1286" d="M20 0l373 1434h496l377 -1434h-332l-74 315h-438l-72 -315h-330zM354 1759l105 232l452 -258l-63 -138zM485 592l312 2l-125 543h-62z" />
<glyph unicode="&#xc1;" horiz-adv-x="1286" d="M20 0l373 1434h496l377 -1434h-332l-74 315h-438l-72 -315h-330zM358 1733l453 258l104 -232l-493 -164zM485 592l312 2l-125 543h-62z" />
<glyph unicode="&#xc2;" horiz-adv-x="1286" d="M20 0l373 1434h496l377 -1434h-332l-74 315h-438l-72 -315h-330zM270 1700l371 291l371 -291l-86 -131l-285 164l-285 -164zM485 592l312 2l-125 543h-62z" />
<glyph unicode="&#xc3;" horiz-adv-x="1286" d="M20 0l373 1434h496l377 -1434h-332l-74 315h-438l-72 -315h-330zM309 1663q8 111 58.5 190.5t152.5 79.5q70 0 142.5 -50t103.5 -50q63 0 72 80h145q-6 -121 -56 -204t-155 -83q-63 0 -135 50t-111 50q-63 0 -71 -86zM485 592l312 2l-125 543h-62z" />
<glyph unicode="&#xc4;" horiz-adv-x="1286" d="M20 0l373 1434h496l377 -1434h-332l-74 315h-438l-72 -315h-330zM293 1749q0 72 39 110.5t110 38.5q68 0 106 -38.5t38 -110.5q0 -74 -38 -113t-106 -39q-72 0 -110.5 39t-38.5 113zM485 592l312 2l-125 543h-62zM694 1749q0 72 38 110.5t110 38.5q68 0 106.5 -38.5 t38.5 -110.5q0 -74 -38.5 -113t-106.5 -39q-147 0 -148 152z" />
<glyph unicode="&#xc5;" horiz-adv-x="1286" d="M20 0l373 1434h496l377 -1434h-332l-74 315h-438l-72 -315h-330zM410 1782q0 102 62.5 160.5t164.5 58.5t164.5 -58.5t62.5 -160.5q0 -104 -62.5 -161.5t-164.5 -57.5t-164.5 57t-62.5 162zM485 592l312 2l-125 543h-62zM559 1782q0 -35 21.5 -55.5t56.5 -20.5t56.5 20.5 t21.5 55.5t-21.5 55.5t-56.5 20.5t-56.5 -20.5t-21.5 -55.5z" />
<glyph unicode="&#xc6;" horiz-adv-x="1693" d="M20 0l373 1434h1219v-277h-651l77 -289h529v-274h-457l84 -322h418v-272h-678l-74 315h-438l-72 -315h-330zM485 592l312 2l-125 543h-62z" />
<glyph unicode="&#xc7;" horiz-adv-x="1114" d="M82 719q0 346 154.5 538.5t470.5 192.5q143 0 315 -59l-29 -285q-154 51 -286 51q-150 0 -223.5 -97t-73.5 -341q0 -248 73.5 -345.5t223.5 -97.5q154 0 297 52l28 -285q-162 -53 -280 -57l-25 -58q24 4 49 4q74 0 125 -45t51 -133q0 -98 -63.5 -151.5t-179.5 -53.5 q-104 0 -197 19l25 131q66 -10 129 -10q111 0 110 65q0 61 -110 62q-47 0 -105 -13l35 187q-260 35 -387 223t-127 506z" />
<glyph unicode="&#xc8;" horiz-adv-x="1069" d="M133 0v1434h854v-277h-536v-289h491v-274h-491v-322h536v-272h-854zM313 1759l105 232l452 -258l-63 -138z" />
<glyph unicode="&#xc9;" horiz-adv-x="1069" d="M133 0v1434h854v-277h-536v-289h491v-274h-491v-322h536v-272h-854zM317 1733l453 258l104 -232l-493 -164z" />
<glyph unicode="&#xca;" horiz-adv-x="1069" d="M133 0v1434h854v-277h-536v-289h491v-274h-491v-322h536v-272h-854zM229 1700l371 291l371 -291l-86 -131l-285 164l-285 -164z" />
<glyph unicode="&#xcb;" horiz-adv-x="1069" d="M133 0v1434h854v-277h-536v-289h491v-274h-491v-322h536v-272h-854zM252 1749q0 72 39 110.5t110 38.5q68 0 106 -38.5t38 -110.5q0 -74 -38 -113t-106 -39q-72 0 -110.5 39t-38.5 113zM653 1749q0 72 38 110.5t110 38.5q68 0 106.5 -38.5t38.5 -110.5q0 -74 -38.5 -113 t-106.5 -39q-147 0 -148 152z" />
<glyph unicode="&#xcc;" horiz-adv-x="583" d="M4 1759l105 232l452 -258l-63 -138zM133 0v1434h318v-1434h-318z" />
<glyph unicode="&#xcd;" horiz-adv-x="583" d="M8 1733l453 258l104 -232l-493 -164zM133 0v1434h318v-1434h-318z" />
<glyph unicode="&#xce;" horiz-adv-x="583" d="M-80 1700l371 291l371 -291l-87 -131l-284 164l-285 -164zM133 0v1434h318v-1434h-318z" />
<glyph unicode="&#xcf;" horiz-adv-x="583" d="M-57 1749q0 72 38.5 110.5t110.5 38.5q68 0 106 -38.5t38 -110.5q0 -74 -38 -113t-106 -39q-72 0 -110.5 39t-38.5 113zM133 0v1434h318v-1434h-318zM344 1749q0 72 38 110.5t110 38.5q68 0 106.5 -38.5t38.5 -110.5q0 -74 -38.5 -113t-106.5 -39q-147 0 -148 152z" />
<glyph unicode="&#xd0;" horiz-adv-x="1445" d="M133 610v232h143v592h469q289 0 454 -189.5t165 -523.5q0 -336 -166 -528.5t-453 -192.5h-469v610h-143zM594 276h151q133 0 212 106.5t79 338.5q0 436 -291 436h-151v-315h225v-232h-225v-334z" />
<glyph unicode="&#xd1;" horiz-adv-x="1374" d="M133 0v1434h277l514 -842h10v842h307v-1434h-295l-495 823h-11v-823h-307zM332 1663q8 111 58 190.5t153 79.5q70 0 142.5 -50t102.5 -50q63 0 72 80h146q-6 -121 -56.5 -204t-154.5 -83q-61 0 -135 50t-111 50q-63 0 -72 -86z" />
<glyph unicode="&#xd2;" d="M82 719q0 360 159.5 545.5t452.5 185.5t453 -185.5t160 -545.5q0 -362 -160 -548.5t-453 -186.5t-452.5 186t-159.5 549zM408 1759l104 232l453 -258l-64 -138zM410 719q0 -233 70.5 -341t214 -108t214 107.5t70.5 341.5q0 231 -70.5 337.5t-214 106.5t-214 -106.5 t-70.5 -337.5z" />
<glyph unicode="&#xd3;" d="M82 719q0 360 159.5 545.5t452.5 185.5t453 -185.5t160 -545.5q0 -362 -160 -548.5t-453 -186.5t-452.5 186t-159.5 549zM410 719q0 -233 70.5 -341t214 -108t214 107.5t70.5 341.5q0 231 -70.5 337.5t-214 106.5t-214 -106.5t-70.5 -337.5zM412 1733l452 258l105 -232 l-494 -164z" />
<glyph unicode="&#xd4;" d="M82 719q0 360 159.5 545.5t452.5 185.5t453 -185.5t160 -545.5q0 -362 -160 -548.5t-453 -186.5t-452.5 186t-159.5 549zM324 1700l370 291l371 -291l-86 -131l-285 164l-284 -164zM410 719q0 -233 70.5 -341t214 -108t214 107.5t70.5 341.5q0 231 -70.5 337.5 t-214 106.5t-214 -106.5t-70.5 -337.5z" />
<glyph unicode="&#xd5;" d="M82 719q0 360 159.5 545.5t452.5 185.5t453 -185.5t160 -545.5q0 -362 -160 -548.5t-453 -186.5t-452.5 186t-159.5 549zM362 1663q8 111 58.5 190.5t152.5 79.5q70 0 142.5 -50t103.5 -50q63 0 72 80h145q-6 -121 -56 -204t-155 -83q-61 0 -133.5 50t-111.5 50 q-63 0 -72 -86zM410 719q0 -233 70.5 -341t214 -108t214 107.5t70.5 341.5q0 231 -70.5 337.5t-214 106.5t-214 -106.5t-70.5 -337.5z" />
<glyph unicode="&#xd6;" d="M82 719q0 360 159.5 545.5t452.5 185.5t453 -185.5t160 -545.5q0 -362 -160 -548.5t-453 -186.5t-452.5 186t-159.5 549zM346 1749q0 72 39 110.5t111 38.5q68 0 105.5 -38.5t37.5 -110.5q0 -74 -37.5 -113t-105.5 -39q-72 0 -111 39t-39 113zM410 719q0 -233 70.5 -341 t214 -108t214 107.5t70.5 341.5q0 231 -70.5 337.5t-214 106.5t-214 -106.5t-70.5 -337.5zM748 1749q0 72 37.5 110.5t109.5 38.5q68 0 106.5 -38.5t38.5 -110.5q0 -74 -38.5 -113t-106.5 -39q-147 0 -147 152z" />
<glyph unicode="&#xd7;" horiz-adv-x="974" d="M51 963l162 161l274 -272l265 264l161 -162l-264 -266l275 -272l-164 -162l-273 272l-266 -266l-162 162l267 266z" />
<glyph unicode="&#xd8;" d="M82 719q0 360 159.5 545.5t452.5 185.5q147 0 264 -49l62 115h225l-123 -226q184 -188 185 -571q0 -362 -160 -548.5t-453 -186.5q-147 0 -264 49l-61 -115h-226l123 225q-184 188 -184 576zM410 719q0 -160 32 -256l371 676q-53 25 -119 24q-143 0 -213.5 -106.5 t-70.5 -337.5zM575 295q53 -25 119 -25q143 0 214 107.5t71 341.5q0 158 -33 254z" />
<glyph unicode="&#xd9;" horiz-adv-x="1343" d="M133 471v963h318v-945q0 -219 221 -219t221 219v945h317v-963q0 -227 -150.5 -357t-388 -130t-388 130t-150.5 357zM395 1759l105 232l452 -258l-63 -138z" />
<glyph unicode="&#xda;" horiz-adv-x="1343" d="M133 471v963h318v-945q0 -219 221 -219t221 219v945h317v-963q0 -227 -150.5 -357t-388 -130t-388 130t-150.5 357zM399 1733l453 258l104 -232l-493 -164z" />
<glyph unicode="&#xdb;" horiz-adv-x="1343" d="M133 471v963h318v-945q0 -219 221 -219t221 219v945h317v-963q0 -227 -150.5 -357t-388 -130t-388 130t-150.5 357zM311 1700l371 291l371 -291l-86 -131l-285 164l-285 -164z" />
<glyph unicode="&#xdc;" horiz-adv-x="1343" d="M133 471v963h318v-945q0 -219 221 -219t221 219v945h317v-963q0 -227 -150.5 -357t-388 -130t-388 130t-150.5 357zM334 1749q0 72 39 110.5t110 38.5q68 0 106 -38.5t38 -110.5q0 -74 -38 -113t-106 -39q-72 0 -110.5 39t-38.5 113zM735 1749q0 72 38 110.5t110 38.5 q68 0 106.5 -38.5t38.5 -110.5q0 -74 -38.5 -113t-106.5 -39q-147 0 -148 152z" />
<glyph unicode="&#xdd;" horiz-adv-x="1206" d="M31 1434h319l244 -609h10l246 609h326l-416 -942v-492h-318v492zM317 1733l453 258l104 -232l-493 -164z" />
<glyph unicode="&#xde;" horiz-adv-x="1208" d="M133 0v1434h318v-205h215q231 0 361 -130t130 -345q0 -205 -132 -342.5t-359 -137.5h-215v-274h-318zM451 555h194q88 0 136 54.5t48 144.5q0 92 -48 145t-136 53h-194v-397z" />
<glyph unicode="&#xdf;" horiz-adv-x="1447" d="M102 -414v1538q0 201 125 312.5t363 111.5q229 0 370.5 -93t141.5 -251q0 -141 -139 -252q-57 -45 -77 -71.5t-20 -59.5q0 -31 21.5 -51t75.5 -39l112 -39q166 -57 233.5 -133t67.5 -215q0 -174 -121.5 -267t-343.5 -93q-217 0 -385 63l29 264q184 -61 356 -61 q74 0 116 25.5t42 68.5q0 29 -16.5 49.5t-36 29.5t-58.5 21l-147 50q-127 43 -191.5 107.5t-64.5 189.5q0 129 137 245q8 8 29.5 25.5t30 26t21.5 23.5t17.5 31.5t4.5 37.5q0 47 -56.5 80.5t-148.5 33.5q-84 0 -132 -37.5t-48 -115.5v-1555h-308z" />
<glyph unicode="&#xe0;" horiz-adv-x="1091" d="M61 297v63q0 283 345 314l276 24v39q0 70 -40 108t-146 38q-168 0 -336 -47l-47 245q199 55 383 56q494 0 493 -389v-748h-274l-19 98q-139 -114 -307 -114q-152 0 -240 89t-88 224zM260 1421l105 232l452 -258l-63 -138zM356 326q0 -97 123 -97q121 0 203 68v184 l-195 -16q-131 -10 -131 -113v-26z" />
<glyph unicode="&#xe1;" horiz-adv-x="1091" d="M61 297v63q0 283 345 314l276 24v39q0 70 -40 108t-146 38q-168 0 -336 -47l-47 245q199 55 383 56q494 0 493 -389v-748h-274l-19 98q-139 -114 -307 -114q-152 0 -240 89t-88 224zM264 1395l453 258l104 -232l-493 -164zM356 326q0 -97 123 -97q121 0 203 68v184 l-195 -16q-131 -10 -131 -113v-26z" />
<glyph unicode="&#xe2;" horiz-adv-x="1091" d="M61 297v63q0 283 345 314l276 24v39q0 70 -40 108t-146 38q-168 0 -336 -47l-47 245q199 55 383 56q494 0 493 -389v-748h-274l-19 98q-139 -114 -307 -114q-152 0 -240 89t-88 224zM176 1362l371 291l371 -291l-87 -131l-284 164l-285 -164zM356 326q0 -97 123 -97 q121 0 203 68v184l-195 -16q-131 -10 -131 -113v-26z" />
<glyph unicode="&#xe3;" horiz-adv-x="1091" d="M61 297v63q0 283 345 314l276 24v39q0 70 -40 108t-146 38q-168 0 -336 -47l-47 245q199 55 383 56q494 0 493 -389v-748h-274l-19 98q-139 -114 -307 -114q-152 0 -240 89t-88 224zM215 1325q8 111 58.5 190.5t152.5 79.5q70 0 142.5 -50t103.5 -50q63 0 71 80h146 q-6 -121 -56.5 -204t-154.5 -83q-63 0 -136 50.5t-110 50.5q-63 0 -72 -86zM356 326q0 -97 123 -97q121 0 203 68v184l-195 -16q-131 -10 -131 -113v-26z" />
<glyph unicode="&#xe4;" horiz-adv-x="1091" d="M61 297v63q0 283 345 314l276 24v39q0 70 -40 108t-146 38q-168 0 -336 -47l-47 245q199 55 383 56q494 0 493 -389v-748h-274l-19 98q-139 -114 -307 -114q-152 0 -240 89t-88 224zM199 1411q0 72 38.5 111t110.5 39q68 0 106 -39t38 -111q0 -74 -38 -112.5t-106 -38.5 q-72 0 -110.5 38.5t-38.5 112.5zM356 326q0 -97 123 -97q121 0 203 68v184l-195 -16q-131 -10 -131 -113v-26zM600 1411q0 72 38 111t110 39q68 0 106.5 -39t38.5 -111q0 -74 -38.5 -112.5t-106.5 -38.5q-147 0 -148 151z" />
<glyph unicode="&#xe5;" horiz-adv-x="1091" d="M61 297v63q0 283 345 314l276 24v39q0 70 -40 108t-146 38q-168 0 -336 -47l-47 245q199 55 383 56q494 0 493 -389v-748h-274l-19 98q-139 -114 -307 -114q-152 0 -240 89t-88 224zM315 1444q0 102 62.5 160.5t165 58.5t165 -58.5t62.5 -160.5q0 -104 -62.5 -161.5 t-165 -57.5t-165 57t-62.5 162zM356 326q0 -97 123 -97q121 0 203 68v184l-195 -16q-131 -10 -131 -113v-26zM465 1444q0 -35 21.5 -55.5t56.5 -20.5t56.5 20.5t21.5 55.5t-21.5 55.5t-56.5 20.5t-56.5 -20.5t-21.5 -55.5z" />
<glyph unicode="&#xe6;" horiz-adv-x="1726" d="M61 297v63q0 279 345 314l276 26v37q0 70 -40 108t-146 38q-168 0 -336 -47l-47 245q199 55 383 56q246 0 370 -99q123 98 320 99q258 0 368.5 -153t110.5 -435v-103h-670q16 -115 73.5 -161.5t166.5 -46.5q162 0 319 47l48 -242q-170 -59 -367 -59q-258 0 -401 137 q-179 -137 -433 -137q-152 0 -246 89t-94 224zM356 326q0 -97 123 -97q137 0 238 76q-33 70 -33 172v4l-197 -16q-131 -10 -131 -113v-26zM995 672h367q-6 119 -52 169t-136 50q-163 0 -179 -219z" />
<glyph unicode="&#xe7;" horiz-adv-x="935" d="M61 561q0 274 129 425t388 151q133 0 274 -43l-53 -263q-104 33 -201 33q-225 0 -225 -303q0 -166 58 -234.5t167 -68.5q106 0 213 33l53 -264q-141 -41 -258 -43l-24 -56q24 4 49 4q74 0 125 -45t51 -133q0 -98 -63.5 -151.5t-180.5 -53.5q-104 0 -196 19l24 131 q66 -10 129 -10q111 0 111 65q0 61 -111 62q-45 0 -104 -13l35 191q-195 37 -292.5 182.5t-97.5 384.5z" />
<glyph unicode="&#xe8;" horiz-adv-x="1110" d="M61 549q0 268 129 428t377 160q264 0 373 -151.5t109 -436.5v-103h-670q8 -115 68.5 -161.5t170.5 -46.5q162 0 320 47l47 -242q-170 -59 -389 -59q-262 0 -398.5 144t-136.5 421zM291 1421l104 232l453 -258l-64 -138zM379 672h371q-6 119 -49.5 169t-131.5 50 q-174 0 -190 -219z" />
<glyph unicode="&#xe9;" horiz-adv-x="1110" d="M61 549q0 268 129 428t377 160q264 0 373 -151.5t109 -436.5v-103h-670q8 -115 68.5 -161.5t170.5 -46.5q162 0 320 47l47 -242q-170 -59 -389 -59q-262 0 -398.5 144t-136.5 421zM295 1395l453 258l104 -232l-494 -164zM379 672h371q-6 119 -49.5 169t-131.5 50 q-174 0 -190 -219z" />
<glyph unicode="&#xea;" horiz-adv-x="1110" d="M61 549q0 268 129 428t377 160q264 0 373 -151.5t109 -436.5v-103h-670q8 -115 68.5 -161.5t170.5 -46.5q162 0 320 47l47 -242q-170 -59 -389 -59q-262 0 -398.5 144t-136.5 421zM207 1362l371 291l370 -291l-86 -131l-284 164l-285 -164zM379 672h371q-6 119 -49.5 169 t-131.5 50q-174 0 -190 -219z" />
<glyph unicode="&#xeb;" horiz-adv-x="1110" d="M61 549q0 268 129 428t377 160q264 0 373 -151.5t109 -436.5v-103h-670q8 -115 68.5 -161.5t170.5 -46.5q162 0 320 47l47 -242q-170 -59 -389 -59q-262 0 -398.5 144t-136.5 421zM229 1411q0 72 39 111t111 39q68 0 105.5 -39t37.5 -111q0 -74 -37.5 -112.5 t-105.5 -38.5q-72 0 -111 38.5t-39 112.5zM379 672h371q-6 119 -49.5 169t-131.5 50q-174 0 -190 -219zM631 1411q0 72 38 111t109 39q68 0 107 -39t39 -111q0 -74 -39 -112.5t-107 -38.5q-147 0 -147 151z" />
<glyph unicode="&#xec;" horiz-adv-x="501" d="M-23 1421l105 232l453 -258l-64 -138zM102 0v1120h308v-1120h-308z" />
<glyph unicode="&#xed;" horiz-adv-x="501" d="M-18 1395l452 258l105 -232l-494 -164zM102 0v1120h308v-1120h-308z" />
<glyph unicode="&#xee;" horiz-adv-x="501" d="M-106 1362l370 291l371 -291l-86 -131l-285 164l-284 -164zM102 0v1120h308v-1120h-308z" />
<glyph unicode="&#xef;" horiz-adv-x="501" d="M-84 1411q0 72 39 111t111 39q68 0 105.5 -39t37.5 -111q0 -74 -37.5 -112.5t-105.5 -38.5q-72 0 -111 38.5t-39 112.5zM102 0v1120h308v-1120h-308zM317 1411q0 72 38 111t110 39q68 0 106.5 -39t38.5 -111q0 -74 -38.5 -112.5t-106.5 -38.5q-147 0 -148 151z" />
<glyph unicode="&#xf0;" horiz-adv-x="1124" d="M61 479.5q0 225.5 134.5 360.5t369.5 135q104 0 191 -19v72q0 100 -54 160l-172 -121l-100 139l113 78q-4 2 -12.5 5t-12.5 5l-231 86l65 172l264 -82q72 -23 127 -45l179 123l100 -139l-113 -78q154 -123 154 -321v-531q0 -236 -135 -365.5t-363 -129.5q-236 0 -370 135 t-134 360.5zM373 479q0 -125 52 -187.5t140 -62.5t139.5 62.5t51.5 187.5v230q-90 20 -191 20q-193 0 -192 -250z" />
<glyph unicode="&#xf1;" horiz-adv-x="1157" d="M113 0v1120h274l19 -98q145 115 339 115q309 0 310 -314v-823h-307v737q0 125 -121 125q-102 0 -207 -76v-786h-307zM270 1325q8 111 58.5 190.5t152.5 79.5q70 0 142.5 -50t103.5 -50q63 0 72 80h145q-6 -121 -56.5 -204t-154.5 -83q-61 0 -135 50.5t-111 50.5 q-63 0 -71 -86z" />
<glyph unicode="&#xf2;" horiz-adv-x="1130" d="M61 561q0 285 133.5 430.5t370.5 145.5q240 0 373 -145.5t131 -430.5q0 -285 -133 -431t-371 -146q-236 0 -370 146t-134 431zM279 1421l104 232l453 -258l-64 -138zM373 561q0 -166 48 -238.5t144.5 -72.5t144.5 72.5t48 238.5q0 164 -48 236.5t-144.5 72.5 t-144.5 -72.5t-48 -236.5z" />
<glyph unicode="&#xf3;" horiz-adv-x="1130" d="M61 561q0 285 133.5 430.5t370.5 145.5q240 0 373 -145.5t131 -430.5q0 -285 -133 -431t-371 -146q-236 0 -370 146t-134 431zM283 1395l452 258l105 -232l-494 -164zM373 561q0 -166 48 -238.5t144.5 -72.5t144.5 72.5t48 238.5q0 164 -48 236.5t-144.5 72.5 t-144.5 -72.5t-48 -236.5z" />
<glyph unicode="&#xf4;" horiz-adv-x="1130" d="M61 561q0 285 133.5 430.5t370.5 145.5q240 0 373 -145.5t131 -430.5q0 -285 -133 -431t-371 -146q-236 0 -370 146t-134 431zM195 1362l370 291l371 -291l-86 -131l-285 164l-284 -164zM373 561q0 -166 48 -238.5t144.5 -72.5t144.5 72.5t48 238.5q0 164 -48 236.5 t-144.5 72.5t-144.5 -72.5t-48 -236.5z" />
<glyph unicode="&#xf5;" horiz-adv-x="1130" d="M61 561q0 285 133.5 430.5t370.5 145.5q240 0 373 -145.5t131 -430.5q0 -285 -133 -431t-371 -146q-236 0 -370 146t-134 431zM233 1325q8 111 58.5 190.5t152.5 79.5q70 0 142.5 -50t103.5 -50q63 0 72 80h145q-6 -121 -56.5 -204t-154.5 -83q-61 0 -135 50.5t-110 50.5 q-63 0 -72 -86zM373 561q0 -166 48 -238.5t144.5 -72.5t144.5 72.5t48 238.5q0 164 -48 236.5t-144.5 72.5t-144.5 -72.5t-48 -236.5z" />
<glyph unicode="&#xf6;" horiz-adv-x="1130" d="M61 561q0 285 133.5 430.5t370.5 145.5q240 0 373 -145.5t131 -430.5q0 -285 -133 -431t-371 -146q-236 0 -370 146t-134 431zM217 1411q0 72 39 111t111 39q68 0 105.5 -39t37.5 -111q0 -74 -37.5 -112.5t-105.5 -38.5q-72 0 -111 38.5t-39 112.5zM373 561 q0 -166 48 -238.5t144.5 -72.5t144.5 72.5t48 238.5q0 164 -48 236.5t-144.5 72.5t-144.5 -72.5t-48 -236.5zM618 1411q0 72 38 111t110 39q68 0 106.5 -39t38.5 -111q0 -74 -38.5 -112.5t-106.5 -38.5q-147 0 -148 151z" />
<glyph unicode="&#xf7;" horiz-adv-x="1021" d="M20 573v230h981v-230h-981zM344 326q0 63 36 102t109.5 39t109.5 -39t36 -102q0 -142 -145.5 -142t-145.5 142zM344 1053q0 63 36 102t109.5 39t109.5 -39t36 -102q0 -142 -145.5 -142t-145.5 142z" />
<glyph unicode="&#xf8;" horiz-adv-x="1110" d="M61 561q0 285 133.5 430.5t370.5 145.5q88 0 172 -23l31 64h199l-72 -146q176 -145 174 -471q0 -285 -133 -431t-371 -146q-98 0 -178 24l-45 -90h-199l88 176q-170 147 -170 467zM373 561q0 -94 14 -151l225 456q-29 4 -47 4q-96 0 -144 -72.5t-48 -236.5zM510 256 q24 -6 55 -6q96 0 144.5 72.5t48.5 238.5q0 92 -17 162z" />
<glyph unicode="&#xf9;" horiz-adv-x="1146" d="M102 385v735h308v-710q0 -70 39.5 -115t123.5 -45t124 45t40 115v710h307v-735q0 -168 -129 -284.5t-342 -116.5t-342 116.5t-129 284.5zM287 1421l104 232l453 -258l-64 -138z" />
<glyph unicode="&#xfa;" horiz-adv-x="1146" d="M102 385v735h308v-710q0 -70 39.5 -115t123.5 -45t124 45t40 115v710h307v-735q0 -168 -129 -284.5t-342 -116.5t-342 116.5t-129 284.5zM291 1395l452 258l105 -232l-494 -164z" />
<glyph unicode="&#xfb;" horiz-adv-x="1146" d="M102 385v735h308v-710q0 -70 39.5 -115t123.5 -45t124 45t40 115v710h307v-735q0 -168 -129 -284.5t-342 -116.5t-342 116.5t-129 284.5zM203 1362l370 291l371 -291l-86 -131l-285 164l-284 -164z" />
<glyph unicode="&#xfc;" horiz-adv-x="1146" d="M102 385v735h308v-710q0 -70 39.5 -115t123.5 -45t124 45t40 115v710h307v-735q0 -168 -129 -284.5t-342 -116.5t-342 116.5t-129 284.5zM225 1411q0 72 39 111t111 39q68 0 105.5 -39t37.5 -111q0 -74 -37.5 -112.5t-105.5 -38.5q-72 0 -111 38.5t-39 112.5zM627 1411 q0 72 37.5 111t109.5 39q68 0 107 -39t39 -111q0 -74 -39 -112.5t-107 -38.5q-147 0 -147 151z" />
<glyph unicode="&#xfd;" horiz-adv-x="1159" d="M31 1120h323l221 -794h9l221 794h323l-401 -1210q-59 -180 -177 -260t-341 -80q-78 0 -168 16l51 252q66 -10 117 -10q174 0 219 119l21 53h-52zM303 1395l453 258l104 -232l-493 -164z" />
<glyph unicode="&#xfe;" horiz-adv-x="1150" d="M113 -414v1950h307v-494q94 95 254 95q199 0 307.5 -148.5t108.5 -427.5q0 -274 -144.5 -425.5t-376.5 -151.5q-63 0 -149 10v-408h-307zM420 270q68 -20 119 -20q115 0 177 68.5t62 242.5q0 162 -48 235.5t-124 73.5q-102 0 -186 -77v-523z" />
<glyph unicode="&#xff;" horiz-adv-x="1159" d="M31 1120h323l221 -794h9l221 794h323l-401 -1210q-59 -180 -177 -260t-341 -80q-78 0 -168 16l51 252q66 -10 117 -10q174 0 219 119l21 53h-52zM238 1411q0 72 38.5 111t110.5 39q68 0 105.5 -39t37.5 -111q0 -74 -37.5 -112.5t-105.5 -38.5q-72 0 -110.5 38.5 t-38.5 112.5zM639 1411q0 72 38 111t109 39q68 0 107 -39t39 -111q0 -74 -39 -112.5t-107 -38.5q-147 0 -147 151z" />
<glyph unicode="&#x152;" horiz-adv-x="1921" d="M82 719q0 360 159.5 545.5t452.5 185.5q166 0 291 -61v45h854v-277h-536v-289h491v-274h-491v-322h536v-272h-854v45q-125 -61 -291 -61q-293 0 -452.5 186t-159.5 549zM410 719q0 -233 70.5 -341t214 -108t214 107.5t70.5 341.5q0 231 -70.5 337.5t-214 106.5 t-214 -106.5t-70.5 -337.5z" />
<glyph unicode="&#x153;" horiz-adv-x="1826" d="M61 561q0 285 133.5 430.5t370.5 145.5q233 0 365 -136q131 135 354 136q264 0 372.5 -151.5t108.5 -436.5v-103h-669q8 -115 68.5 -161.5t170.5 -46.5q162 0 320 47l47 -242q-170 -59 -389 -59q-254 0 -387 133q-133 -133 -361 -133q-236 0 -370 146t-134 431zM373 561 q0 -166 48 -238.5t144.5 -72.5t144.5 72.5t48 238.5q0 164 -48 236.5t-144.5 72.5t-144.5 -72.5t-48 -236.5zM1096 672h370q-6 119 -49 169t-131 50q-174 0 -190 -219z" />
<glyph unicode="&#x178;" horiz-adv-x="1206" d="M31 1434h319l244 -609h10l246 609h326l-416 -942v-492h-318v492zM252 1749q0 72 39 110.5t110 38.5q68 0 106 -38.5t38 -110.5q0 -74 -38 -113t-106 -39q-72 0 -110.5 39t-38.5 113zM653 1749q0 72 38 110.5t110 38.5q68 0 106.5 -38.5t38.5 -110.5q0 -74 -38.5 -113 t-106.5 -39q-147 0 -148 152z" />
<glyph unicode="&#x2c6;" horiz-adv-x="884" d="M72 1362l370 291l371 -291l-86 -131l-285 164l-284 -164z" />
<glyph unicode="&#x2dc;" horiz-adv-x="817" d="M72 1325q8 111 58 190.5t153 79.5q70 0 142.5 -50t102.5 -50q63 0 72 80h145q-6 -121 -56 -204t-154 -83q-63 0 -135 50.5t-111 50.5q-63 0 -72 -86z" />
<glyph unicode="&#x2000;" horiz-adv-x="1000" />
<glyph unicode="&#x2001;" horiz-adv-x="2001" />
<glyph unicode="&#x2002;" horiz-adv-x="1000" />
<glyph unicode="&#x2003;" horiz-adv-x="2001" />
<glyph unicode="&#x2004;" horiz-adv-x="667" />
<glyph unicode="&#x2005;" horiz-adv-x="500" />
<glyph unicode="&#x2006;" horiz-adv-x="333" />
<glyph unicode="&#x2007;" horiz-adv-x="333" />
<glyph unicode="&#x2008;" horiz-adv-x="250" />
<glyph unicode="&#x2009;" horiz-adv-x="400" />
<glyph unicode="&#x200a;" horiz-adv-x="111" />
<glyph unicode="&#x2010;" horiz-adv-x="761" d="M82 492v233h598v-233h-598z" />
<glyph unicode="&#x2011;" horiz-adv-x="761" d="M82 492v233h598v-233h-598z" />
<glyph unicode="&#x2012;" horiz-adv-x="761" d="M82 492v233h598v-233h-598z" />
<glyph unicode="&#x2013;" horiz-adv-x="987" d="M82 500v233h823v-233h-823z" />
<glyph unicode="&#x2014;" horiz-adv-x="1290" d="M82 500v233h1126v-233h-1126z" />
<glyph unicode="&#x2018;" horiz-adv-x="536" d="M82 973q0 131 49 296t115 287l209 -30q-86 -258 -86 -553h-287z" />
<glyph unicode="&#x2019;" horiz-adv-x="536" d="M82 881q86 258 86 553h287q0 -131 -49 -296t-115 -288z" />
<glyph unicode="&#x201a;" horiz-adv-x="536" d="M82 -307q86 258 86 553h287q0 -131 -49 -296t-115 -288z" />
<glyph unicode="&#x201c;" horiz-adv-x="946" d="M82 973q0 131 49 296t115 287l209 -30q-86 -258 -86 -553h-287zM492 973q0 131 49 296t114 287l209 -30q-86 -258 -86 -553h-286z" />
<glyph unicode="&#x201d;" horiz-adv-x="946" d="M82 881q86 258 86 553h287q0 -131 -49 -296t-115 -288zM492 881q86 258 86 553h286q0 -131 -49 -296t-115 -288z" />
<glyph unicode="&#x201e;" horiz-adv-x="946" d="M82 -307q86 258 86 553h287q0 -131 -49 -296t-115 -288zM492 -307q86 258 86 553h286q0 -131 -49 -296t-115 -288z" />
<glyph unicode="&#x2022;" horiz-adv-x="835" d="M154 625q0 127 69.5 200.5t194.5 73.5t194.5 -73.5t69.5 -200.5t-69.5 -201t-194.5 -74t-194.5 74t-69.5 201z" />
<glyph unicode="&#x2026;" horiz-adv-x="1531" d="M82 154q0 76 46 120.5t128 44.5t126 -45t44 -120q0 -78 -44 -124t-126 -46t-128 46t-46 124zM594 154q0 76 46 120.5t128 44.5t126 -45t44 -120q0 -78 -44 -124t-126 -46t-128 46t-46 124zM1106 154q0 76 46 120.5t128 44.5t126 -45t44 -120q0 -78 -44 -124t-126 -46 t-128 46t-46 124z" />
<glyph unicode="&#x202f;" horiz-adv-x="400" />
<glyph unicode="&#x2039;" horiz-adv-x="747" d="M82 625l410 475l174 -148l-277 -327l277 -328l-174 -147z" />
<glyph unicode="&#x203a;" horiz-adv-x="747" d="M82 297l276 328l-276 327l174 148l410 -475l-410 -475z" />
<glyph unicode="&#x205f;" horiz-adv-x="500" />
<glyph unicode="&#x20ac;" horiz-adv-x="1214" d="M82 473v189h102q-2 18 -2 57v53h-100v189h123q98 489 602 489q143 0 315 -59l-28 -285q-154 51 -287 51q-104 0 -171 -45t-97 -151h352l-45 -189h-336v-53q0 -39 2 -57h309l-43 -189h-239q31 -106 97 -151.5t171 -45.5q154 1 297 52l29 -285q-182 -59 -326 -59 q-504 0 -602 489h-123z" />
<glyph unicode="&#x2122;" horiz-adv-x="1552" d="M82 1249v185h532v-185h-168v-442h-196v442h-168zM696 807l25 627h223l139 -332l140 332h223l24 -627h-188l-12 307h-4l-84 -227h-197l-84 227h-4l-12 -307h-189z" />
<glyph unicode="&#x25fc;" horiz-adv-x="1116" d="M0 0v1116h1116v-1116h-1116z" />
</font>
</defs>
</svg>
