<?xml version="1.0" standalone="no"?>
<!DOCTYPE svg PUBLIC "-//W3C//DTD SVG 1.1//EN" "http://www.w3.org/Graphics/SVG/1.1/DTD/svg11.dtd" >
<svg xmlns="http://www.w3.org/2000/svg" xmlns:xlink="http://www.w3.org/1999/xlink" version="1.1">
<metadata></metadata>
<defs>
<font id="boulditalic" horiz-adv-x="1363" >
<font-face units-per-em="2048" ascent="1638" descent="-410" />
<missing-glyph horiz-adv-x="536" />
<glyph horiz-adv-x="0" />
<glyph unicode="&#xd;" horiz-adv-x="681" />
<glyph unicode=" "  horiz-adv-x="536" />
<glyph unicode="&#x09;" horiz-adv-x="536" />
<glyph unicode="&#xa0;" horiz-adv-x="536" />
<glyph unicode="!" horiz-adv-x="493" d="M141 74q0 76 42 121t112 45q102 0 102 -90q0 -76 -41.5 -121t-109.5 -45q-104 0 -105 90zM285 453l92 653l63 328h170l-63 -328l-162 -653h-100z" />
<glyph unicode="&#x22;" horiz-adv-x="651" d="M305 950l21 256l45 228h170l-45 -228l-80 -256h-111zM602 950l21 256l45 228h170l-45 -228l-80 -256h-111z" />
<glyph unicode="#" horiz-adv-x="1116" d="M152 459l51 131h196l95 258h-211l51 131h209l108 291h127l-108 -291h235l109 291h127l-109 -291h213l-53 -131h-209l-94 -258h225l-53 -131h-221l-109 -291h-127l109 291h-236l-108 -291h-127l108 291h-198zM526 590h236l94 258h-235z" />
<glyph unicode="$" horiz-adv-x="1118" d="M125 59l49 162q190 -72 385 -71q170 0 259 75.5t89 206.5q0 127 -157 197l-199 88q-205 92 -205 297q0 197 110.5 309.5t336.5 124.5l26 143h144l-27 -145q158 -12 283 -55l-50 -160q-176 57 -338 57q-158 0 -233.5 -66.5t-75.5 -183.5q0 -119 125 -174l209 -92 q233 -102 234 -317q0 -442 -500 -469l-35 -181h-143l37 181q-174 14 -324 73z" />
<glyph unicode="%" horiz-adv-x="1681" d="M330 1065q39 197 128 291t240 94q137 0 202 -98.5t28 -286.5q-39 -197 -128 -291t-241 -94q-137 0 -201.5 98.5t-27.5 286.5zM379 -59l1042 1552h160l-1042 -1552h-160zM469 1065q-49 -258 111 -258q84 0 134 63.5t74 194.5q49 258 -110 258q-84 0 -134 -63.5t-75 -194.5 zM1032 369q39 197 128 291t241 94q137 0 201.5 -98.5t27.5 -286.5q-39 -197 -127.5 -291t-240.5 -94q-137 0 -202 98t-28 287zM1171 369q-49 -258 111 -258q84 0 134 63.5t75 194.5q49 258 -111 258q-84 0 -134 -63.5t-75 -194.5z" />
<glyph unicode="&#x26;" horiz-adv-x="1462" d="M195 332q0 172 81.5 280.5t227.5 147.5q-145 59 -146 227q0 463 547 463q193 0 359 -53l-47 -156q-164 49 -328 49q-172 0 -263 -71.5t-91 -208.5q0 -94 69.5 -137.5t169.5 -43.5h373q262 0 428 119l72 -123q-186 -135 -416 -149q-16 -131 -54 -241.5t-111 -218 t-200 -170t-295 -62.5q-180 0 -278 99t-98 249zM369 352q0 -202 256 -202q174 0 293.5 139t156.5 385h-327q-176 0 -277.5 -86t-101.5 -236z" />
<glyph unicode="'" horiz-adv-x="354" d="M305 950l21 256l45 228h170l-45 -228l-80 -256h-111z" />
<glyph unicode="(" horiz-adv-x="890" d="M281 657q78 408 256 660t452 313l12 -157q-213 -70 -344 -265.5t-200 -550.5q-68 -360 -14.5 -554.5t233.5 -260.5l-43 -157q-246 80 -337 328.5t-15 643.5z" />
<glyph unicode=")" horiz-adv-x="890" d="M145 -158q213 70 344.5 265.5t200.5 549.5q68 360 14.5 555t-233.5 261l43 157q246 -80 337 -328.5t15 -644.5q-78 -408 -256 -659.5t-452 -312.5z" />
<glyph unicode="*" horiz-adv-x="905" d="M342 1229l76 133l149 -59l76 -46l6 107l33 172h141l-32 -172l-37 -107l92 46l174 59l22 -133l-172 -58l-118 -24l71 -78l84 -131l-116 -90l-84 131l-39 86l-72 -86l-133 -131l-101 90l138 131l100 78l-106 24z" />
<glyph unicode="+" horiz-adv-x="980" d="M139 614l29 148h397l80 407h148l-80 -407h395l-29 -148h-395l-80 -407h-147l80 407h-398z" />
<glyph unicode="," horiz-adv-x="571" d="M88 -287q145 289 195 533h194q-55 -264 -270 -563z" />
<glyph unicode="-" horiz-adv-x="761" d="M207 541l29 151h557l-29 -151h-557z" />
<glyph unicode="." horiz-adv-x="534" d="M162 74q0 76 42 121t111 45q102 0 103 -90q0 -76 -42 -121t-110 -45q-104 0 -104 90z" />
<glyph unicode="/" horiz-adv-x="622" d="M-92 -264l885 1859h170l-885 -1859h-170z" />
<glyph unicode="0" horiz-adv-x="1204" d="M272 719q70 360 209.5 545.5t401.5 185.5q469 0 327 -731q-72 -365 -211 -550t-401 -185q-469 0 -326 735zM427 292q40 -155 202 -155q160 0 256 147.5t151 434.5q59 268 19.5 422.5t-201.5 154.5t-257 -146t-151 -431q-59 -272 -19 -427z" />
<glyph unicode="1" horiz-adv-x="870" d="M340 1112l33 164l436 158h137l-280 -1434h-174l243 1249z" />
<glyph unicode="2" horiz-adv-x="1107" d="M133 0l37 203q20 109 91 204t163 160.5t195.5 134t189.5 125t142.5 131t56.5 154.5q0 184 -275 184q-150 0 -297 -55l-26 145q180 63 374 64q190 0 298 -81t108 -224q0 -135 -79 -248t-194.5 -189.5t-233.5 -147.5t-211 -159t-114 -186l-10 -51h656l-33 -164h-838z" />
<glyph unicode="3" horiz-adv-x="1110" d="M100 47l62 158q145 -55 330 -55q197 0 300 86t103 247q0 94 -75 142.5t-204 48.5h-178l31 155h178q145 0 237.5 81t92.5 208q0 166 -250 166q-158 0 -307 -55l-21 157q184 63 381 64q184 0 279.5 -75t95.5 -216q0 -145 -67.5 -248.5t-192.5 -146.5q80 -27 126 -93.5 t46 -160.5q0 -254 -150.5 -390t-437.5 -136q-221 0 -379 63z" />
<glyph unicode="4" horiz-adv-x="1210" d="M170 291l27 135l340 551q51 84 71.5 121t44 94t35.5 117l25 125h172l-25 -125q-18 -94 -56 -173t-112 -200l-299 -485h441l116 442h144l-86 -442h198l-30 -160h-199l-57 -291h-175l58 291h-633z" />
<glyph unicode="5" horiz-adv-x="1155" d="M141 47l60 143q137 -55 315 -55q199 0 312.5 108.5t113.5 276.5q0 100 -65.5 161.5t-192.5 61.5q-139 0 -303 -51l-72 45l135 697h760l-35 -170h-596l-75 -400q94 33 231 33q190 0 290.5 -91t100.5 -247q0 -264 -159.5 -419.5t-452.5 -155.5q-205 0 -367 63z" />
<glyph unicode="6" horiz-adv-x="1193" d="M238 410q0 469 188 754.5t530 285.5q158 0 318 -64l-60 -145q-134 55 -286 55q-158 0 -282 -123.5t-185 -345.5q162 70 334 70q182 0 275 -80t93 -231q0 -264 -145.5 -433t-401.5 -169q-178 0 -278 106.5t-100 319.5zM412 424q0 -287 223 -287q145 0 248.5 120t103.5 290 q0 201 -246 201q-150 0 -311 -72q-18 -117 -18 -252z" />
<glyph unicode="7" horiz-adv-x="1157" d="M291 0l33 170q25 125 106.5 253t184 231.5t204 200.5t178 195.5t93.5 180.5l8 39h-717l31 164h891l-15 -72l-24 -131q-20 -113 -100.5 -228.5t-181.5 -214t-201.5 -194.5t-179.5 -207t-99 -217l-33 -170h-178z" />
<glyph unicode="8" horiz-adv-x="1191" d="M195 309q0 295 327 465q-156 102 -155 252q0 186 135 304t370 120h5q172 0 270 -82t98 -221q0 -248 -297 -420q197 -111 197 -278q0 -199 -154.5 -332t-406.5 -133h-4q-180 2 -282.5 90t-102.5 235zM369 346q0 -96 65.5 -148.5t175.5 -54.5h4q156 0 254.5 74t98.5 191 q0 123 -144 200l-159 86q-295 -127 -295 -348zM541 1053q0 -109 127 -176l149 -78q252 133 252 319q0 82 -55.5 133.5t-165.5 51.5h-4q-129 0 -216 -72t-87 -178z" />
<glyph unicode="9" horiz-adv-x="1193" d="M199 47l59 146q135 -55 287 -56q160 0 282.5 124t184.5 345q-162 -70 -334 -69q-182 0 -275.5 79.5t-93.5 231.5q0 264 145.5 433t401.5 169q178 0 278.5 -106.5t100.5 -319.5q0 -469 -188.5 -754.5t-530.5 -285.5q-158 0 -317 63zM485 887q0 -201 246 -201q149 0 311 72 q18 117 19 252q0 287 -223 286q-145 0 -249 -119.5t-104 -289.5z" />
<glyph unicode=":" horiz-adv-x="575" d="M203 74q0 76 42 121t111 45q102 0 103 -90q0 -76 -42 -121t-110 -45q-104 0 -104 90zM350 831q0 76 42 121t112 45q102 0 102 -90q0 -76 -41.5 -121t-109.5 -45q-104 0 -105 90z" />
<glyph unicode=";" horiz-adv-x="587" d="M88 -287q145 289 195 533h194q-55 -264 -270 -563zM350 831q0 76 42 121t112 45q102 0 102 -90q0 -76 -41.5 -121t-109.5 -45q-104 0 -105 90z" />
<glyph unicode="&#x3c;" horiz-adv-x="1032" d="M246 637l18 98l873 434l-35 -186l-631 -309l510 -309l-33 -162z" />
<glyph unicode="=" horiz-adv-x="980" d="M100 412l29 147h940l-29 -147h-940zM180 821l29 148h940l-29 -148h-940z" />
<glyph unicode="&#x3e;" horiz-adv-x="1032" d="M162 203l35 186l630 309l-512 310l35 161l703 -434l-21 -98z" />
<glyph unicode="?" horiz-adv-x="1103" d="M350 74q0 76 42 121t112 45q102 0 102 -90q0 -76 -41.5 -121t-109.5 -45q-104 0 -105 90zM408 1391q201 59 385 59q186 0 286.5 -72.5t100.5 -203.5q0 -98 -37 -175t-93.5 -120t-123 -81t-126 -64.5t-103.5 -67.5t-52 -91l-22 -122h-158l31 161q14 78 72.5 135.5 t130 93.5t141 71.5t117 91t47.5 133.5q0 156 -242 155q-166 0 -350 -57z" />
<glyph unicode="@" horiz-adv-x="1622" d="M217 383q0 416 232.5 680t623.5 264q266 0 419 -136t153 -366q0 -260 -114 -430t-288 -170q-147 0 -196 88q-94 -88 -228 -88q-102 0 -161.5 58.5t-59.5 183.5q0 213 104.5 355.5t260.5 142.5q94 0 151 -66l27 55h123l-86 -438q-14 -80 6 -117t82 -37q92 0 155.5 126 t63.5 309q0 184 -109.5 283.5t-331.5 99.5q-293 0 -479 -216t-186 -558q0 -207 121 -305.5t366 -98.5q217 0 441 51l18 -135q-249 -61 -487 -61q-305 0 -463 132t-158 394zM745 494q0 -132 125 -132q74 0 146 60l67 346q-51 59 -122 59q-94 0 -155 -93t-61 -240z" />
<glyph unicode="A" horiz-adv-x="1222" d="M72 0l673 1434h293l113 -1434h-174l-25 356h-526l-162 -356h-192zM500 518l442 2l-49 729h-62z" />
<glyph unicode="B" horiz-adv-x="1220" d="M205 0l278 1434h416q176 0 273.5 -73t97.5 -206q0 -127 -59.5 -233.5t-161.5 -161.5l-2 -8q151 -63 151 -240q0 -227 -133 -369.5t-344 -142.5h-516zM410 160h301q133 0 219 93t86 239q0 172 -207 172h-301zM537 815h254q133 0 214.5 84t81.5 221q0 154 -206 154h-254z " />
<glyph unicode="C" horiz-adv-x="1148" d="M254 465q0 446 193.5 715.5t535.5 269.5q137 0 303 -55l-47 -156q-158 51 -289 51q-233 0 -373.5 -221t-140.5 -582q0 -344 293 -344q156 0 305 52l17 -152q-193 -59 -355 -59q-223 0 -332.5 124.5t-109.5 356.5z" />
<glyph unicode="D" horiz-adv-x="1310" d="M205 0l278 1434h418q433 0 433 -450q0 -116 -29 -263q-70 -369 -215.5 -545t-456.5 -176h-428zM410 160h254q190 0 298.5 144.5t161.5 416.5q25 128 25 226q0 327 -279 327h-243z" />
<glyph unicode="E" horiz-adv-x="1120" d="M205 0l278 1434h772l-30 -160h-598l-90 -463h553l-31 -160h-553l-96 -491h598l-31 -160h-772z" />
<glyph unicode="F" horiz-adv-x="1110" d="M205 0l278 1434h772l-30 -160h-598l-95 -483h553l-30 -160h-553l-123 -631h-174z" />
<glyph unicode="G" horiz-adv-x="1282" d="M254 453q0 451 198.5 724t561.5 273q154 0 329 -55l-47 -156q-150 51 -303 51q-262 0 -409.5 -222t-147.5 -595q0 -330 283 -330q145 0 248 37l84 418h-273l31 160h436l-135 -697q-217 -77 -422 -77q-434 0 -434 469z" />
<glyph unicode="H" horiz-adv-x="1361" d="M205 0l278 1434h174l-118 -611h604l119 611h174l-279 -1434h-174l129 664h-604l-129 -664h-174z" />
<glyph unicode="I" horiz-adv-x="583" d="M205 0l278 1434h174l-278 -1434h-174z" />
<glyph unicode="J" horiz-adv-x="620" d="M-33 -225l137 69q72 37 104 88.5t48 139.5l264 1362h174l-270 -1393q-25 -115 -75 -193.5t-161 -128.5l-168 -73z" />
<glyph unicode="K" horiz-adv-x="1208" d="M205 0l278 1434h174l-120 -621h75l594 621h219l-669 -701l401 -733h-207l-344 649h-100l-127 -649h-174z" />
<glyph unicode="L" horiz-adv-x="1058" d="M205 0l278 1434h174l-247 -1274h598l-31 -160h-772z" />
<glyph unicode="M" horiz-adv-x="1726" d="M195 0l325 1434h221l179 -1110l608 1110h235l-231 -1434h-168l197 1163h-11l-532 -979h-238l-153 979h-11l-254 -1163h-167z" />
<glyph unicode="N" d="M205 0l278 1434h133l433 -1106h10l215 1106h164l-279 -1434h-151l-418 1087h-10l-211 -1087h-164z" />
<glyph unicode="O" d="M283 719q70 360 222 545.5t445 185.5q279 0 378 -192q59 -115 59 -285q0 -115 -27 -254q-72 -365 -224.5 -550t-445.5 -185q-279 0 -377 194q-58 114 -58 282q0 116 28 259zM460 297q56 -154 249 -154q199 0 307 144.5t164 431.5q30 134 30 239q0 102 -28 178 q-58 154 -250 154q-197 0 -306.5 -144.5t-162.5 -426.5q-30 -137 -30 -245q0 -102 27 -177z" />
<glyph unicode="P" horiz-adv-x="1214" d="M205 0l278 1434h449q176 0 274.5 -89.5t98.5 -248.5q0 -250 -144.5 -411t-384.5 -161h-295l-102 -524h-174zM512 684h268q156 0 249 106.5t93 282.5q0 201 -227 201h-268z" />
<glyph unicode="Q" d="M283 719q70 360 222 545.5t445 185.5q279 0 378 -192q59 -115 59 -285q0 -114 -27 -254q-80 -406 -248 -576l105 -149l-138 -94l-100 145q-119 -61 -289 -61q-279 0 -377 194q-58 114 -58 282q0 116 28 259zM460 297q56 -154 249 -154q98 0 176 37l-125 182l131 97 l121 -174q109 137 168 434q30 134 30 239q0 103 -28 178q-58 154 -250 154q-197 0 -306.5 -144.5t-162.5 -426.5q-30 -137 -30 -245q0 -102 27 -177z" />
<glyph unicode="R" horiz-adv-x="1255" d="M205 0l108 561l170 873h463q182 0 281.5 -83t99.5 -239q0 -207 -94 -344t-262 -184l192 -584h-194l-168 561h-4h-310l-108 -561h-174zM518 721h273q164 0 259 95t95 263q0 195 -246 195h-272l-31 -158z" />
<glyph unicode="S" horiz-adv-x="1118" d="M125 59l49 162q187 -71 380 -71h5q170 0 259 75.5t89 206.5q0 127 -157 197l-199 88q-205 92 -205 297q0 209 124 322.5t380 113.5q190 0 369 -59l-50 -160q-176 57 -338 57q-158 0 -233.5 -66.5t-75.5 -183.5q0 -119 125 -174l209 -92q233 -102 234 -317 q0 -471 -562 -471q-217 0 -403 75z" />
<glyph unicode="T" horiz-adv-x="1216" d="M360 1274l31 160h991l-30 -160h-408l-248 -1274h-174l248 1274h-410z" />
<glyph unicode="U" d="M293 451l190 983h174l-186 -965q-10 -54 -10 -99q0 -223 250 -223q305 0 366 322l187 965h174l-191 -983q-43 -227 -179 -347t-388 -120q-216 0 -322 126q-76 91 -76 228q0 53 11 113z" />
<glyph unicode="V" horiz-adv-x="1263" d="M350 1434h178l111 -1250h49l590 1250h192l-700 -1434h-278z" />
<glyph unicode="W" horiz-adv-x="1837" d="M350 1434h180l-4 -1250h49l496 1250h250l6 -1250h49l484 1250h184l-567 -1434h-312l-6 1241l-487 -1241h-314z" />
<glyph unicode="X" horiz-adv-x="1228" d="M61 0l557 731l-256 703h195l207 -596h8l436 596h215l-530 -703l274 -731h-192l-223 629h-9l-469 -629h-213z" />
<glyph unicode="Y" horiz-adv-x="1185" d="M350 1434h178l183 -742h10l471 742h201l-619 -942l-96 -492h-174l96 492z" />
<glyph unicode="Z" horiz-adv-x="1146" d="M123 0l24 129l897 1145h-643l31 160h871l-27 -134l-895 -1140h674l-31 -160h-901z" />
<glyph unicode="[" horiz-adv-x="757" d="M92 -319l379 1953h420l-27 -143h-256l-323 -1667h256l-29 -143h-420z" />
<glyph unicode="\" horiz-adv-x="622" d="M279 1595h159l164 -1859h-160z" />
<glyph unicode="]" horiz-adv-x="757" d="M123 -319l27 143h256l323 1667h-256l29 143h420l-379 -1953h-420z" />
<glyph unicode="^" horiz-adv-x="1044" d="M186 750l584 786h102l277 -786h-162l-199 575l-419 -575h-183z" />
<glyph unicode="_" horiz-adv-x="886" d="M-63 -223l26 141h928l-27 -141h-927z" />
<glyph unicode="`" horiz-adv-x="681" d="M348 1444l70 151l440 -243l-41 -90z" />
<glyph unicode="a" horiz-adv-x="1161" d="M195 348q0 340 174 552t448 212q162 0 352 -65l-202 -1047h-131v150q-146 -166 -332 -166q-154 0 -231.5 98t-77.5 266zM365 356q0 -221 196 -221q76 0 158 51.5t139 118.5l125 625q-90 31 -184 31q-193 0 -313.5 -167t-120.5 -438z" />
<glyph unicode="b" horiz-adv-x="1124" d="M164 47l289 1489h163l-131 -610q168 186 365 186q289 0 289 -344t-169 -564t-435 -220q-186 0 -371 63zM350 164q85 -29 185 -29q193 0 313.5 167t120.5 435q0 223 -195 224q-76 0 -161 -55.5t-142 -125.5z" />
<glyph unicode="c" horiz-adv-x="966" d="M219 549q55 279 178 421t363 142h2q131 0 295 -53l-43 -150q-145 51 -271 52h-2q-147 0 -230 -103.5t-124 -308.5q-20 -101 -20 -178q0 -81 22 -135q43 -106 191 -105h4q131 0 280 51l6 -145q-162 -53 -315 -53h-4q-219 0 -302 152q-51 93 -51 227q0 85 21 186z" />
<glyph unicode="d" horiz-adv-x="1120" d="M370 891q175 221 447 221q98 0 197 -20l86 444h164l-297 -1536h-127l-15 88q-164 -104 -342 -104q-288 0 -288 342q0 344 175 565zM365 356q0 -221 196 -221q139 0 287 98l135 697q-90 31 -184 31q-193 0 -313.5 -167t-120.5 -438z" />
<glyph unicode="e" horiz-adv-x="1093" d="M199 379q0 330 143 531.5t412 201.5q127 0 208.5 -44t111.5 -121t33 -179q0 -10 1 -21q0 -93 -25 -198l-12 -62h-694q-4 -45 -4 -83q0 -116 36 -181q48 -88 183 -88q150 0 328 51l12 -143q-183 -59 -369 -59q-182 0 -273 105.5t-91 289.5zM397 631h535q11 68 11 123 q0 82 -25 132q-41 83 -185 83q-131 0 -217 -88t-119 -250z" />
<glyph unicode="f" horiz-adv-x="778" d="M164 -414l266 1370h-188l26 140h189l22 114q35 178 129 258t264 80q100 0 183 -18l-45 -144q-86 14 -150 15q-104 0 -151 -46t-64 -130l-24 -129h292l-26 -140h-293l-266 -1370h-164z" />
<glyph unicode="g" horiz-adv-x="1120" d="M139 -379l49 143q188 -43 324 -43q236 0 274 193l62 297q-57 -72 -154.5 -119t-199.5 -47q-289 0 -289 344q0 340 170 531.5t442 191.5q170 0 352 -65l-215 -1113q-35 -188 -133 -276t-319 -88q-180 0 -363 51zM375 418q0 -221 196 -221q82 0 163 52t136 124l113 557 q-90 31 -184 31q-186 0 -305 -141.5t-119 -401.5z" />
<glyph unicode="h" horiz-adv-x="1144" d="M164 0l299 1536h164l-117 -602q80 76 186.5 127t212.5 51q244 0 244 -232q0 -51 -12 -112l-150 -768h-164l144 733q10 48 10 86q0 51 -18 85q-31 58 -140 57q-90 0 -188 -57.5t-156 -127.5l-151 -776h-164z" />
<glyph unicode="i" horiz-adv-x="501" d="M174 0l213 1096h164l-213 -1096h-164zM408 1370q0 66 39.5 109t103.5 43q96 0 96 -86q0 -66 -40 -110t-101 -44q-98 0 -98 88z" />
<glyph unicode="j" horiz-adv-x="495" d="M-94 -297l110 45q39 16 60.5 29.5t42 44.5t31.5 78l231 1196h164l-228 -1168q-29 -152 -87 -221t-183 -106l-104 -31zM403 1370q0 68 40 110t104 42q94 0 94 -86q0 -66 -40 -110t-101 -44q-96 0 -97 88z" />
<glyph unicode="k" horiz-adv-x="1024" d="M164 0l299 1536h164l-121 -608q203 184 405 184q119 0 182.5 -65.5t63.5 -149.5q0 -125 -75.5 -208t-213.5 -152l-141 -72l287 -465h-178l-301 516l262 137q82 43 136 98.5t54 112.5q0 98 -133 99q-90 0 -196.5 -57.5t-180.5 -131.5l-149 -774h-164z" />
<glyph unicode="l" horiz-adv-x="548" d="M211 244l252 1292h164l-250 -1284q-5 -24 -5 -42q0 -64 62 -65q27 0 70 7l14 -146q-61 -12 -133 -12q-182 0 -182 170q0 36 8 80z" />
<glyph unicode="m" horiz-adv-x="1708" d="M164 0l213 1096h131l-14 -170q178 186 376.5 186t229.5 -178q164 178 383 178q154 0 203 -102q30 -62 30 -146q0 -53 -12 -116l-145 -748h-164l143 733q11 52 11 92q0 47 -15 79q-27 58 -137 57q-80 0 -163 -53.5t-136 -125.5l-6 -39l-146 -743h-164l144 733q10 51 10 91 q0 48 -15 80q-28 58 -137 57q-76 0 -160.5 -55.5t-144.5 -125.5l-151 -780h-164z" />
<glyph unicode="n" horiz-adv-x="1136" d="M164 0l213 1096h131l-14 -170q80 78 189.5 132t217.5 54q244 0 244 -232q0 -51 -12 -112l-150 -768h-164l144 733q10 48 10 86q0 51 -18 85q-31 58 -140 57q-90 0 -184 -55.5t-152 -125.5l-151 -780h-164z" />
<glyph unicode="o" horiz-adv-x="1110" d="M199 354q0 338 153.5 548t415.5 210q180 0 268 -96t88 -273q0 -338 -153.5 -548.5t-415.5 -210.5q-178 0 -267 96t-89 274zM367 369q0 -242 213 -242q174 0 275 167t101 433q0 242 -213 242q-174 0 -275 -167t-101 -433z" />
<glyph unicode="p" horiz-adv-x="1134" d="M84 -414l293 1510h127l-8 -170q168 186 364 186q289 0 289 -344t-169 -564t-433 -220q-123 0 -217 20l-82 -418h-164zM360 164q85 -29 185 -29q193 0 313.5 167t120.5 435q0 223 -197 224q-78 0 -160.5 -54.5t-140.5 -126.5z" />
<glyph unicode="q" horiz-adv-x="1124" d="M374 891q175 221 447 221q70 0 131.5 -9t99.5 -19.5t122 -36.5l-285 -1461h-164l115 564q-57 -70 -154.5 -118t-198.5 -48q-288 0 -288 342q0 344 175 565zM369 356q0 -221 196 -221q78 0 160 53.5t137 122.5l125 619q-90 31 -184 31q-193 0 -313.5 -167t-120.5 -438z " />
<glyph unicode="r" horiz-adv-x="755" d="M164 0l213 1096h131l-21 -199q72 88 168.5 151.5t190.5 63.5q29 0 84 -6l-62 -172q-57 8 -86 8q-80 0 -171 -62.5t-138 -134.5l-145 -745h-164z" />
<glyph unicode="s" horiz-adv-x="931" d="M100 47l47 146q172 -61 334 -62q121 0 189.5 58.5t68.5 154.5q0 98 -141 150l-125 45q-199 72 -199 243q0 150 109 240t309 90q164 0 314 -53l-48 -146q-155 54 -290 54q-104 0 -164 -47.5t-60 -124.5q0 -80 113 -121l125 -45q225 -82 225 -264q0 -174 -112.5 -277.5 t-337.5 -103.5q-207 0 -357 63z" />
<glyph unicode="t" horiz-adv-x="849" d="M258 956l27 140h192l49 245l162 21l-51 -266h309l-26 -140h-310l-129 -665q-6 -33 -6 -59q-1 -35 11 -54q20 -33 102 -33q90 0 192 25l21 -137q-133 -39 -264 -39q-162 0 -204 76q-24 44 -24 117q0 54 13 124l124 645h-188z" />
<glyph unicode="u" horiz-adv-x="1126" d="M225 369l142 727h163l-137 -703q-9 -45 -9 -82q0 -180 204 -180q246 0 297 262l137 703h164l-142 -727q-16 -82 -43.5 -144.5t-80 -121t-142.5 -89t-213 -30.5q-193 0 -281 114q-66 85 -67 194q0 37 8 77z" />
<glyph unicode="v" horiz-adv-x="1056" d="M225 1096h174l121 -903h8q358 453 471 903h181q-164 -575 -611 -1096h-180z" />
<glyph unicode="w" horiz-adv-x="1593" d="M264 1096h170l45 -903h8q266 373 435 903h176l86 -903h8q287 451 387 903h176q-160 -571 -514 -1096h-194l-74 801h-8q-63 -180 -178 -394t-265 -407h-190z" />
<glyph unicode="x" horiz-adv-x="1040" d="M51 0l445 559l-213 537h180l170 -441h8l342 441h201l-422 -537l227 -559h-180l-182 471h-9l-366 -471h-201z" />
<glyph unicode="y" horiz-adv-x="1069" d="M-92 -414l51 150q68 -10 147.5 -10t179 77.5t187.5 196.5h-43l-213 1096h168l170 -946h8q330 463 432 946h176q-27 -143 -102.5 -340t-188 -403t-240.5 -382t-274.5 -288.5t-275.5 -112.5q-96 0 -182 16z" />
<glyph unicode="z" horiz-adv-x="1011" d="M102 0l25 131l725 817h-537l29 148h748l-25 -129l-725 -820h596l-29 -147h-807z" />
<glyph unicode="{" horiz-adv-x="907" d="M270 602l21 111q145 49 186 258l74 375q55 289 367 288h122l-49 -143h-73q-176 0 -205 -152l-72 -368q-45 -225 -205 -309l-2 -9q129 -82 86 -309l-71 -369q-16 -84 21.5 -117.5t123.5 -33.5h74l16 -143h-139q-147 0 -218 76.5t-44 211.5l73 375q41 203 -86 258z" />
<glyph unicode="|" horiz-adv-x="491" d="M117 -238l352 1809h164l-352 -1809h-164z" />
<glyph unicode="}" horiz-adv-x="907" d="M123 -319l49 143h74q176 0 205 151l71 369q45 225 205 309l2 9q-129 82 -86 309l72 368q16 84 -22 118t-124 34h-73l-17 143h139q147 0 218 -76.5t45 -211.5l-74 -375q-41 -203 86 -258l-21 -111q-145 -49 -186 -258l-74 -375q-55 -289 -366 -288h-123z" />
<glyph unicode="~" horiz-adv-x="907" d="M213 569q12 109 80.5 181.5t169.5 72.5q70 0 154.5 -62.5t115.5 -62.5q41 0 67.5 31t35.5 74h125q-12 -109 -80 -178.5t-168 -69.5q-61 0 -147.5 62.5t-125.5 62.5t-66.5 -34t-35.5 -77h-125z" />
<glyph unicode="&#xa1;" horiz-adv-x="493" d="M-113 -324l64 328l162 653h100l-92 -653l-64 -328h-170zM100 961q0 76 42 120.5t110 44.5q104 0 104 -90q0 -76 -42 -121t-111 -45q-102 0 -103 91z" />
<glyph unicode="&#xa2;" horiz-adv-x="966" d="M252 713q51 262 162.5 403t322.5 158l31 160h131l-31 -162q109 -12 222 -49l-43 -150q-145 51 -271 51h-2q-147 0 -230 -103t-124 -308q-41 -207 2 -312.5t190 -105.5h4q131 0 281 51l6 -145q-133 -43 -254 -51l-28 -150h-132l29 152q-182 23 -247.5 171t-18.5 390z" />
<glyph unicode="&#xa3;" horiz-adv-x="1263" d="M201 0l28 145q10 10 36 33t35 31t27.5 28.5t26.5 33t22.5 36t23 46t16.5 53t16 67.5q16 92 21 193h-181l29 149h156q8 143 22 219q80 416 535 416q174 0 348 -59l-49 -158q-174 51 -328 51q-283 0 -332 -252q-12 -68 -24 -217h450l-67 -149h-394q-8 -127 -22 -203 q-35 -176 -156 -303h711l-31 -160h-919z" />
<glyph unicode="&#xa4;" horiz-adv-x="1175" d="M121 254l211 178q-29 63 -29 135q0 236 133 379l-135 172l111 84l135 -172q106 59 248 60q137 0 227 -68l211 180l84 -104l-209 -178q29 -63 29 -136q0 -211 -117 -356l135 -174l-111 -84l-129 166q-115 -74 -270 -74q-139 0 -229 68l-211 -180zM461 598q0 -186 207 -186 q137 0 223 95t86 247q0 186 -207 186q-139 0 -224 -94t-85 -248z" />
<glyph unicode="&#xa5;" horiz-adv-x="1185" d="M244 272l28 148h314l14 72l-10 40h-295l29 148h227l-201 754h178l183 -742h10l471 742h201l-496 -754h211l-29 -148h-278l-27 -40l-14 -72h297l-29 -148h-297l-53 -272h-174l53 272h-313z" />
<glyph unicode="&#xa6;" horiz-adv-x="491" d="M117 -238l162 828h163l-161 -828h-164zM307 743l162 828h164l-162 -828h-164z" />
<glyph unicode="&#xa7;" horiz-adv-x="1081" d="M100 -371l47 160q197 -51 336 -51q143 0 224 62.5t81 170.5q0 76 -58 125t-142 79t-169 64.5t-143.5 103.5t-58.5 173q0 188 160 320q-59 70 -60 172q0 442 512 442q172 0 353 -53l-47 -160q-197 51 -338 51q-143 0 -224 -62.5t-81 -170.5q0 -76 59 -125t143 -79 t168 -64.5t143.5 -103.5t59.5 -173q0 -184 -160 -320q59 -66 60 -172q0 -442 -512 -442q-162 0 -353 53zM393 547q0 -53 23.5 -91t69.5 -63.5t90.5 -42t110 -38t104.5 -40.5q96 96 96 207q0 66 -41 111t-90 65.5t-135 50t-129 50.5q-98 -98 -99 -209z" />
<glyph unicode="&#xa8;" horiz-adv-x="813" d="M373 1378q0 66 40 109t103 43q94 0 94 -86q0 -68 -40 -111t-101 -43q-96 0 -96 88zM750 1378q0 66 39.5 109t103.5 43q94 0 94 -86q0 -68 -40 -111t-101 -43q-96 0 -96 88z" />
<glyph unicode="&#xa9;" horiz-adv-x="1613" d="M221 520q0 408 240 669t629 261q281 0 431 -142.5t150 -396.5q0 -408 -239.5 -667.5t-628.5 -259.5q-281 0 -431.5 141t-150.5 395zM379 551q0 -197 115 -306.5t340 -109.5q299 0 489 209t190 537q0 199 -114.5 308t-339.5 109q-299 0 -489.5 -209.5t-190.5 -537.5z M588 717q39 205 152.5 319.5t291.5 114.5q106 0 201 -37l-51 -127q-88 27 -176 27q-209 0 -269 -297q-55 -295 154 -295q82 0 192 27l7 -127q-106 -37 -226 -37q-172 0 -243.5 115.5t-32.5 316.5z" />
<glyph unicode="&#xaa;" horiz-adv-x="780" d="M274 932q0 233 111 375.5t299 142.5q113 0 248 -45l-139 -709h-117l4 80q-76 -92 -193 -92q-100 0 -156.5 68.5t-56.5 179.5zM412 942q0 -141 104 -141q51 0 103.5 32.5t74.5 69.5l86 408q-49 16 -108 16q-113 0 -186.5 -103.5t-73.5 -281.5z" />
<glyph unicode="&#xab;" horiz-adv-x="1142" d="M242 612l467 435l84 -109l-344 -326l217 -325l-125 -109zM651 612l467 435l84 -109l-344 -326l217 -325l-125 -109z" />
<glyph unicode="&#xac;" horiz-adv-x="1077" d="M139 606l29 148h1036l-123 -629h-143l94 481h-893z" />
<glyph unicode="&#xad;" horiz-adv-x="761" d="M207 541l29 151h557l-29 -151h-557z" />
<glyph unicode="&#xae;" horiz-adv-x="1167" d="M354 926q0 231 138 377.5t374 146.5q164 0 257.5 -85t93.5 -228q0 -229 -138.5 -376t-373.5 -147q-164 0 -257.5 84t-93.5 228zM449 940q0 -113 67.5 -176.5t204.5 -63.5q178 0 289.5 118t111.5 306q0 113 -67.5 175.5t-204.5 62.5q-178 0 -289.5 -117t-111.5 -305z M596 805l88 459h160q63 0 102 -32t39 -83q0 -129 -106 -176l59 -168h-94l-49 156h-84l-29 -156h-86zM727 1040h64q98 0 98 90q0 53 -70 54h-63z" />
<glyph unicode="&#xaf;" horiz-adv-x="727" d="M369 1368l26 141h523l-27 -141h-522z" />
<glyph unicode="&#xb0;" horiz-adv-x="684" d="M317 1192q0 129 85 218t227 89q100 0 159.5 -57.5t59.5 -145.5q0 -129 -86 -218t-225 -89q-100 0 -160 57.5t-60 145.5zM440 1214q0 -47 32 -78.5t83 -31.5q74 0 121 51t47 123q0 49 -29.5 77.5t-83.5 28.5q-76 0 -123 -49t-47 -121z" />
<glyph unicode="&#xb1;" horiz-adv-x="980" d="M43 121l29 147h940l-29 -147h-940zM164 745l29 148h397l76 391h147l-76 -391h396l-29 -148h-395l-72 -374h-148l72 374h-397z" />
<glyph unicode="&#xb2;" horiz-adv-x="862" d="M242 508l22 139q14 90 74.5 162t134.5 118t146.5 87t122 89t49.5 101q0 49 -41 77t-109 28q-102 0 -209 -37l-24 131q106 47 260 47q131 0 207.5 -55.5t76.5 -153.5q0 -84 -50 -156.5t-122.5 -122t-146.5 -92.5t-131.5 -89t-65.5 -91l-6 -33h416l-29 -149h-575z" />
<glyph unicode="&#xb3;" horiz-adv-x="897" d="M250 543l55 137q96 -37 236 -37q102 0 159.5 45t57.5 127q0 102 -154 103h-139l27 143h139q78 0 129 44t51 112q0 92 -149 92q-88 0 -211 -37l-21 131q125 47 279 47q131 0 197.5 -50t66.5 -143q0 -199 -174 -258q53 -16 83.5 -59t30.5 -104q0 -156 -100.5 -248 t-280.5 -92q-172 0 -282 47z" />
<glyph unicode="&#xb4;" horiz-adv-x="681" d="M350 1352l441 243l69 -151l-469 -182z" />
<glyph unicode="&#xb5;" horiz-adv-x="1126" d="M74 -414l293 1510h163l-133 -688q-51 -262 195 -262.5t297 262.5l133 688h164l-142 -727q-76 -385 -473 -385q-164 0 -235 92l-98 -490h-164z" />
<glyph unicode="&#xb6;" horiz-adv-x="1226" d="M184 -133l47 147q150 -41 308 -43q279 0 325 252l236 1211h303l-29 -148h-147l-207 -1063q-35 -211 -148.5 -307t-353.5 -96q-188 0 -334 47zM293 940q0 211 143.5 352.5t356.5 141.5h141l-154 -791h-168q-150 0 -234.5 80t-84.5 217z" />
<glyph unicode="&#xb7;" horiz-adv-x="534" d="M262 590q0 76 42 121t112 45q102 0 102 -90q0 -76 -41.5 -121t-109.5 -45q-104 0 -105 90z" />
<glyph unicode="&#xb8;" horiz-adv-x="593" d="M23 -412l45 101q61 -10 127 -11q55 0 89.5 24t34.5 60q0 53 -98 54q-45 0 -106 -13l82 222h114l-63 -117q25 4 61 4q59 0 98 -33t39 -92q0 -106 -67 -161.5t-184 -55.5q-84 0 -172 18z" />
<glyph unicode="&#xb9;" horiz-adv-x="849" d="M264 508l29 143h219l121 627l-258 -90l26 145l281 101h135l-151 -783h168l-29 -143h-541z" />
<glyph unicode="&#xba;" horiz-adv-x="811" d="M309 1067q74 383 377 383q154 0 209 -100.5t20 -282.5q-74 -383 -376 -383q-154 0 -209.5 100.5t-20.5 282.5zM446.5 1067q-26.5 -133 1 -196.5t113.5 -63.5q88 0 139.5 63.5t78 196.5t-1 196.5t-113.5 63.5q-88 0 -139.5 -63.5t-78 -196.5z" />
<glyph unicode="&#xbb;" horiz-adv-x="1142" d="M178 287l344 325l-217 326l125 109l299 -435l-467 -434zM588 287l344 325l-217 326l125 109l299 -435l-467 -434z" />
<glyph unicode="&#xbc;" horiz-adv-x="1976" d="M264 508l29 143h219l121 627l-258 -90l26 145l281 101h135l-151 -783h168l-29 -143h-541zM608 -162l869 1757h159l-866 -1757h-162zM1202 178l25 127l215 330q82 121 100 215l17 82h147l-16 -82q-18 -90 -113 -240l-182 -288h237l72 258h119l-49 -258h122l-28 -144h-123 l-35 -178h-141l35 178h-402z" />
<glyph unicode="&#xbd;" horiz-adv-x="1986" d="M264 508l29 143h219l121 627l-258 -90l26 145l281 101h135l-151 -783h168l-29 -143h-541zM608 -162l869 1757h159l-866 -1757h-162zM1270 6l22 139q14 90 74.5 162t134.5 118t146.5 87t122 89t49.5 101q0 49 -41 77t-109 28q-102 0 -209 -37l-24 131q106 47 260 47 q131 0 207.5 -55t76.5 -154q0 -84 -50 -156.5t-122.5 -121.5t-146.5 -92t-131 -89.5t-66 -91.5l-6 -32h416l-29 -150h-575z" />
<glyph unicode="&#xbe;" horiz-adv-x="1998" d="M250 543l55 137q96 -37 236 -37q102 0 159.5 45t57.5 127q0 102 -154 103h-139l27 143h139q78 0 129 44t51 112q0 92 -149 92q-88 0 -211 -37l-21 131q125 47 279 47q131 0 197.5 -50t66.5 -143q0 -199 -174 -258q53 -16 83.5 -59t30.5 -104q0 -156 -100.5 -248 t-280.5 -92q-172 0 -282 47zM631 -162l868 1757h160l-866 -1757h-162zM1225 178l24 127l215 330q84 129 101 215l16 82h148l-17 -82q-18 -90 -113 -240l-182 -288h238l71 258h119l-49 -258h123l-29 -144h-123l-34 -178h-142l35 178h-401z" />
<glyph unicode="&#xbf;" horiz-adv-x="1103" d="M139 -63q0 98 37 174.5t93.5 119.5t123 81t126 64.5t103.5 67.5t52 91l22 122h158l-31 -161q-14 -78 -72.5 -135.5t-130 -93.5t-141 -71.5t-117 -91t-47.5 -133.5q0 -156 242 -155q166 0 350 57l4 -154q-201 -59 -385 -59q-186 0 -286.5 72.5t-100.5 204.5zM713 961 q0 76 41.5 120.5t109.5 44.5q104 0 105 -90q0 -76 -42 -121t-112 -45q-102 0 -102 91z" />
<glyph unicode="&#xc0;" horiz-adv-x="1222" d="M72 0l673 1434h293l113 -1434h-174l-25 356h-526l-162 -356h-192zM500 518l442 2l-49 729h-62zM694 1782l70 151l440 -243l-41 -91z" />
<glyph unicode="&#xc1;" horiz-adv-x="1222" d="M72 0l673 1434h293l113 -1434h-174l-25 356h-526l-162 -356h-192zM500 518l442 2l-49 729h-62zM719 1690l440 243l70 -151l-469 -183z" />
<glyph unicode="&#xc2;" horiz-adv-x="1222" d="M72 0l673 1434h293l113 -1434h-174l-25 356h-526l-162 -356h-192zM500 518l442 2l-49 729h-62zM586 1690l387 243l293 -243l-70 -91l-244 158l-305 -158z" />
<glyph unicode="&#xc3;" horiz-adv-x="1222" d="M72 0l673 1434h293l113 -1434h-174l-25 356h-526l-162 -356h-192zM500 518l442 2l-49 729h-62zM627 1659q18 92 76.5 154.5t136.5 62.5q55 0 98 -30.5t77 -62.5t64 -32q41 0 69 31.5t34 72.5h104q-14 -104 -74.5 -168.5t-140.5 -64.5q-63 0 -133 62.5t-109 62.5 q-76 0 -102 -111z" />
<glyph unicode="&#xc4;" horiz-adv-x="1222" d="M72 0l673 1434h293l113 -1434h-174l-25 356h-526l-162 -356h-192zM500 518l442 2l-49 729h-62zM641 1716q0 66 40 109t103 43q94 0 95 -86q0 -68 -40.5 -111t-101.5 -43q-96 0 -96 88zM1018 1716q0 66 40 109t103 43q94 0 94 -86q0 -68 -39.5 -111t-101.5 -43 q-96 0 -96 88z" />
<glyph unicode="&#xc5;" horiz-adv-x="1222" d="M72 0l673 1434h293l113 -1434h-174l-25 356h-526l-162 -356h-192zM500 518l442 2l-49 729h-62zM735 1708q0 111 65.5 181.5t180.5 70.5q80 0 129 -42t49 -114q0 -109 -65.5 -179.5t-180.5 -70.5q-80 0 -129 41t-49 113zM842 1733q0 -76 86 -76q55 0 90 34.5t35 90.5 q0 76 -86 76q-55 0 -90 -35t-35 -90z" />
<glyph unicode="&#xc6;" horiz-adv-x="1693" d="M72 0l673 1434h1084l-31 -160h-747l36 -463h576l-31 -160h-532l39 -491h442l-31 -160h-577l-21 356h-526l-162 -356h-192zM500 518l442 2l-49 729h-62z" />
<glyph unicode="&#xc7;" horiz-adv-x="1148" d="M254 465q0 446 193.5 715.5t535.5 269.5q137 0 303 -55l-47 -156q-158 51 -289 51q-233 0 -373.5 -221t-140.5 -582q0 -344 293 -344q156 0 305 52l17 -152q-180 -55 -322 -59l-41 -76q25 4 62 4q59 0 98 -33t39 -92q0 -106 -67.5 -161.5t-184.5 -55.5q-82 0 -172 18 l45 101q61 -10 127 -11q55 0 90 24t35 60q0 53 -98 54q-45 0 -107 -13l68 185q-369 39 -369 477z" />
<glyph unicode="&#xc8;" horiz-adv-x="1120" d="M205 0l278 1434h772l-30 -160h-598l-90 -463h553l-31 -160h-553l-96 -491h598l-31 -160h-772zM694 1782l70 151l440 -243l-41 -91z" />
<glyph unicode="&#xc9;" horiz-adv-x="1120" d="M205 0l278 1434h772l-30 -160h-598l-90 -463h553l-31 -160h-553l-96 -491h598l-31 -160h-772zM719 1690l440 243l70 -151l-469 -183z" />
<glyph unicode="&#xca;" horiz-adv-x="1120" d="M205 0l278 1434h772l-30 -160h-598l-90 -463h553l-31 -160h-553l-96 -491h598l-31 -160h-772zM586 1690l387 243l293 -243l-70 -91l-244 158l-305 -158z" />
<glyph unicode="&#xcb;" horiz-adv-x="1120" d="M205 0l278 1434h772l-30 -160h-598l-90 -463h553l-31 -160h-553l-96 -491h598l-31 -160h-772zM641 1716q0 66 40 109t103 43q94 0 95 -86q0 -68 -40.5 -111t-101.5 -43q-96 0 -96 88zM1018 1716q0 66 40 109t103 43q94 0 94 -86q0 -68 -40 -111t-101 -43q-96 0 -96 88z " />
<glyph unicode="&#xcc;" horiz-adv-x="583" d="M205 0l278 1434h174l-278 -1434h-174zM375 1782l69 151l441 -243l-41 -91z" />
<glyph unicode="&#xcd;" horiz-adv-x="583" d="M205 0l278 1434h174l-278 -1434h-174zM399 1690l441 243l69 -151l-469 -183z" />
<glyph unicode="&#xce;" horiz-adv-x="583" d="M205 0l278 1434h174l-278 -1434h-174zM266 1690l387 243l293 -243l-69 -91l-244 158l-305 -158z" />
<glyph unicode="&#xcf;" horiz-adv-x="583" d="M205 0l278 1434h174l-278 -1434h-174zM322 1716q0 66 39.5 109t103.5 43q94 0 94 -86q0 -68 -40 -111t-101 -43q-96 0 -96 88zM698 1716q0 66 40 109t104 43q94 0 94 -86q0 -68 -40 -111t-101 -43q-96 0 -97 88z" />
<glyph unicode="&#xd0;" horiz-adv-x="1464" d="M332 651l28 150h154l123 633h418q545 0 403 -713q-70 -369 -215 -545t-457 -176h-428l127 651h-153zM563 160h254q190 0 299 144.5t162 416.5q109 553 -254 553h-244l-92 -473h277l-29 -150h-277z" />
<glyph unicode="&#xd1;" d="M205 0l278 1434h133l433 -1106h10l215 1106h164l-279 -1434h-151l-418 1087h-10l-211 -1087h-164zM690 1659q18 92 76.5 154.5t136.5 62.5q55 0 98 -30.5t77 -62.5t65 -32q41 0 68.5 32t33.5 72h105q-14 -104 -74.5 -168.5t-140.5 -64.5q-61 0 -133 62.5t-109 62.5 q-76 0 -102 -111z" />
<glyph unicode="&#xd2;" d="M283 719q70 360 222 545.5t445 185.5q279 0 378 -192.5t32 -538.5q-72 -365 -224.5 -550t-445.5 -185q-279 0 -377 193.5t-30 541.5zM460 297q56 -154 249 -154q199 0 307 144.5t164 431.5q59 264 1.5 417.5t-249.5 153.5q-197 0 -306.5 -144.5t-162.5 -426.5 q-59 -268 -3 -422zM766 1782l70 151l440 -243l-41 -91z" />
<glyph unicode="&#xd3;" d="M283 719q70 360 222 545.5t445 185.5q279 0 378 -192.5t32 -538.5q-72 -365 -224.5 -550t-445.5 -185q-279 0 -377 193.5t-30 541.5zM460 297q56 -154 249 -154q199 0 307 144.5t164 431.5q59 264 1.5 417.5t-249.5 153.5q-197 0 -306.5 -144.5t-162.5 -426.5 q-59 -268 -3 -422zM791 1690l440 243l69 -151l-469 -183z" />
<glyph unicode="&#xd4;" d="M283 719q70 360 222 545.5t445 185.5q279 0 378 -192.5t32 -538.5q-72 -365 -224.5 -550t-445.5 -185q-279 0 -377 193.5t-30 541.5zM460 297q56 -154 249 -154q199 0 307 144.5t164 431.5q59 264 1.5 417.5t-249.5 153.5q-197 0 -306.5 -144.5t-162.5 -426.5 q-59 -268 -3 -422zM657 1690l387 243l293 -243l-69 -91l-244 158l-305 -158z" />
<glyph unicode="&#xd5;" d="M283 719q70 360 222 545.5t445 185.5q279 0 378 -192.5t32 -538.5q-72 -365 -224.5 -550t-445.5 -185q-279 0 -377 193.5t-30 541.5zM460 297q56 -154 249 -154q199 0 307 144.5t164 431.5q59 264 1.5 417.5t-249.5 153.5q-197 0 -306.5 -144.5t-162.5 -426.5 q-59 -268 -3 -422zM698 1659q18 92 77 154.5t136 62.5q55 0 98.5 -30.5t77 -62.5t64.5 -32q41 0 68.5 32t33.5 72h105q-14 -104 -74.5 -168.5t-140.5 -64.5q-61 0 -133 62.5t-109 62.5q-76 0 -102 -111z" />
<glyph unicode="&#xd6;" d="M283 719q70 360 222 545.5t445 185.5q279 0 378 -192.5t32 -538.5q-72 -365 -224.5 -550t-445.5 -185q-279 0 -377 193.5t-30 541.5zM460 297q56 -154 249 -154q199 0 307 144.5t164 431.5q59 264 1.5 417.5t-249.5 153.5q-197 0 -306.5 -144.5t-162.5 -426.5 q-59 -268 -3 -422zM713 1716q0 66 40 109t103 43q94 0 94 -86q0 -68 -40 -111t-101 -43q-96 0 -96 88zM1090 1716q0 66 39.5 109t103.5 43q94 0 94 -86q0 -68 -40 -111t-101 -43q-96 0 -96 88z" />
<glyph unicode="&#xd7;" horiz-adv-x="931" d="M150 401l360 301l-229 291l106 88l229 -290l351 290l84 -104l-351 -293l236 -299l-105 -90l-237 301l-358 -301z" />
<glyph unicode="&#xd8;" horiz-adv-x="1343" d="M127 -82l190 250q-104 188 -34 551q70 360 222 545.5t445 185.5q174 0 283 -80l110 146h152l-180 -236q119 -188 45 -561q-72 -365 -224.5 -550t-445.5 -185q-186 0 -293 90l-118 -156h-152zM446 338l678 889q-70 63 -192 63q-197 0 -306.5 -144t-162.5 -427 q-49 -244 -17 -381zM506 217q70 -74 203 -74q199 0 307.5 144.5t163.5 431.5q49 262 10 395z" />
<glyph unicode="&#xd9;" d="M293 451l190 983h174l-186 -965q-61 -322 240 -322q305 0 366 322l187 965h174l-191 -983q-43 -227 -179 -347t-388 -120q-217 0 -322.5 126t-64.5 341zM776 1782l70 151l440 -243l-41 -91z" />
<glyph unicode="&#xda;" d="M293 451l190 983h174l-186 -965q-61 -322 240 -322q305 0 366 322l187 965h174l-191 -983q-43 -227 -179 -347t-388 -120q-217 0 -322.5 126t-64.5 341zM801 1690l440 243l70 -151l-469 -183z" />
<glyph unicode="&#xdb;" d="M293 451l190 983h174l-186 -965q-61 -322 240 -322q305 0 366 322l187 965h174l-191 -983q-43 -227 -179 -347t-388 -120q-217 0 -322.5 126t-64.5 341zM668 1690l387 243l293 -243l-70 -91l-244 158l-305 -158z" />
<glyph unicode="&#xdc;" d="M293 451l190 983h174l-186 -965q-61 -322 240 -322q305 0 366 322l187 965h174l-191 -983q-43 -227 -179 -347t-388 -120q-217 0 -322.5 126t-64.5 341zM723 1716q0 66 40 109t103 43q94 0 95 -86q0 -68 -40.5 -111t-101.5 -43q-96 0 -96 88zM1100 1716q0 66 40 109 t103 43q94 0 94 -86q0 -68 -40 -111t-101 -43q-96 0 -96 88z" />
<glyph unicode="&#xdd;" horiz-adv-x="1185" d="M350 1434h178l183 -742h10l471 742h201l-619 -942l-96 -492h-174l96 492zM698 1690l441 243l69 -151l-469 -183z" />
<glyph unicode="&#xde;" horiz-adv-x="1204" d="M205 0l278 1434h174l-41 -215h275q176 0 273.5 -89.5t97.5 -248.5q0 -250 -144.5 -411t-384.5 -161h-295l-59 -309h-174zM471 469h268q156 0 248 106.5t92 282.5q0 201 -227 201h-268z" />
<glyph unicode="&#xdf;" horiz-adv-x="1320" d="M84 -414l307 1577q37 190 154 287.5t336 97.5q166 0 275.5 -66.5t109.5 -191.5q0 -188 -246 -317q-70 -37 -102.5 -56.5t-64.5 -56.5t-32 -78q0 -70 86 -100l164 -55q111 -37 168 -89.5t57 -152.5q0 -182 -114.5 -291.5t-331.5 -109.5q-174 0 -348 63l47 148 q172 -61 323 -62q119 0 193 58.5t74 154.5q0 59 -37 93t-107 59l-172 59q-162 55 -161 201q0 63 22.5 114.5t71.5 93.5t82.5 62.5t101.5 56.5q51 27 74.5 41.5t54.5 52.5t31 83q0 63 -66.5 99t-181.5 36q-141 0 -207.5 -56.5t-87.5 -160.5l-309 -1594h-164z" />
<glyph unicode="&#xe0;" horiz-adv-x="1161" d="M195 348q0 340 174 552t448 212q162 0 352 -65l-202 -1047h-131v150q-146 -166 -332 -166q-154 0 -231.5 98t-77.5 266zM365 358q-1 -223 196 -223q76 0 158 51.5t139 118.5l125 625q-90 31 -184 31q-193 0 -313.5 -167t-120.5 -436zM627 1444l69 151l441 -243l-41 -90z " />
<glyph unicode="&#xe1;" horiz-adv-x="1161" d="M195 348q0 340 174 552t448 212q162 0 352 -65l-202 -1047h-131v150q-146 -166 -332 -166q-154 0 -231.5 98t-77.5 266zM365 358q-1 -223 196 -223q76 0 158 51.5t139 118.5l125 625q-90 31 -184 31q-193 0 -313.5 -167t-120.5 -436zM651 1352l441 243l69 -151l-469 -182 z" />
<glyph unicode="&#xe2;" horiz-adv-x="1161" d="M195 348q0 340 174 552t448 212q162 0 352 -65l-202 -1047h-131v150q-146 -166 -332 -166q-154 0 -231.5 98t-77.5 266zM365 358q-1 -223 196 -223q76 0 158 51.5t139 118.5l125 625q-90 31 -184 31q-193 0 -313.5 -167t-120.5 -436zM518 1352l387 243l293 -243l-70 -90 l-243 157l-305 -157z" />
<glyph unicode="&#xe3;" horiz-adv-x="1161" d="M195 348q0 340 174 552t448 212q162 0 352 -65l-202 -1047h-131v150q-146 -166 -332 -166q-154 0 -231.5 98t-77.5 266zM365 358q-1 -223 196 -223q76 0 158 51.5t139 118.5l125 625q-90 31 -184 31q-193 0 -313.5 -167t-120.5 -436zM559 1321q18 92 76.5 154.5 t136.5 62.5q55 0 98 -31.5t77 -62.5t65 -31q41 0 68.5 32t33.5 73h105q-14 -104 -74.5 -169t-140.5 -65q-61 0 -133 62.5t-109 62.5q-76 0 -103 -111z" />
<glyph unicode="&#xe4;" horiz-adv-x="1161" d="M195 348q0 340 174 552t448 212q162 0 352 -65l-202 -1047h-131v150q-146 -166 -332 -166q-154 0 -231.5 98t-77.5 266zM365 358q-1 -223 196 -223q76 0 158 51.5t139 118.5l125 625q-90 31 -184 31q-193 0 -313.5 -167t-120.5 -436zM573 1378q0 66 40 109t104 43 q94 0 94 -86q0 -68 -40 -111t-101 -43q-96 0 -97 88zM950 1378q0 66 40 109t104 43q94 0 94 -86q0 -68 -40 -111t-101 -43q-96 0 -97 88z" />
<glyph unicode="&#xe5;" horiz-adv-x="1161" d="M195 348q0 340 174 552t448 212q162 0 352 -65l-202 -1047h-131v150q-146 -166 -332 -166q-154 0 -231.5 98t-77.5 266zM365 358q-1 -223 196 -223q76 0 158 51.5t139 118.5l125 625q-90 31 -184 31q-193 0 -313.5 -167t-120.5 -436zM668 1370q0 111 65.5 181.5 t179.5 70.5q80 0 129.5 -42t49.5 -114q0 -109 -65.5 -179t-180.5 -70q-80 0 -129 40.5t-49 112.5zM774 1395q0 -76 86 -76q55 0 90 35t35 90q0 76 -86 76q-55 0 -90 -35t-35 -90z" />
<glyph unicode="&#xe6;" horiz-adv-x="1755" d="M195 348q0 340 174 552t448 212q147 0 334 -68q119 68 264 68q127 0 209 -44t111.5 -121t33 -179t-23.5 -219l-12 -62h-695q-16 -176 32 -264t183 -88q147 0 328 51l12 -143q-182 -59 -368 -59q-233 0 -322 178q-70 -70 -178.5 -124t-220.5 -54q-154 0 -231.5 98 t-77.5 266zM365 358q0 -223 196 -223q72 0 159 45t146 103q-6 45 -6 96q0 346 156 545q-106 37 -217 37q-193 0 -313.5 -167t-120.5 -436zM1059 631h534q27 172 -14 255t-184 83q-131 0 -217 -88t-119 -250z" />
<glyph unicode="&#xe7;" horiz-adv-x="966" d="M219 549q55 279 178 421t363 142h2q131 0 295 -53l-43 -150q-145 51 -271 52h-2q-147 0 -230 -103.5t-124 -308.5q-41 -207 2 -312.5t191 -105.5h4q131 0 280 51l6 -145q-147 -47 -286 -53l-41 -76q25 4 61 4q59 0 98 -33t39 -92q0 -106 -67.5 -161.5t-184.5 -55.5 q-84 0 -172 18l45 101q61 -10 127 -11q55 0 90 24t35 60q0 53 -98 54q-45 0 -106 -13l67 185q-178 27 -241.5 175t-16.5 386z" />
<glyph unicode="&#xe8;" horiz-adv-x="1093" d="M199 379q0 330 143 531.5t412 201.5q127 0 208.5 -44t111.5 -121t33 -179t-24 -219l-12 -62h-694q-16 -176 32 -264t183 -88q150 0 328 51l12 -143q-183 -59 -369 -59q-182 0 -273 105.5t-91 289.5zM397 631h535q27 172 -14 255t-185 83q-131 0 -217 -88t-119 -250z M586 1444l69 151l441 -243l-41 -90z" />
<glyph unicode="&#xe9;" horiz-adv-x="1093" d="M199 379q0 330 143 531.5t412 201.5q127 0 208.5 -44t111.5 -121t33 -179t-24 -219l-12 -62h-694q-16 -176 32 -264t183 -88q150 0 328 51l12 -143q-183 -59 -369 -59q-182 0 -273 105.5t-91 289.5zM397 631h535q27 172 -14 255t-185 83q-131 0 -217 -88t-119 -250z M610 1352l441 243l69 -151l-469 -182z" />
<glyph unicode="&#xea;" horiz-adv-x="1093" d="M199 379q0 330 143 531.5t412 201.5q127 0 208.5 -44t111.5 -121t33 -179t-24 -219l-12 -62h-694q-16 -176 32 -264t183 -88q150 0 328 51l12 -143q-183 -59 -369 -59q-182 0 -273 105.5t-91 289.5zM397 631h535q27 172 -14 255t-185 83q-131 0 -217 -88t-119 -250z M477 1352l387 243l293 -243l-70 -90l-243 157l-305 -157z" />
<glyph unicode="&#xeb;" horiz-adv-x="1093" d="M199 379q0 330 143 531.5t412 201.5q127 0 208.5 -44t111.5 -121t33 -179t-24 -219l-12 -62h-694q-16 -176 32 -264t183 -88q150 0 328 51l12 -143q-183 -59 -369 -59q-182 0 -273 105.5t-91 289.5zM397 631h535q27 172 -14 255t-185 83q-131 0 -217 -88t-119 -250z M532 1378q0 66 40 109t104 43q94 0 94 -86q0 -68 -40 -111t-101 -43q-96 0 -97 88zM909 1378q0 66 40 109t104 43q94 0 94 -86q0 -68 -40 -111t-101 -43q-96 0 -97 88z" />
<glyph unicode="&#xec;" horiz-adv-x="501" d="M174 0l213 1096h164l-213 -1096h-164zM283 1444l69 151l441 -243l-41 -90z" />
<glyph unicode="&#xed;" horiz-adv-x="501" d="M174 0l213 1096h164l-213 -1096h-164zM307 1352l441 243l69 -151l-469 -182z" />
<glyph unicode="&#xee;" horiz-adv-x="501" d="M174 0l213 1096h164l-213 -1096h-164zM174 1352l387 243l293 -243l-70 -90l-243 157l-305 -157z" />
<glyph unicode="&#xef;" horiz-adv-x="501" d="M174 0l213 1096h164l-213 -1096h-164zM229 1378q0 66 40 109t104 43q94 0 94 -86q0 -68 -40 -111t-101 -43q-96 0 -97 88zM606 1378q0 66 40 109t104 43q94 0 94 -86q0 -68 -40.5 -111t-101.5 -43q-96 0 -96 88z" />
<glyph unicode="&#xf0;" horiz-adv-x="1110" d="M199 336q0 291 151.5 473t405.5 182q125 0 264 -41l8 47q33 166 -41 246l-203 -129l-43 78l170 108q-41 25 -163 76l-132 58l56 118l139 -53q188 -72 244 -106l176 114l45 -77l-148 -95q111 -113 66 -334l-100 -514q-47 -244 -174 -373.5t-361 -129.5q-178 0 -269 93 t-91 259zM369 358q0 -231 217 -231q274 0 344 360l61 318q-141 43 -264 43q-158 0 -258 -137.5t-100 -352.5z" />
<glyph unicode="&#xf1;" horiz-adv-x="1136" d="M164 0l213 1096h131l-14 -170q80 78 189.5 132t217.5 54q297 0 232 -344l-150 -768h-164l144 733q23 113 -8 170.5t-140 57.5q-90 0 -184 -55.5t-152 -125.5l-151 -780h-164zM543 1321q18 92 76.5 154.5t136.5 62.5q55 0 98 -31.5t77 -62.5t64 -31q41 0 69 32t34 73h104 q-14 -104 -74.5 -169t-140.5 -65q-61 0 -133 62.5t-109 62.5q-76 0 -102 -111z" />
<glyph unicode="&#xf2;" horiz-adv-x="1110" d="M199 354q0 338 153.5 548t415.5 210q180 0 268 -96t88 -273q0 -338 -153.5 -548.5t-415.5 -210.5q-178 0 -267 96t-89 274zM367 369q0 -242 213 -242q174 0 275 167t101 433q0 242 -213 242q-174 0 -275 -167t-101 -433zM573 1444l70 151l440 -243l-41 -90z" />
<glyph unicode="&#xf3;" horiz-adv-x="1110" d="M199 354q0 338 153.5 548t415.5 210q180 0 268 -96t88 -273q0 -338 -153.5 -548.5t-415.5 -210.5q-178 0 -267 96t-89 274zM367 369q0 -242 213 -242q174 0 275 167t101 433q0 242 -213 242q-174 0 -275 -167t-101 -433zM598 1352l440 243l70 -151l-469 -182z" />
<glyph unicode="&#xf4;" horiz-adv-x="1110" d="M199 354q0 338 153.5 548t415.5 210q180 0 268 -96t88 -273q0 -338 -153.5 -548.5t-415.5 -210.5q-178 0 -267 96t-89 274zM367 369q0 -242 213 -242q174 0 275 167t101 433q0 242 -213 242q-174 0 -275 -167t-101 -433zM465 1352l387 243l293 -243l-70 -90l-244 157 l-305 -157z" />
<glyph unicode="&#xf5;" horiz-adv-x="1110" d="M199 354q0 338 153.5 548t415.5 210q180 0 268 -96t88 -273q0 -338 -153.5 -548.5t-415.5 -210.5q-178 0 -267 96t-89 274zM367 369q0 -242 213 -242q174 0 275 167t101 433q0 242 -213 242q-174 0 -275 -167t-101 -433zM506 1321q18 92 76.5 154.5t136.5 62.5 q55 0 98 -31.5t77 -62.5t64 -31q41 0 69 32t34 73h104q-14 -104 -74.5 -169t-140.5 -65q-61 0 -133 62.5t-108 62.5q-76 0 -103 -111z" />
<glyph unicode="&#xf6;" horiz-adv-x="1110" d="M199 354q0 338 153.5 548t415.5 210q180 0 268 -96t88 -273q0 -338 -153.5 -548.5t-415.5 -210.5q-178 0 -267 96t-89 274zM367 369q0 -242 213 -242q174 0 275 167t101 433q0 242 -213 242q-174 0 -275 -167t-101 -433zM520 1378q0 66 40 109t104 43q94 0 94 -86 q0 -68 -40.5 -111t-101.5 -43q-96 0 -96 88zM897 1378q0 66 40 109t103 43q94 0 95 -86q0 -68 -40.5 -111t-101.5 -43q-96 0 -96 88z" />
<glyph unicode="&#xf7;" horiz-adv-x="980" d="M139 614l29 148h940l-29 -148h-940zM436 295q0 63 38 102t99 39q94 0 95 -80q0 -63 -38.5 -102t-99.5 -39q-94 0 -94 80zM578 1022q0 63 37.5 102t99.5 39q94 0 94 -80q0 -63 -38 -102t-99 -39q-94 0 -94 80z" />
<glyph unicode="&#xf8;" horiz-adv-x="1110" d="M127 -82l139 186q-68 94 -67 250q0 338 153.5 548t415.5 210q131 0 215 -53l88 119h125l-139 -187q68 -92 67 -248q0 -338 -153.5 -548.5t-415.5 -210.5q-131 0 -215 53l-88 -119h-125zM367 369q0 -68 14 -111l504 670q-53 41 -142 41q-174 0 -275 -167t-101 -433z M438 168q53 -41 142 -41q174 0 275 167t101 433q0 68 -14 111z" />
<glyph unicode="&#xf9;" horiz-adv-x="1126" d="M225 369l142 727h163l-137 -703q-51 -262 195 -262t297 262l137 703h164l-142 -727q-16 -82 -43.5 -144.5t-80 -121t-142.5 -89t-213 -30.5q-193 0 -281.5 113.5t-58.5 271.5zM582 1444l69 151l441 -243l-41 -90z" />
<glyph unicode="&#xfa;" horiz-adv-x="1126" d="M225 369l142 727h163l-137 -703q-51 -262 195 -262t297 262l137 703h164l-142 -727q-16 -82 -43.5 -144.5t-80 -121t-142.5 -89t-213 -30.5q-193 0 -281.5 113.5t-58.5 271.5zM606 1352l441 243l69 -151l-469 -182z" />
<glyph unicode="&#xfb;" horiz-adv-x="1126" d="M225 369l142 727h163l-137 -703q-51 -262 195 -262t297 262l137 703h164l-142 -727q-16 -82 -43.5 -144.5t-80 -121t-142.5 -89t-213 -30.5q-193 0 -281.5 113.5t-58.5 271.5zM473 1352l387 243l293 -243l-70 -90l-243 157l-305 -157z" />
<glyph unicode="&#xfc;" horiz-adv-x="1126" d="M225 369l142 727h163l-137 -703q-51 -262 195 -262t297 262l137 703h164l-142 -727q-16 -82 -43.5 -144.5t-80 -121t-142.5 -89t-213 -30.5q-193 0 -281.5 113.5t-58.5 271.5zM528 1378q0 66 40 109t104 43q94 0 94 -86q0 -68 -40 -111t-101 -43q-96 0 -97 88zM905 1378 q0 66 40 109t104 43q94 0 94 -86q0 -68 -40.5 -111t-101.5 -43q-96 0 -96 88z" />
<glyph unicode="&#xfd;" horiz-adv-x="1069" d="M-92 -414l51 150q68 -10 147.5 -10t179 77.5t187.5 196.5h-43l-213 1096h168l170 -946h8q330 463 432 946h176q-27 -143 -102.5 -340t-188 -403t-240.5 -382t-274.5 -288.5t-275.5 -112.5q-96 0 -182 16zM512 1352l440 243l70 -151l-469 -182z" />
<glyph unicode="&#xfe;" horiz-adv-x="1130" d="M84 -414l199 1028l178 922h164l-115 -596q162 172 350 172q289 0 289 -344t-169 -564t-433 -220q-123 0 -217 20l-82 -418h-164zM360 164q85 -29 185 -29q193 0 313.5 167t120.5 435q0 223 -197 224q-78 0 -160.5 -54.5t-140.5 -126.5z" />
<glyph unicode="&#xff;" horiz-adv-x="1069" d="M-92 -414l51 150q68 -10 147.5 -10t179 77.5t187.5 196.5h-43l-213 1096h168l170 -946h8q330 463 432 946h176q-27 -143 -102.5 -340t-188 -403t-240.5 -382t-274.5 -288.5t-275.5 -112.5q-96 0 -182 16zM434 1378q0 66 40 109t104 43q94 0 94 -86q0 -68 -40.5 -111 t-101.5 -43q-96 0 -96 88zM811 1378q0 66 40 109t103 43q94 0 95 -86q0 -68 -40.5 -111t-101.5 -43q-96 0 -96 88z" />
<glyph unicode="&#x152;" horiz-adv-x="1959" d="M283 719q70 360 222 545.5t445 185.5q238 0 348 -145l25 129h772l-31 -160h-598l-90 -463h553l-31 -160h-552q0 -6 -3 -8l-94 -483h598l-30 -160h-773l19 100q-145 -117 -373 -116q-279 0 -377 193.5t-30 541.5zM460 297q56 -154 249 -154q199 0 307 144.5t164 431.5 q59 264 1.5 417.5t-249.5 153.5q-197 0 -306.5 -144.5t-162.5 -426.5q-59 -268 -3 -422z" />
<glyph unicode="&#x153;" horiz-adv-x="1828" d="M199 354q0 338 153.5 548t415.5 210q246 0 324 -182q147 182 397 182q127 0 209 -44t111.5 -121t32.5 -179t-23 -219l-13 -62h-694q-16 -176 32 -264t183 -88q147 0 328 51l12 -143q-182 -59 -369 -59q-252 0 -331 204q-156 -205 -412 -204q-178 0 -267 96t-89 274z M367 369q0 -242 213 -242q174 0 275 167t101 433q0 242 -213 242q-174 0 -275 -167t-101 -433zM1133 631h534q27 172 -14 255t-185 83q-131 0 -217 -88t-118 -250z" />
<glyph unicode="&#x178;" horiz-adv-x="1185" d="M350 1434h178l183 -742h10l471 742h201l-619 -942l-96 -492h-174l96 492zM621 1716q0 66 39.5 109t103.5 43q94 0 94 -86q0 -68 -40 -111t-101 -43q-96 0 -96 88zM997 1716q0 66 40 109t104 43q94 0 94 -86q0 -68 -40 -111t-101 -43q-96 0 -97 88z" />
<glyph unicode="&#x2c6;" horiz-adv-x="884" d="M352 1352l387 243l293 -243l-69 -90l-244 157l-305 -157z" />
<glyph unicode="&#x2dc;" horiz-adv-x="866" d="M379 1321q18 92 76.5 154.5t136.5 62.5q55 0 98 -31.5t77 -62.5t64 -31q41 0 69 32t34 73h104q-14 -104 -74.5 -169t-140.5 -65q-61 0 -133 62.5t-108 62.5q-76 0 -103 -111z" />
<glyph unicode="&#x2000;" horiz-adv-x="980" />
<glyph unicode="&#x2001;" horiz-adv-x="1960" />
<glyph unicode="&#x2002;" horiz-adv-x="980" />
<glyph unicode="&#x2003;" horiz-adv-x="1960" />
<glyph unicode="&#x2004;" horiz-adv-x="653" />
<glyph unicode="&#x2005;" horiz-adv-x="490" />
<glyph unicode="&#x2006;" horiz-adv-x="326" />
<glyph unicode="&#x2007;" horiz-adv-x="326" />
<glyph unicode="&#x2008;" horiz-adv-x="245" />
<glyph unicode="&#x2009;" horiz-adv-x="392" />
<glyph unicode="&#x200a;" horiz-adv-x="108" />
<glyph unicode="&#x2010;" horiz-adv-x="761" d="M207 541l29 151h557l-29 -151h-557z" />
<glyph unicode="&#x2011;" horiz-adv-x="761" d="M207 541l29 151h557l-29 -151h-557z" />
<glyph unicode="&#x2012;" horiz-adv-x="761" d="M207 541l29 151h557l-29 -151h-557z" />
<glyph unicode="&#x2013;" horiz-adv-x="987" d="M207 541l29 151h782l-29 -151h-782z" />
<glyph unicode="&#x2014;" horiz-adv-x="1290" d="M207 541l29 151h1085l-29 -151h-1085z" />
<glyph unicode="&#x2018;" horiz-adv-x="530" d="M311 973q51 260 269 563l120 -31q-150 -293 -194 -532h-195z" />
<glyph unicode="&#x2019;" horiz-adv-x="530" d="M299 901q141 272 195 533h194q-55 -265 -270 -564z" />
<glyph unicode="&#x201a;" horiz-adv-x="530" d="M68 -287q145 289 194 533h195q-56 -264 -271 -563z" />
<glyph unicode="&#x201c;" horiz-adv-x="858" d="M311 973q51 260 269 563l120 -31q-150 -293 -194 -532h-195zM639 973q51 260 268 563l121 -31q-150 -293 -194 -532h-195z" />
<glyph unicode="&#x201d;" horiz-adv-x="858" d="M299 901q141 272 195 533h194q-55 -265 -270 -564zM627 901q141 272 194 533h195q-56 -265 -271 -564z" />
<glyph unicode="&#x201e;" horiz-adv-x="858" d="M68 -287q145 289 194 533h195q-56 -264 -271 -563zM395 -287q145 289 195 533h194q-55 -264 -270 -563z" />
<glyph unicode="&#x2022;" horiz-adv-x="835" d="M268 553q0 150 93.5 248t232.5 98q104 0 160.5 -54t56.5 -149q0 -150 -92.5 -248t-231.5 -98q-106 0 -162.5 54.5t-56.5 148.5z" />
<glyph unicode="&#x2026;" horiz-adv-x="1558" d="M162 74q0 76 42 121t111 45q102 0 103 -90q0 -76 -42 -121t-110 -45q-104 0 -104 90zM674 74q0 76 42 121t111 45q102 0 103 -90q0 -76 -42 -121t-110 -45q-104 0 -104 90zM1186 74q0 76 42 121t111 45q102 0 103 -90q0 -76 -42 -121t-110 -45q-104 0 -104 90z" />
<glyph unicode="&#x202f;" horiz-adv-x="392" />
<glyph unicode="&#x2039;" horiz-adv-x="733" d="M242 612l467 435l84 -109l-344 -326l217 -325l-125 -109z" />
<glyph unicode="&#x203a;" horiz-adv-x="733" d="M178 287l344 325l-217 326l125 109l299 -435l-467 -434z" />
<glyph unicode="&#x205f;" horiz-adv-x="490" />
<glyph unicode="&#x20ac;" horiz-adv-x="1261" d="M244 514l26 137h105q6 66 18 131h-98l27 138h108q80 250 251 390t413 140q137 0 303 -55l-47 -156q-158 51 -289 51q-152 0 -267.5 -97t-179.5 -273h455l-72 -138h-422q-16 -78 -20 -131h373l-70 -137h-311v-27q0 -344 293 -344q156 0 305 52l16 -152q-193 -59 -354 -59 q-223 0 -332.5 124.5t-109.5 356.5v49h-121z" />
<glyph unicode="&#x2122;" horiz-adv-x="1470" d="M381 1329l20 105h451l-21 -105h-167l-103 -522h-115l103 522h-168zM852 807l143 627h140l77 -455l254 455h140l-103 -627h-106l76 450h-5l-196 -370h-156l-53 370h-4l-101 -450h-106z" />
<glyph unicode="&#x25fc;" horiz-adv-x="1095" d="M0 0v1096h1096v-1096h-1096z" />
</font>
</defs>
</svg>
