<?xml version="1.0" standalone="no"?>
<!DOCTYPE svg PUBLIC "-//W3C//DTD SVG 1.1//EN" "http://www.w3.org/Graphics/SVG/1.1/DTD/svg11.dtd" >
<svg xmlns="http://www.w3.org/2000/svg" xmlns:xlink="http://www.w3.org/1999/xlink" version="1.1">
<metadata></metadata>
<defs>
<font id="bould_boldbold_italic" horiz-adv-x="1140" >
<font-face units-per-em="2048" ascent="1638" descent="-410" />
<missing-glyph horiz-adv-x="516" />
<glyph horiz-adv-x="0" />
<glyph unicode="&#xd;" horiz-adv-x="681" />
<glyph unicode=" "  horiz-adv-x="516" />
<glyph unicode="&#x09;" horiz-adv-x="516" />
<glyph unicode="&#xa0;" horiz-adv-x="516" />
<glyph unicode="!" horiz-adv-x="466" d="M88 113q0 90 59.5 148t151.5 58q68 0 104.5 -33.5t36.5 -90.5q0 -90 -59.5 -150.5t-147.5 -60.5q-72 0 -108.5 34.5t-36.5 94.5zM227 504l82 643l56 287h297l-56 -287l-168 -643h-211z" />
<glyph unicode="&#x22;" horiz-adv-x="708" d="M258 920l21 256l51 258h252l-52 -258l-79 -256h-193zM612 920l21 256l51 258h252l-51 -258l-80 -256h-193z" />
<glyph unicode="#" horiz-adv-x="1107" d="M113 418l80 213h182l65 176h-196l80 213h196l92 250h209l-92 -250h154l92 250h209l-92 -250h184l-82 -213h-182l-66 -176h199l-82 -213h-197l-92 -250h-209l92 250h-153l-92 -250h-209l92 250h-182zM584 631h153l66 176h-154z" />
<glyph unicode="$" horiz-adv-x="1118" d="M63 59l87 283q68 -25 194.5 -48.5t226.5 -23.5q254 0 254 162q0 39 -25.5 62.5t-80.5 50.5l-240 112q-201 94 -200 301q0 205 116.5 331t356.5 153l26 149h226l-27 -145q145 -10 303 -55l-82 -283q-203 57 -369 57q-106 0 -166.5 -40t-60.5 -107.5t96 -108.5l170 -75 q152 -68 220.5 -145t68.5 -189q0 -227 -124 -357.5t-400 -154.5l-37 -183h-225l37 183q-209 16 -345 71z" />
<glyph unicode="%" horiz-adv-x="1853" d="M289 1065q39 197 137 291t270 94q160 0 235 -97.5t38 -287.5q-39 -197 -137.5 -291t-270.5 -94q-160 0 -234.5 97t-37.5 288zM430 -59l1002 1552h270l-1002 -1552h-270zM508.5 917.5q18.5 -49.5 81.5 -49.5q121 0 157.5 197t-79.5 197q-121 0 -158 -197 q-20 -98 -1.5 -147.5zM1163 369q39 197 137.5 291t270.5 94q160 0 234.5 -97.5t37.5 -287.5q-39 -197 -137 -291t-270 -94q-160 0 -235 97t-38 288zM1382.5 221.5q18.5 -49.5 81.5 -49.5q121 0 158 196.5t-80 196.5q-121 0 -158 -196q-20 -98 -1.5 -147.5z" />
<glyph unicode="&#x26;" horiz-adv-x="1495" d="M133 340q0 152 81 263.5t222 152.5q-63 27 -103 86t-40 139q0 469 647 469q207 0 385 -53l-88 -258q-180 49 -348 49q-129 0 -203 -49t-74 -138q0 -115 172 -114h361q262 0 452 110l123 -200q-203 -154 -483 -166q-41 -193 -107.5 -324t-157.5 -199.5t-187.5 -96 t-219.5 -27.5q-205 0 -318.5 94t-113.5 262zM455 395q0 -141 172 -141q133 0 205.5 97.5t115.5 279.5h-215q-127 0 -202.5 -63.5t-75.5 -172.5z" />
<glyph unicode="'" horiz-adv-x="354" d="M258 920l21 256l51 258h252l-52 -258l-79 -256h-193z" />
<glyph unicode="(" horiz-adv-x="903" d="M219 657q80 430 285 671t549 302l32 -270q-78 -23 -139 -51.5t-128.5 -81.5t-118 -126t-95.5 -186.5t-74 -257.5q-29 -145 -31.5 -256.5t14.5 -185.5t56 -127t86 -83t115 -50l-84 -270q-299 47 -423 304t-44 668z" />
<glyph unicode=")" horiz-adv-x="903" d="M74 -45q78 23 139 51.5t129 81.5t118 126t95 186.5t74 256.5q29 145 32 257t-14.5 186t-56.5 127t-86 82.5t-115 50.5l84 270q299 -47 423 -304t44 -669q-80 -430 -284.5 -670.5t-549.5 -301.5z" />
<glyph unicode="*" horiz-adv-x="841" d="M283 1186l106 192l133 -55l64 -41l4 102l28 152h203l-28 -152l-37 -102l80 41l153 55l33 -192l-152 -51l-79 -15l40 -43l80 -116l-184 -132l-74 115l-30 82l-66 -82l-119 -115l-131 132l125 116l57 43l-75 15z" />
<glyph unicode="+" horiz-adv-x="1021" d="M131 573l45 230h377l76 387h229l-76 -387h375l-45 -230h-375l-75 -387h-230l76 387h-377z" />
<glyph unicode="," horiz-adv-x="536" d="M23 -307q61 117 115.5 274.5t76.5 278.5h287q-27 -131 -108 -296t-169 -288z" />
<glyph unicode="-" horiz-adv-x="761" d="M178 492l45 233h598l-45 -233h-598z" />
<glyph unicode="." horiz-adv-x="507" d="M109 113q0 90 59 148t151 58q68 0 105 -33.5t37 -90.5q0 -90 -59.5 -150.5t-147.5 -60.5q-72 0 -108.5 34.5t-36.5 94.5z" />
<glyph unicode="/" horiz-adv-x="786" d="M-72 -264l885 1859h293l-885 -1859h-293z" />
<glyph unicode="0" horiz-adv-x="1204" d="M211 719q70 365 217 548t444 183q276 0 371.5 -191.5t28.5 -539.5q-72 -369 -219.5 -552t-444.5 -183q-276 0 -370.5 192.5t-26.5 542.5zM509.5 357.5q28.5 -97.5 141.5 -97.5q111 0 182.5 102.5t120.5 356.5q47 260 16.5 357.5t-141 97.5t-181 -100.5t-120.5 -354.5 q-47 -264 -18.5 -361.5z" />
<glyph unicode="1" horiz-adv-x="829" d="M254 989l55 287l396 158h270l-279 -1434h-307l219 1126z" />
<glyph unicode="2" horiz-adv-x="1103" d="M72 0l49 254q23 121 93.5 219t157.5 157.5t184 115t177 95.5t132.5 95t52.5 119q0 119 -209 119q-166 0 -349 -56l-18 268q201 63 442 64q215 0 336 -87t121 -243q0 -123 -55.5 -227.5t-139 -170t-183 -125.5t-185.5 -101t-148.5 -93.5t-72.5 -103.5l-4 -23h628l-53 -276 h-956z" />
<glyph unicode="3" horiz-adv-x="1110" d="M49 47l111 270q186 -55 352 -55q301 0 301 217q0 145 -242 146h-202l49 256h203q111 0 187.5 43t76.5 137q0 113 -178 113q-166 0 -349 -56l-20 268q184 63 446 64q430 0 430 -303q1 -287 -237 -383q150 -49 149 -254q0 -248 -160.5 -387t-478.5 -139q-238 0 -438 63z " />
<glyph unicode="4" horiz-adv-x="1210" d="M104 246l50 252l327 479q66 96 99.5 168t52.5 164l24 125h304l-25 -125q-41 -201 -160 -373l-282 -414h321l113 371h266l-72 -371h158l-53 -276h-158l-47 -246h-307l47 246h-658z" />
<glyph unicode="5" horiz-adv-x="1155" d="M76 47l106 272q178 -55 361 -55q152 0 235.5 66.5t83.5 187.5q0 143 -225 144q-137 0 -272 -52l-125 86l143 738h883l-56 -277h-579l-51 -266q92 27 204 27q193 0 296.5 -88.5t103.5 -251.5q0 -283 -160 -438.5t-500 -155.5q-258 0 -448 63z" />
<glyph unicode="6" horiz-adv-x="1193" d="M180 451q0 449 212 724t564 275q186 0 377 -64l-106 -268q-170 56 -291 56q-268 0 -377 -302q131 45 262 46q188 0 296 -87.5t108 -240.5q0 -268 -161 -437t-448 -169q-205 0 -320.5 118.5t-115.5 348.5zM498 463q0 -111 38.5 -157t120.5 -46q102 0 172 75t70 181 q0 68 -40 109t-124 41q-131 0 -229 -50q-8 -66 -8 -153z" />
<glyph unicode="7" horiz-adv-x="1157" d="M229 0l33 170q23 121 84.5 230.5t136 186.5t158.5 152.5t155.5 132t124 122t64.5 124.5l8 39h-696l53 277h1014l-31 -164l-10 -45l-2 -17l-14 -69q-27 -131 -105 -244t-173 -193.5t-188 -157.5t-167 -172.5t-94 -201.5l-33 -170h-318z" />
<glyph unicode="8" horiz-adv-x="1191" d="M135 315q0 256 287 422q-123 92 -123 240q0 209 151.5 340t423.5 133h5q203 0 315.5 -85t112.5 -226q0 -244 -256 -391q160 -102 159 -277q0 -229 -154.5 -358t-469.5 -129h-4q-197 2 -322 87t-125 244zM457 385q0 -59 47 -97t129 -38h4q113 0 181.5 46t68.5 112 q0 61 -123 131l-133 75q-174 -106 -174 -229zM618 1032q0 -72 119 -131l94 -45q152 88 152 217q0 55 -40 91t-114 36h-4q-86 0 -146.5 -49t-60.5 -119z" />
<glyph unicode="9" horiz-adv-x="1193" d="M137 47l107 268q170 -55 291 -55q268 0 376 301q-131 -45 -262 -45q-188 0 -295.5 87t-107.5 241q0 268 160.5 437t447.5 169q205 0 320.5 -119t115.5 -348q0 -449 -212 -724t-564 -275q-186 0 -377 63zM571 918q0 -68 40 -109t124 -41q131 0 230 49q8 66 8 154 q0 111 -39 157t-121 46q-102 0 -172 -75t-70 -181z" />
<glyph unicode=":" horiz-adv-x="507" d="M109 113q0 90 59 148t151 58q68 0 105 -33.5t37 -90.5q0 -90 -59.5 -150.5t-147.5 -60.5q-72 0 -108.5 34.5t-36.5 94.5zM256 870q0 90 59.5 148.5t151.5 58.5q68 0 104.5 -33.5t36.5 -91.5q0 -90 -59.5 -150.5t-147.5 -60.5q-72 0 -108.5 35t-36.5 94z" />
<glyph unicode=";" horiz-adv-x="561" d="M23 -307q61 117 115.5 274.5t76.5 278.5h287q-27 -131 -108 -296t-169 -288zM256 870q0 90 59.5 148.5t151.5 58.5q68 0 104.5 -33.5t36.5 -91.5q0 -90 -59.5 -150.5t-147.5 -60.5q-72 0 -108.5 35t-36.5 94z" />
<glyph unicode="&#x3c;" horiz-adv-x="1028" d="M203 616l26 140l912 434l-54 -270l-548 -248l452 -248l-47 -242z" />
<glyph unicode="=" horiz-adv-x="1021" d="M88 348l45 230h981l-45 -230h-981zM176 799l45 229h981l-45 -229h-981z" />
<glyph unicode="&#x3e;" horiz-adv-x="991" d="M117 182l53 271l549 247l-453 248l47 242l742 -434l-27 -140z" />
<glyph unicode="?" horiz-adv-x="1062" d="M260 113q0 90 59.5 148t151.5 58q68 0 104.5 -33.5t36.5 -90.5q0 -90 -59 -150.5t-147 -60.5q-72 0 -109 34.5t-37 94.5zM330 1124l22 267q201 59 381 59q465 0 465 -295q0 -106 -37 -186t-92 -123t-121.5 -80t-126 -61.5t-103.5 -62.5t-54 -87l-11 -51h-297l19 90 q18 90 76.5 155.5t128 102.5t136 68.5t111.5 71.5t45 91q0 98 -192 99q-147 0 -350 -58z" />
<glyph unicode="@" horiz-adv-x="1622" d="M197 401q0 418 236.5 672t639.5 254q262 0 426 -140t164 -372q0 -254 -119 -422t-301 -168q-147 0 -196 88q-94 -88 -234 -88q-102 0 -173 71t-71 198q0 199 104.5 335t250.5 136q94 0 149 -66l27 55h194l-84 -428q-25 -123 66 -123q70 0 118 110t48 263q0 342 -408 342 q-274 0 -443 -188.5t-169 -503.5q0 -197 116.5 -280t338.5 -83q209 0 428 52l22 -197q-249 -61 -489 -61q-299 0 -470 139t-171 405zM793 532q0 -108 90 -108q57 0 102 49l47 234q-27 59 -84 59q-66 0 -110.5 -67.5t-44.5 -166.5z" />
<glyph unicode="A" horiz-adv-x="1286" d="M20 0l652 1434h495l99 -1434h-324l-12 315h-436l-132 -315h-342zM610 592l310 2l-21 543h-61z" />
<glyph unicode="B" horiz-adv-x="1230" d="M133 0l279 1434h551q358 0 358 -279q0 -131 -62.5 -239.5t-158.5 -155.5l-2 -8q151 -63 151 -240q0 -221 -143 -366.5t-375 -145.5h-598zM502 266h203q102 0 161.5 61.5t59.5 164.5q0 120 -151 120h-3h-203zM618 868h179q86 0 138 53.5t52 139.5q0 106 -131 106h-178z " />
<glyph unicode="C" horiz-adv-x="1114" d="M197 481q0 434 209.5 701.5t572.5 267.5q166 0 324 -59l-95 -285q-143 51 -276 51q-180 0 -292 -175t-112 -458q0 -135 58.5 -191.5t173.5 -56.5q154 0 307 52l-16 -285q-178 -59 -346 -59q-252 0 -380 130t-128 367z" />
<glyph unicode="D" horiz-adv-x="1300" d="M133 0l279 1434h469q287 0 415 -190q85 -126 86 -315q0 -96 -22 -208q-49 -340 -247 -530.5t-511 -190.5h-469zM504 276h151q133 0 233.5 108t143.5 337q20 99 20 176q0 260 -225 260h-151z" />
<glyph unicode="E" horiz-adv-x="1069" d="M133 0l279 1434h854l-54 -277h-536l-58 -289h492l-53 -274h-492l-61 -322h536l-53 -272h-854z" />
<glyph unicode="F" horiz-adv-x="1110" d="M133 0l279 1434h854l-54 -277h-536l-62 -313h492l-53 -275h-492l-110 -569h-318z" />
<glyph unicode="G" horiz-adv-x="1255" d="M197 481q0 444 212 706.5t601 262.5q186 0 356 -61l-94 -279q-164 53 -303 53q-197 0 -319 -177t-122 -462q0 -135 58.5 -191.5t173.5 -56.5q82 0 143 13l45 233h-211l54 277h507l-143 -738q-217 -77 -450 -77q-258 0 -383 129t-125 368z" />
<glyph unicode="H" horiz-adv-x="1361" d="M133 0l279 1434h317l-106 -547h460l107 547h317l-278 -1434h-318l117 600h-461l-116 -600h-318z" />
<glyph unicode="I" horiz-adv-x="583" d="M133 0l279 1434h317l-278 -1434h-318z" />
<glyph unicode="J" horiz-adv-x="677" d="M-4 -131l106 57q123 66 146 187l258 1321h317l-264 -1352q-57 -281 -264 -358l-203 -78z" />
<glyph unicode="K" horiz-adv-x="1259" d="M133 0l279 1434h317l-108 -560h73l436 560h367l-553 -709l285 -725h-344l-213 588h-107l-114 -588h-318z" />
<glyph unicode="L" horiz-adv-x="1028" d="M133 0l279 1434h317l-223 -1147h536l-55 -287h-854z" />
<glyph unicode="M" horiz-adv-x="1718" d="M133 0l326 1434h342l151 -926l512 926h353l-232 -1434h-307l131 786h-10l-324 -602h-360l-88 602h-11l-176 -786h-307z" />
<glyph unicode="N" horiz-adv-x="1374" d="M133 0l279 1434h276l344 -883h10l170 883h308l-279 -1434h-295l-336 864h-10l-160 -864h-307z" />
<glyph unicode="O" horiz-adv-x="1388" d="M221 719q72 369 256.5 550t497.5 181q287 0 414 -186q82 -120 82 -312q0 -106 -25 -233q-74 -373 -257 -554t-499 -181q-286 0 -412 187q-82 121 -81 315q0 106 24 233zM549 719q-21 -110 -21 -193q0 -91 26 -148q50 -108 191 -108q143 0 235.5 107.5t137.5 341.5 q21 104 21 184q0 260 -219 260q-143 0 -234.5 -106.5t-136.5 -337.5z" />
<glyph unicode="P" horiz-adv-x="1208" d="M133 0l279 1434h532q199 0 305.5 -96.5t106.5 -264.5q0 -256 -162 -425t-436 -169h-215l-92 -479h-318zM598 760h195q98 0 163.5 72.5t65.5 181.5q0 66 -39 104.5t-113 38.5h-194z" />
<glyph unicode="Q" horiz-adv-x="1388" d="M221 719q72 369 256.5 550t497.5 181q287 0 414 -186q82 -121 82 -312q0 -106 -25 -233q-72 -365 -248 -545l74 -119l-221 -155l-80 129q-121 -45 -281 -45q-285 0 -412 187q-81 121 -81 315q0 106 24 233zM549 719q-21 -110 -21 -193q0 -91 26 -148q50 -108 191 -108 q35 0 70 6l-117 189l222 156l108 -175q57 100 90 273q21 104 21 184q0 260 -219 260q-143 0 -234.5 -106.5t-136.5 -337.5z" />
<glyph unicode="R" horiz-adv-x="1245" d="M133 0l279 1434h575q182 0 285.5 -88t103.5 -248q0 -207 -90 -343.5t-248 -191.5l176 -563h-333l-150 526h-178l-102 -526h-318zM608 807h230q88 0 148.5 65.5t60.5 159.5q0 57 -37 91t-105 34h-229z" />
<glyph unicode="S" horiz-adv-x="1118" d="M63 59l87 283q68 -25 194.5 -48.5t226.5 -23.5q254 0 254 162q0 39 -25.5 62.5t-80.5 50.5l-240 112q-200 94 -200 299q0 233 149.5 363.5t456.5 130.5q188 0 395 -59l-82 -283q-203 57 -369 57q-106 0 -166.5 -40t-60.5 -107.5t96 -108.5l170 -75q152 -68 220.5 -145 t68.5 -189q0 -250 -151.5 -383t-493.5 -133q-262 0 -449 75z" />
<glyph unicode="T" horiz-adv-x="1204" d="M266 1157l53 277h1123l-53 -277h-402l-225 -1157h-318l226 1157h-404z" />
<glyph unicode="U" horiz-adv-x="1343" d="M225 471l187 963h317l-182 -945q-6 -35 -7 -64q0 -155 185 -155q223 0 264 219l182 945h318l-186 -963q-95 -487 -623 -487q-240 0 -369 131q-97 98 -97 249q0 51 11 107z" />
<glyph unicode="V" horiz-adv-x="1357" d="M309 1434h326l76 -1106h49l506 1106h340l-688 -1434h-484z" />
<glyph unicode="W" horiz-adv-x="1927" d="M281 0l28 1434h326l-57 -1106h49l395 1106h432l-37 -1106h49l373 1106h336l-551 -1434h-496l43 1077l-374 -1077h-516z" />
<glyph unicode="X" horiz-adv-x="1282" d="M20 0l508 731l-206 703h333l142 -535h8l350 535h363l-482 -703l226 -731h-330l-160 567h-8l-381 -567h-363z" />
<glyph unicode="Y" horiz-adv-x="1206" d="M309 1434h309l125 -609h11l364 609h336l-598 -942l-96 -492h-318l97 492z" />
<glyph unicode="Z" horiz-adv-x="1146" d="M61 0l48 246l796 911h-588l54 277h993l-49 -250l-795 -908h619l-54 -276h-1024z" />
<glyph unicode="[" horiz-adv-x="757" d="M31 -319l379 1953h542l-47 -245h-256l-284 -1463h256l-48 -245h-542z" />
<glyph unicode="\" horiz-adv-x="786" d="M299 1595h283l163 -1859h-282z" />
<glyph unicode="]" horiz-adv-x="757" d="M76 -319l47 245h256l285 1463h-256l47 245h542l-379 -1953h-542z" />
<glyph unicode="^" horiz-adv-x="1089" d="M186 750l588 786h139l281 -786h-244l-162 458l-333 -458h-269z" />
<glyph unicode="_" horiz-adv-x="886" d="M-102 -315l45 233h968l-45 -233h-968z" />
<glyph unicode="`" horiz-adv-x="700" d="M287 1421l90 232l489 -256l-53 -140z" />
<glyph unicode="a" d="M150 383q0 344 187 549t476 205q213 0 430 -86l-205 -1051h-270l2 147q-49 -72 -130 -117.5t-165 -45.5q-156 0 -240.5 106.5t-84.5 292.5zM467 426q0 -176 127 -176q129 0 213 139l90 461q-66 20 -115 20q-143 0 -229 -120.5t-86 -323.5z" />
<glyph unicode="b" horiz-adv-x="1153" d="M127 70l285 1466h307l-109 -555q117 156 295 156q156 0 236 -99.5t80 -275.5q0 -336 -185.5 -557t-468.5 -221q-223 0 -440 86zM473 270q66 -20 115 -20q143 0 229 121t86 323q0 176 -127 176q-109 0 -213 -139z" />
<glyph unicode="c" horiz-adv-x="933" d="M168 561q55 285 201.5 430.5t427.5 145.5q143 0 266 -43l-105 -263q-98 33 -194 33q-225 0 -285 -303q-14 -70 -14 -122q1 -73 27 -113q46 -68 154 -68t218 33l13 -264q-156 -43 -306 -43q-246 0 -351 154q-70 102 -70 255q0 77 18 168z" />
<glyph unicode="d" d="M150 383q0 350 177 552t476 202q66 0 147 -11l80 410h307l-299 -1536h-270l2 147q-49 -72 -130 -117.5t-165 -45.5q-156 0 -240.5 106.5t-84.5 292.5zM467 426q0 -176 127 -176q129 0 213 139l90 461q-66 20 -115 20q-143 0 -229 -120.5t-86 -323.5z" />
<glyph unicode="e" horiz-adv-x="1110" d="M152 393q0 328 164.5 536t461.5 208q399 0 399 -384q0 -91 -22 -204l-20 -103h-670q-3 -25 -3 -46q0 -80 40 -116q51 -46 162 -46q164 0 329 47l11 -242q-183 -59 -390 -59q-223 0 -342.5 105.5t-119.5 303.5zM510 672h371q5 36 5 66q0 67 -25 102q-36 51 -124 51 q-184 0 -227 -219z" />
<glyph unicode="f" horiz-adv-x="874" d="M147 -414l242 1293h-178l47 241h178l8 45q35 197 151 290t331 93q113 0 223 -20l-100 -242q-74 12 -144 12q-125 0 -151 -129l-11 -49h242l-47 -241h-242l-241 -1293h-308z" />
<glyph unicode="g" d="M92 -375l94 246q162 -47 326 -47q106 0 153.5 38t61.5 107l45 232q-45 -68 -129 -112t-168 -44q-152 0 -238.5 99.5t-86.5 275.5q0 328 177 522.5t476 194.5q223 0 440 -86l-211 -1092q-39 -207 -158.5 -298t-379.5 -91q-207 0 -402 55zM467 487q0 -176 127 -176 q55 0 117.5 37t107.5 103l78 399q-66 20 -115 20q-135 0 -225 -98t-90 -285z" />
<glyph unicode="h" horiz-adv-x="1165" d="M113 0l299 1536h307l-111 -567q72 70 171.5 119t195.5 49q258 0 257 -221q0 -42 -9 -93l-160 -823h-307l143 737q4 21 4 39q0 86 -100 86q-106 0 -244 -143l-139 -719h-307z" />
<glyph unicode="i" horiz-adv-x="522" d="M113 0l217 1120h307l-217 -1120h-307zM371 1389q0 88 58 146t146 58q68 0 105 -33.5t37 -91.5q0 -88 -58.5 -146t-146.5 -58q-70 0 -105.5 33.5t-35.5 91.5z" />
<glyph unicode="j" horiz-adv-x="516" d="M-106 -195l96 31q92 29 108 117l228 1167h307l-223 -1151q-14 -74 -32 -121t-53.5 -101t-99 -90t-157.5 -56l-138 -31zM365 1389q0 88 58 146t148 58q68 0 104 -33.5t36 -91.5q0 -88 -58.5 -146t-146.5 -58q-68 0 -104.5 33.5t-36.5 91.5z" />
<glyph unicode="k" horiz-adv-x="1191" d="M113 0l299 1536h307l-111 -567q188 168 389 168q133 0 200 -69t67 -161q0 -248 -260 -405l-82 -49l141 -453h-307l-152 532l182 113q152 92 152 156q0 61 -92 61q-68 0 -152 -45t-135 -98l-139 -719h-307z" />
<glyph unicode="l" horiz-adv-x="641" d="M174 319l236 1217h307l-232 -1196q-3 -16 -3 -29q0 -63 73 -63q31 0 57 6l-4 -244q-94 -16 -186 -16q-160 0 -220 81q-39 53 -39 142q0 46 11 102z" />
<glyph unicode="m" horiz-adv-x="1755" d="M113 0l217 1120h274l-12 -159q162 176 364 176q215 0 244 -162q170 162 365 162q257 0 257 -220q0 -43 -10 -94l-159 -823h-307l143 737q4 21 4 39q0 86 -100 86q-53 0 -112.5 -37t-104.5 -94l-142 -731h-307l143 737q4 22 4 40q0 85 -90 85q-115 0 -223 -137l-141 -725 h-307z" />
<glyph unicode="n" horiz-adv-x="1157" d="M113 0l217 1120h274l-12 -159q74 74 175 125t200 51q257 0 257 -220q0 -43 -10 -94l-159 -823h-307l143 737q4 21 4 39q0 86 -100 86q-104 0 -234 -137l-141 -725h-307z" />
<glyph unicode="o" horiz-adv-x="1130" d="M152 385q0 336 167.5 544t456.5 208q203 0 312.5 -101.5t109.5 -300.5q0 -340 -164 -545.5t-463 -205.5q-197 0 -308 101t-111 300zM467 424q0 -174 147 -174q113 0 190 128t77 318q0 174 -148 174q-115 0 -190.5 -127t-75.5 -319z" />
<glyph unicode="p" horiz-adv-x="1150" d="M33 -414l299 1534h274l-12 -155q51 76 134 124t173 48q158 0 239 -95.5t81 -279.5q0 -336 -185.5 -557t-468.5 -221q-66 0 -147 10l-80 -408h-307zM473 270q66 -20 115 -20q143 0 229 121t86 323q0 176 -127 176q-111 0 -215 -139z" />
<glyph unicode="q" d="M150 358q0 346 174 562.5t479 216.5q223 0 440 -86l-285 -1465h-307l109 553q-45 -70 -123 -112.5t-162 -42.5q-152 0 -238.5 99t-86.5 275zM467 426q0 -176 127 -176q119 0 213 139l90 461q-66 20 -115 20q-143 0 -229 -120.5t-86 -323.5z" />
<glyph unicode="r" horiz-adv-x="837" d="M113 0l217 1120h274l-20 -198q66 86 164 150.5t194 64.5q33 0 84 -7l-86 -294q-53 8 -84 8q-82 0 -172 -56.5t-137 -130.5l-127 -657h-307z" />
<glyph unicode="s" horiz-adv-x="1024" d="M80 47l88 264q172 -61 375 -61q80 0 124 25.5t44 70.5q0 51 -90 80l-162 49q-201 61 -201 248q0 195 127 304.5t391 109.5q174 0 338 -54l-88 -258q-156 54 -291 54q-160 0 -160 -88q0 -33 64 -56l135 -45q123 -41 187.5 -102.5t64.5 -165.5q0 -215 -126 -326.5 t-408 -111.5q-248 0 -412 63z" />
<glyph unicode="t" horiz-adv-x="890" d="M211 879l47 241h184l47 246l310 37l-56 -283h279l-47 -241h-279l-94 -482q-6 -32 -6 -57q0 -32 10 -52q18 -36 88 -36q82 0 156 18l16 -237q-182 -39 -311 -39q-167 0 -237 76q-48 52 -49 147q0 43 10 94l110 568h-178z" />
<glyph unicode="u" horiz-adv-x="1146" d="M178 385l144 735h307l-140 -710q-4 -21 -5 -40q0 -43 23 -75q32 -45 116 -45t132 45t62 115l139 710h308l-144 -735q-80 -401 -538 -401q-213 0 -325 116q-87 90 -87 211q0 36 8 74z" />
<glyph unicode="v" horiz-adv-x="1220" d="M246 1120h315l72 -774h8q281 391 371 774h331q-121 -487 -624 -1120h-324z" />
<glyph unicode="w" horiz-adv-x="1732" d="M248 1120h327l-22 -774h8q236 358 318 774h387l41 -774h8q225 379 276 774h328q-137 -582 -496 -1120h-362l-37 711h-8q-55 -166 -161.5 -361.5t-223.5 -349.5h-352z" />
<glyph unicode="x" horiz-adv-x="1163" d="M41 0l410 571l-175 549h324l109 -389h8l260 389h344l-389 -549l190 -571h-323l-121 420h-8l-285 -420h-344z" />
<glyph unicode="y" horiz-adv-x="1191" d="M-72 -414l101 252q61 -10 114 -10q72 0 141.5 36t172.5 136h-51l-189 1120h324l118 -794h9q78 123 138 271t89 251.5t70 271.5h350q-88 -315 -211 -590.5t-274.5 -492.5t-336.5 -342t-378 -125q-100 0 -187 16z" />
<glyph unicode="z" horiz-adv-x="1032" d="M51 0l45 233l633 637h-479l47 250h870l-45 -231l-630 -639h538l-49 -250h-930z" />
<glyph unicode="{" horiz-adv-x="907" d="M201 561l37 193q143 35 176 204l57 295q74 381 453 381h178l-68 -245h-94q-70 0 -121 -36t-63 -106l-56 -289q-41 -223 -202 -296l-2 -9q133 -72 88 -297l-58 -288q-12 -70 24 -106t105 -36h95l-29 -245h-178q-182 0 -261 94t-42 286l57 295q33 170 -96 205z" />
<glyph unicode="|" horiz-adv-x="491" d="M55 -238l353 1809h286l-352 -1809h-287z" />
<glyph unicode="}" horiz-adv-x="907" d="M61 -319l68 245h94q70 0 121 36t64 106l55 288q41 223 203 297l2 9q-133 72 -88 296l57 289q12 70 -23.5 106t-105.5 36h-94l28 245h179q182 0 261 -94t42 -287l-58 -295q-33 -170 97 -204l-37 -193q-143 -35 -176 -205l-58 -295q-74 -381 -452 -380h-179z" />
<glyph unicode="~" horiz-adv-x="929" d="M168 549q23 154 100.5 244t204.5 90q63 0 118.5 -36t96.5 -71t70 -35q76 0 100 127h178q-20 -152 -99 -242.5t-208 -90.5q-61 0 -113.5 35.5t-94.5 70.5t-75 35q-76 0 -100 -127h-178z" />
<glyph unicode="&#xa1;" horiz-adv-x="466" d="M23 -324l55 287l168 643h211l-82 -643l-56 -287h-296zM244 915q0 90 59.5 150.5t147.5 60.5q72 0 108.5 -34.5t36.5 -94.5q0 -90 -59.5 -148t-151.5 -58q-68 0 -104.5 33.5t-36.5 90.5z" />
<glyph unicode="&#xa2;" horiz-adv-x="935" d="M201 725q49 248 166.5 391.5t332.5 175.5l31 166h213l-31 -162q94 -8 183 -39l-105 -262q-98 33 -194 33q-225 0 -285 -303q-33 -166 12 -234.5t153.5 -68.5t219.5 33l12 -265q-127 -33 -219 -40l-28 -150h-213l30 160q-178 39 -250.5 185.5t-27.5 379.5z" />
<glyph unicode="&#xa3;" horiz-adv-x="1263" d="M139 0l49 248q86 66 129 116t58 130q6 35 14 100h-192l51 256h149q4 82 15 151q41 229 197.5 339t447.5 110q172 0 373 -59l-80 -261q-170 52 -324 52q-262 0 -299 -191q-10 -47 -18 -141h448l-117 -256h-344q-8 -74 -14 -111q-23 -125 -139 -221h690l-51 -262h-1043z " />
<glyph unicode="&#xa4;" horiz-adv-x="1175" d="M96 283l215 182q-18 51 -18 117q0 199 106 338l-131 165l178 146l134 -168q106 47 235 47q113 0 193 -49l200 170l133 -166l-196 -166q23 -63 22 -135q0 -186 -102 -324l125 -174l-199 -149l-117 172q-104 -47 -229 -47q-119 0 -203 53l-213 -178zM526 614 q0 -145 164 -145q109 0 175.5 74.5t66.5 193.5q0 145 -162 146q-109 0 -176.5 -75t-67.5 -194z" />
<glyph unicode="&#xa5;" horiz-adv-x="1206" d="M186 190l41 209h293l19 93h-293l39 208h202l-178 734h309l125 -609h11l364 609h336l-465 -734h162l-39 -208h-256l-18 -93h256l-41 -209h-256l-37 -190h-318l37 190h-293z" />
<glyph unicode="&#xa6;" horiz-adv-x="491" d="M55 -238l162 828h287l-162 -828h-287zM246 743l162 828h286l-162 -828h-286z" />
<glyph unicode="&#xa7;" horiz-adv-x="1081" d="M39 -371l82 262q193 -51 362 -51q123 0 188.5 43t65.5 123q0 55 -61.5 86t-147.5 49.5t-173 44t-148.5 91t-61.5 169.5q0 176 152 338q-53 68 -53 166q0 500 606 500q195 0 393 -53l-82 -262q-196 51 -362 51q-123 0 -188.5 -43t-65.5 -123q0 -55 60.5 -86t147.5 -49.5 t174 -44t147.5 -91t60.5 -169.5q0 -186 -152 -338q53 -68 53 -166q0 -500 -604 -500q-195 0 -393 53zM449 526q0 -31 16 -52t53 -36.5t71 -25t91 -23.5t92 -24q62 74 62 135q0 29 -16.5 50t-53.5 37.5t-69.5 26t-91 23.5t-93.5 25q-61 -74 -61 -136z" />
<glyph unicode="&#xa8;" horiz-adv-x="837" d="M342 1370q0 84 51 137.5t131 53.5q119 0 119 -109q0 -84 -49 -138t-127 -54q-125 0 -125 110zM743 1368q0 86 50.5 139.5t130.5 53.5q121 0 120 -109q0 -84 -50 -138t-128 -54q-123 0 -123 108z" />
<glyph unicode="&#xa9;" horiz-adv-x="1622" d="M193 539q0 397 241 654t649 257q287 0 456 -150.5t169 -404.5q0 -397 -241.5 -654t-649.5 -257q-289 0 -456.5 151.5t-167.5 403.5zM422 573q0 -190 113.5 -288.5t312.5 -98.5q287 0 459 187.5t172 486.5q0 190 -114 288.5t-312 98.5q-287 0 -459 -188.5t-172 -485.5z M571 717q80 414 461 413q102 0 205 -36l-74 -164q-84 27 -164 26q-184 0 -231 -239q-45 -238 137 -238q76 0 182 27l11 -164q-106 -37 -226 -37q-176 0 -258 107.5t-43 304.5z" />
<glyph unicode="&#xaa;" horiz-adv-x="780" d="M242 950q0 229 123.5 364.5t316.5 135.5q145 0 285 -57l-136 -699h-178l2 99q-35 -47 -89 -78t-109 -31q-102 0 -158.5 71.5t-56.5 194.5zM453 979q0 -119 84 -119q82 0 141 94l59 306q-43 14 -73 14q-96 0 -153.5 -81t-57.5 -214z" />
<glyph unicode="&#xab;" horiz-adv-x="1218" d="M203 625l502 475l153 -172l-348 -328l213 -303l-203 -147zM674 625l502 475l153 -172l-348 -328l213 -303l-203 -147z" />
<glyph unicode="&#xac;" horiz-adv-x="1077" d="M131 565l45 230h1036l-131 -670h-229l86 440h-807z" />
<glyph unicode="&#xad;" horiz-adv-x="761" d="M178 492l45 233h598l-45 -233h-598z" />
<glyph unicode="&#xae;" horiz-adv-x="1167" d="M309 924q0 254 154.5 411.5t410.5 157.5q180 0 283 -96.5t103 -255.5q0 -254 -154 -412t-412 -158q-180 0 -282.5 96.5t-102.5 256.5zM453 942q0 -111 66.5 -173t201.5 -62q174 0 283.5 115.5t109.5 299.5q0 111 -66.5 172.5t-199.5 61.5q-176 0 -285.5 -115t-109.5 -299 zM578 805l90 459h196q61 0 97 -35t36 -92q0 -131 -96 -181l51 -151h-121l-36 127h-80l-25 -127h-112zM735 1036h60q35 0 57 21.5t22 56.5q0 45 -55 45h-59z" />
<glyph unicode="&#xaf;" horiz-adv-x="716" d="M332 1337l41 213h573l-41 -213h-573z" />
<glyph unicode="&#xb0;" horiz-adv-x="675" d="M287 1186q0 137 104.5 238.5t243.5 101.5q111 0 174 -62.5t63 -160.5q0 -137 -104.5 -238.5t-243.5 -101.5q-109 0 -173 63.5t-64 159.5zM463 1221q0 -41 26.5 -67t67.5 -26q55 0 96 43t41 103q0 39 -24.5 62.5t-67.5 23.5q-57 0 -98 -41t-41 -98z" />
<glyph unicode="&#xb1;" horiz-adv-x="1021" d="M25 20l45 230h981l-45 -230h-981zM160 717l45 229h377l67 346h230l-68 -346h375l-45 -229h-375l-68 -346h-229l68 346h-377z" />
<glyph unicode="&#xb2;" horiz-adv-x="862" d="M217 508l33 172q18 94 77.5 164.5t132 111.5t142.5 76t117 74t47 88q0 76 -135 76q-109 0 -225 -35l-7 174q133 41 279 41q141 0 220 -55.5t79 -159.5q0 -98 -50 -175t-124 -123t-147.5 -83t-128 -75t-60.5 -77l-2 -14h407l-34 -180h-621z" />
<glyph unicode="&#xb3;" horiz-adv-x="897" d="M238 532l55 177q129 -37 239 -37q197 0 197 141q0 96 -158 96h-131l33 168h131q72 0 123 28t51 89q0 76 -119 76q-102 0 -227 -37l-10 176q131 41 289 41q129 0 204.5 -49t75.5 -150q0 -188 -155 -252q100 -29 100 -163q0 -172 -108.5 -259.5t-313.5 -87.5 q-147 0 -276 43z" />
<glyph unicode="&#xb4;" horiz-adv-x="700" d="M326 1397l489 256l90 -232l-526 -164z" />
<glyph unicode="&#xb5;" horiz-adv-x="1146" d="M23 -414l299 1534h307l-140 -710q-14 -70 18 -115t116 -45t132 45t62 115l139 710h308l-144 -735q-35 -178 -160.5 -289.5t-347.5 -111.5q-123 0 -194 55l-88 -453h-307z" />
<glyph unicode="&#xb6;" horiz-adv-x="1325" d="M190 -125l80 242q137 -41 295 -43q150 0 224.5 56t97.5 175l219 1129h446l-49 -250h-147l-170 -879q-47 -252 -194.5 -368.5t-454.5 -116.5q-188 0 -347 55zM233 889q0 231 158 388t393 157h156l-170 -873h-184q-166 0 -259.5 87t-93.5 241z" />
<glyph unicode="&#xb7;" horiz-adv-x="507" d="M209 629q0 90 59.5 148.5t151.5 58.5q68 0 104.5 -34t36.5 -91q0 -90 -59.5 -150.5t-147.5 -60.5q-72 0 -108.5 34.5t-36.5 94.5z" />
<glyph unicode="&#xb8;" horiz-adv-x="583" d="M-12 -432l49 131q66 -10 127 -10q125 0 125 78q0 49 -99 49q-47 0 -108 -13l84 222h166l-60 -97q25 4 52 4q61 0 103 -33.5t42 -99.5q0 -115 -74 -182.5t-215 -67.5q-102 0 -192 19z" />
<glyph unicode="&#xb9;" horiz-adv-x="849" d="M229 508l35 178h213l107 549l-228 -84l37 184l254 99h174l-145 -748h176l-35 -178h-588z" />
<glyph unicode="&#xba;" horiz-adv-x="815" d="M279 1067q37 188 143 285.5t264 97.5t230.5 -95t33.5 -288q-37 -190 -144.5 -286.5t-266.5 -96.5q-156 0 -226.5 96.5t-33.5 286.5zM485 1067q-39 -207 86 -207q131 0 170 207t-88 207q-129 0 -168 -207z" />
<glyph unicode="&#xbb;" horiz-adv-x="1218" d="M131 322l348 327l-213 303l203 148l317 -475l-501 -475zM602 322l348 327l-213 303l203 148l317 -475l-501 -475z" />
<glyph unicode="&#xbc;" horiz-adv-x="1980" d="M221 508l35 178h213l106 549l-227 -84l37 184l254 99h174l-145 -748h176l-35 -178h-588zM580 -162l868 1757h201l-867 -1757h-202zM1163 162l31 160l213 313q80 117 98 215l17 82h194l-16 -82q-27 -127 -105 -242l-182 -270h209l76 244h172l-49 -244h102l-33 -176h-102 l-33 -162h-199l33 162h-426z" />
<glyph unicode="&#xbd;" horiz-adv-x="1982" d="M221 508l35 178h213l106 549l-227 -84l37 184l254 99h174l-145 -748h176l-35 -178h-588zM588 -162l868 1757h201l-866 -1757h-203zM1237 6l33 172q18 94 77.5 165t132 112t142.5 75.5t117 73.5t47 88q0 76 -135 76q-109 0 -226 -35l-6 174q133 41 279 41q141 0 220 -55 t79 -160q0 -98 -50.5 -175t-124 -123t-147 -83t-128 -74.5t-60.5 -76.5l-2 -15h407l-34 -180h-621z" />
<glyph unicode="&#xbe;" horiz-adv-x="2045" d="M242 532l55 177q129 -37 240 -37q197 0 196 141q0 96 -158 96h-131l33 168h131q72 0 123 28t51 89q0 76 -118 76q-102 0 -228 -37l-10 176q131 41 289 41q129 0 204.5 -49t75.5 -150q0 -188 -155 -252q100 -29 100 -163q0 -172 -108.5 -259.5t-313.5 -87.5 q-147 0 -276 43zM645 -162l868 1757h201l-866 -1757h-203zM1229 162l31 160l213 313q80 117 98 215l16 82h195l-17 -82q-27 -127 -104 -242l-182 -270h209l75 244h172l-49 -244h103l-33 -176h-103l-32 -162h-199l33 162h-426z" />
<glyph unicode="&#xbf;" horiz-adv-x="1062" d="M80 -45q0 106 37 186t92 123t121.5 80t126 61.5t103.5 62.5t54 87l11 51h297l-19 -90q-18 -90 -76.5 -155.5t-128 -102.5t-136 -68.5t-111.5 -71.5t-45 -91q0 -98 192 -99q147 0 350 58l-22 -267q-201 -59 -381 -59q-465 0 -465 295zM666 915q0 90 59 150.5t147 60.5 q72 0 109 -34.5t37 -94.5q0 -90 -59.5 -148t-151.5 -58q-68 0 -104.5 33.5t-36.5 90.5z" />
<glyph unicode="&#xc0;" horiz-adv-x="1286" d="M20 0l652 1434h495l99 -1434h-324l-12 315h-436l-132 -315h-342zM610 592l310 2l-21 543h-61zM635 1759l90 232l489 -256l-53 -140z" />
<glyph unicode="&#xc1;" horiz-adv-x="1286" d="M20 0l652 1434h495l99 -1434h-324l-12 315h-436l-132 -315h-342zM610 592l310 2l-21 543h-61zM678 1735l489 256l90 -232l-526 -164z" />
<glyph unicode="&#xc2;" horiz-adv-x="1286" d="M20 0l652 1434h495l99 -1434h-324l-12 315h-436l-132 -315h-342zM606 1700l428 291l314 -291l-107 -131l-233 164l-320 -164zM610 592l310 2l-21 543h-61z" />
<glyph unicode="&#xc3;" horiz-adv-x="1286" d="M20 0l652 1434h495l99 -1434h-324l-12 315h-436l-132 -315h-342zM610 592l310 2l-21 543h-61zM633 1663q61 270 254 270q70 0 137.5 -50t97.5 -50q63 0 88 80h146q-12 -115 -82 -201t-174 -86q-63 0 -131 50t-107 50q-61 0 -88 -86z" />
<glyph unicode="&#xc4;" horiz-adv-x="1286" d="M20 0l652 1434h495l99 -1434h-324l-12 315h-436l-132 -315h-342zM610 592l310 2l-21 543h-61zM629 1708q0 84 51 137t131 53q119 0 119 -108q0 -84 -49 -138.5t-127 -54.5q-125 0 -125 111zM1030 1706q0 86 50 139t130 53q121 0 121 -108q0 -84 -50 -138.5t-128 -54.5 q-123 0 -123 109z" />
<glyph unicode="&#xc5;" horiz-adv-x="1286" d="M20 0l652 1434h495l99 -1434h-324l-12 315h-436l-132 -315h-342zM610 592l310 2l-21 543h-61zM750 1729q0 121 72.5 196.5t201.5 75.5q88 0 139 -44t51 -124q0 -119 -72.5 -194.5t-201.5 -75.5q-88 0 -139 43t-51 123zM903 1763q0 -57 64 -57q45 0 70.5 26.5t25.5 67.5 q0 58 -66 58q-45 0 -69.5 -27t-24.5 -68z" />
<glyph unicode="&#xc6;" horiz-adv-x="1693" d="M20 0l652 1434h1218l-53 -277h-651l20 -289h529l-54 -274h-456l22 -322h418l-53 -272h-670l-12 315h-436l-132 -315h-342zM610 592l310 2l-21 543h-61z" />
<glyph unicode="&#xc7;" horiz-adv-x="1114" d="M197 481q0 434 209.5 701.5t572.5 267.5q166 0 324 -59l-95 -285q-143 51 -276 51q-180 0 -292 -175t-112 -458q0 -135 58.5 -191.5t173.5 -56.5q154 0 307 52l-16 -285q-154 -51 -303 -59l-35 -56q25 4 51 4q61 0 103 -33.5t42 -99.5q0 -115 -73.5 -182.5t-214.5 -67.5 q-104 0 -193 19l49 131q66 -10 127 -10q125 0 125 78q0 49 -98 49q-47 0 -109 -13l72 189q-199 27 -298 153.5t-99 335.5z" />
<glyph unicode="&#xc8;" horiz-adv-x="1069" d="M133 0l279 1434h854l-54 -277h-536l-58 -289h492l-53 -274h-492l-61 -322h536l-53 -272h-854zM594 1759l90 232l490 -256l-54 -140z" />
<glyph unicode="&#xc9;" horiz-adv-x="1069" d="M133 0l279 1434h854l-54 -277h-536l-58 -289h492l-53 -274h-492l-61 -322h536l-53 -272h-854zM637 1735l489 256l91 -232l-527 -164z" />
<glyph unicode="&#xca;" horiz-adv-x="1069" d="M133 0l279 1434h854l-54 -277h-536l-58 -289h492l-53 -274h-492l-61 -322h536l-53 -272h-854zM565 1700l428 291l314 -291l-107 -131l-233 164l-320 -164z" />
<glyph unicode="&#xcb;" horiz-adv-x="1069" d="M133 0l279 1434h854l-54 -277h-536l-58 -289h492l-53 -274h-492l-61 -322h536l-53 -272h-854zM588 1708q0 84 51 137t131 53q119 0 119 -108q0 -84 -49 -138.5t-127 -54.5q-125 0 -125 111zM989 1706q0 86 50.5 139t129.5 53q121 0 121 -108q0 -84 -50 -138.5t-128 -54.5 q-123 0 -123 109z" />
<glyph unicode="&#xcc;" horiz-adv-x="583" d="M133 0l279 1434h317l-278 -1434h-318zM285 1759l90 232l489 -256l-53 -140z" />
<glyph unicode="&#xcd;" horiz-adv-x="583" d="M133 0l279 1434h317l-278 -1434h-318zM328 1735l489 256l90 -232l-526 -164z" />
<glyph unicode="&#xce;" horiz-adv-x="583" d="M133 0l279 1434h317l-278 -1434h-318zM256 1700l428 291l313 -291l-106 -131l-234 164l-319 -164z" />
<glyph unicode="&#xcf;" horiz-adv-x="583" d="M133 0l279 1434h317l-278 -1434h-318zM279 1708q0 84 51 137t131 53q119 0 119 -108q0 -84 -49.5 -138.5t-127.5 -54.5q-125 0 -124 111zM680 1706q0 86 50 139t130 53q121 0 121 -108q0 -84 -50 -138.5t-128 -54.5q-123 0 -123 109z" />
<glyph unicode="&#xd0;" horiz-adv-x="1443" d="M252 610l45 232h143l115 592h469q287 0 416 -189.5t63 -523.5q-49 -340 -246.5 -530.5t-511.5 -190.5h-469l119 610h-143zM647 276h152q133 0 233.5 108t143.5 337q86 436 -205 436h-152l-61 -315h225l-45 -232h-225z" />
<glyph unicode="&#xd1;" horiz-adv-x="1374" d="M133 0l279 1434h276l344 -883h10l170 883h308l-279 -1434h-295l-336 864h-10l-160 -864h-307zM655 1663q61 270 254 270q70 0 137.5 -50t98.5 -50q63 0 88 80h145q-12 -115 -82 -201t-174 -86q-61 0 -130.5 50t-106.5 50q-61 0 -88 -86z" />
<glyph unicode="&#xd2;" horiz-adv-x="1388" d="M221 719q72 369 256.5 550t497.5 181q287 0 414 -186.5t57 -544.5q-74 -373 -257 -554t-499 -181q-285 0 -411.5 187t-57.5 548zM549 719q-45 -233 5 -341t191 -108q143 0 235.5 107.5t137.5 341.5q88 444 -198 444q-143 0 -234.5 -106.5t-136.5 -337.5zM688 1759l90 232 l490 -256l-54 -140z" />
<glyph unicode="&#xd3;" horiz-adv-x="1388" d="M221 719q72 369 256.5 550t497.5 181q287 0 414 -186.5t57 -544.5q-74 -373 -257 -554t-499 -181q-285 0 -411.5 187t-57.5 548zM549 719q-45 -233 5 -341t191 -108q143 0 235.5 107.5t137.5 341.5q88 444 -198 444q-143 0 -234.5 -106.5t-136.5 -337.5zM731 1735 l490 256l90 -232l-527 -164z" />
<glyph unicode="&#xd4;" horiz-adv-x="1388" d="M221 719q72 369 256.5 550t497.5 181q287 0 414 -186.5t57 -544.5q-74 -373 -257 -554t-499 -181q-285 0 -411.5 187t-57.5 548zM549 719q-45 -233 5 -341t191 -108q143 0 235.5 107.5t137.5 341.5q88 444 -198 444q-143 0 -234.5 -106.5t-136.5 -337.5zM659 1700 l428 291l314 -291l-107 -131l-233 164l-320 -164z" />
<glyph unicode="&#xd5;" horiz-adv-x="1388" d="M221 719q72 369 256.5 550t497.5 181q287 0 414 -186.5t57 -544.5q-74 -373 -257 -554t-499 -181q-285 0 -411.5 187t-57.5 548zM549 719q-45 -233 5 -341t191 -108q143 0 235.5 107.5t137.5 341.5q88 444 -198 444q-143 0 -234.5 -106.5t-136.5 -337.5zM686 1663 q61 270 254 270q70 0 137.5 -50t98.5 -50q63 0 88 80h145q-12 -115 -82 -201t-174 -86q-63 0 -131 50t-107 50q-61 0 -88 -86z" />
<glyph unicode="&#xd6;" horiz-adv-x="1388" d="M221 719q72 369 256.5 550t497.5 181q287 0 414 -186.5t57 -544.5q-74 -373 -257 -554t-499 -181q-285 0 -411.5 187t-57.5 548zM549 719q-45 -233 5 -341t191 -108q143 0 235.5 107.5t137.5 341.5q88 444 -198 444q-143 0 -234.5 -106.5t-136.5 -337.5zM682 1708 q0 84 51 137t131 53q119 0 119 -108q0 -84 -49 -138.5t-127 -54.5q-125 0 -125 111zM1083 1706q0 86 50.5 139t130.5 53q121 0 120 -108q0 -84 -50 -138.5t-128 -54.5q-123 0 -123 109z" />
<glyph unicode="&#xd7;" horiz-adv-x="974" d="M141 430l342 283l-215 270l164 141l217 -272l320 264l131 -170l-316 -262l230 -289l-164 -141l-234 293l-344 -287z" />
<glyph unicode="&#xd8;" horiz-adv-x="1388" d="M127 -82l170 227q-152 193 -76 574q72 369 256.5 550t497.5 181q150 0 254 -51l86 117h225l-170 -228q147 -188 76 -569q-74 -373 -257 -554t-499 -181q-147 0 -252 49l-86 -115h-225zM532 463l502 676q-47 25 -114 24q-143 0 -234.5 -106.5t-136.5 -337.5 q-31 -162 -17 -256zM631 295q49 -25 114 -25q143 0 235.5 108t137.5 341q29 147 17 252z" />
<glyph unicode="&#xd9;" horiz-adv-x="1343" d="M225 471l187 963h317l-182 -945q-41 -219 178 -219q223 0 264 219l182 945h318l-186 -963q-95 -487 -623 -487q-240 0 -369 131t-86 356zM676 1759l90 232l489 -256l-53 -140z" />
<glyph unicode="&#xda;" horiz-adv-x="1343" d="M225 471l187 963h317l-182 -945q-41 -219 178 -219q223 0 264 219l182 945h318l-186 -963q-95 -487 -623 -487q-240 0 -369 131t-86 356zM719 1735l489 256l90 -232l-526 -164z" />
<glyph unicode="&#xdb;" horiz-adv-x="1343" d="M225 471l187 963h317l-182 -945q-41 -219 178 -219q223 0 264 219l182 945h318l-186 -963q-95 -487 -623 -487q-240 0 -369 131t-86 356zM647 1700l428 291l314 -291l-107 -131l-233 164l-320 -164z" />
<glyph unicode="&#xdc;" horiz-adv-x="1343" d="M225 471l187 963h317l-182 -945q-41 -219 178 -219q223 0 264 219l182 945h318l-186 -963q-95 -487 -623 -487q-240 0 -369 131t-86 356zM670 1708q0 84 51 137t131 53q119 0 119 -108q0 -84 -49 -138.5t-127 -54.5q-125 0 -125 111zM1071 1706q0 86 50 139t130 53 q121 0 121 -108q0 -84 -50 -138.5t-128 -54.5q-123 0 -123 109z" />
<glyph unicode="&#xdd;" horiz-adv-x="1206" d="M309 1434h309l125 -609h11l364 609h336l-598 -942l-96 -492h-318l97 492zM637 1735l489 256l91 -232l-527 -164z" />
<glyph unicode="&#xde;" horiz-adv-x="1208" d="M133 0l279 1434h317l-39 -205h215q197 0 303.5 -97.5t106.5 -263.5q0 -250 -173 -422t-423 -172h-215l-53 -274h-318zM559 555h195q98 0 162.5 72.5t64.5 181.5q0 68 -38 105.5t-114 37.5h-194z" />
<glyph unicode="&#xdf;" horiz-adv-x="1447" d="M23 -414l299 1538q41 207 176 315.5t393 108.5q201 0 325.5 -83t124.5 -203q0 -178 -192 -310q-43 -29 -65.5 -46t-41 -44.5t-18.5 -56.5q0 -45 82 -74l104 -39q123 -45 183.5 -110.5t60.5 -163.5q0 -203 -124 -318.5t-365 -115.5q-246 0 -424 73l75 254q172 -61 345 -61 q80 0 129 30.5t49 81.5q0 23 -14.5 39.5t-31 23.5t-49.5 19l-137 50q-102 35 -153.5 86t-51.5 141q0 174 193 315q4 2 26.5 18.5t31 23.5t25.5 23.5t25.5 29t15.5 30t7 33.5q0 43 -50 71.5t-134 28.5q-82 0 -138.5 -37.5t-70.5 -115.5l-303 -1555h-307z" />
<glyph unicode="&#xe0;" d="M150 383q0 344 187 549t476 205q213 0 430 -86l-205 -1051h-270l2 147q-49 -72 -130 -117.5t-165 -45.5q-156 0 -240.5 106.5t-84.5 292.5zM467 426q0 -176 127 -176q129 0 213 139l90 461q-66 20 -115 20q-143 0 -229 -120.5t-86 -323.5zM537 1421l90 232l489 -256 l-53 -140z" />
<glyph unicode="&#xe1;" d="M150 383q0 344 187 549t476 205q213 0 430 -86l-205 -1051h-270l2 147q-49 -72 -130 -117.5t-165 -45.5q-156 0 -240.5 106.5t-84.5 292.5zM467 426q0 -176 127 -176q129 0 213 139l90 461q-66 20 -115 20q-143 0 -229 -120.5t-86 -323.5zM580 1397l489 256l90 -232 l-526 -164z" />
<glyph unicode="&#xe2;" d="M150 383q0 344 187 549t476 205q213 0 430 -86l-205 -1051h-270l2 147q-49 -72 -130 -117.5t-165 -45.5q-156 0 -240.5 106.5t-84.5 292.5zM467 426q0 -176 127 -176q129 0 213 139l90 461q-66 20 -115 20q-143 0 -229 -120.5t-86 -323.5zM508 1362l428 291l313 -291 l-106 -131l-234 164l-319 -164z" />
<glyph unicode="&#xe3;" d="M150 383q0 344 187 549t476 205q213 0 430 -86l-205 -1051h-270l2 147q-49 -72 -130 -117.5t-165 -45.5q-156 0 -240.5 106.5t-84.5 292.5zM467 426q0 -176 127 -176q129 0 213 139l90 461q-66 20 -115 20q-143 0 -229 -120.5t-86 -323.5zM535 1325q61 270 253 270 q70 0 137.5 -50t98.5 -50q63 0 88 80h145q-12 -115 -82 -201t-174 -86q-63 0 -130.5 50.5t-106.5 50.5q-61 0 -88 -86z" />
<glyph unicode="&#xe4;" d="M150 383q0 344 187 549t476 205q213 0 430 -86l-205 -1051h-270l2 147q-49 -72 -130 -117.5t-165 -45.5q-156 0 -240.5 106.5t-84.5 292.5zM467 426q0 -176 127 -176q129 0 213 139l90 461q-66 20 -115 20q-143 0 -229 -120.5t-86 -323.5zM530 1370q0 84 51.5 137.5 t131.5 53.5q119 0 118 -109q0 -84 -49 -138t-127 -54q-125 0 -125 110zM932 1368q0 86 50 139.5t130 53.5q121 0 121 -109q0 -84 -50 -138t-128 -54q-123 0 -123 108z" />
<glyph unicode="&#xe5;" d="M150 383q0 344 187 549t476 205q213 0 430 -86l-205 -1051h-270l2 147q-49 -72 -130 -117.5t-165 -45.5q-156 0 -240.5 106.5t-84.5 292.5zM467 426q0 -176 127 -176q129 0 213 139l90 461q-66 20 -115 20q-143 0 -229 -120.5t-86 -323.5zM651 1391q0 121 73 196.5 t202 75.5q88 0 139 -44t51 -124q0 -119 -72.5 -194.5t-201.5 -75.5q-88 0 -139.5 43t-51.5 123zM805 1425q0 -57 63 -57q45 0 71 26.5t26 67.5q0 57 -66 58q-45 0 -69.5 -27t-24.5 -68z" />
<glyph unicode="&#xe6;" horiz-adv-x="1767" d="M150 383q0 344 187 549t476 205q160 0 334 -66q125 66 289 66q494 0 376 -588l-20 -103h-670q-14 -115 37 -161.5t162 -46.5q166 0 330 47l10 -242q-182 -59 -389 -59q-279 0 -391 159q-92 -86 -181.5 -122.5t-203.5 -36.5q-158 0 -252 108.5t-94 290.5zM467 426 q0 -176 127 -176q63 0 121.5 31.5t93.5 80.5v31q0 270 111 457q-74 20 -138 20q-143 0 -229 -120.5t-86 -323.5zM1167 672h371q16 117 -19.5 168t-123.5 51q-184 0 -228 -219z" />
<glyph unicode="&#xe7;" horiz-adv-x="933" d="M168 561q55 285 201.5 430.5t427.5 145.5q143 0 266 -43l-105 -263q-98 33 -194 33q-225 0 -285 -303q-33 -166 12.5 -234.5t154 -68.5t218.5 33l13 -264q-145 -41 -277 -43l-35 -56q25 4 51 4q61 0 103.5 -33.5t42.5 -99.5q0 -115 -74 -182.5t-215 -67.5q-104 0 -192 19 l49 131q66 -10 127 -10q125 0 125 78q0 49 -99 49q-47 0 -108 -13l74 193q-180 37 -253 184.5t-28 380.5z" />
<glyph unicode="&#xe8;" horiz-adv-x="1110" d="M152 393q0 328 164.5 536t461.5 208q494 0 377 -588l-20 -103h-670q-14 -115 37 -161.5t162 -46.5q164 0 329 47l11 -242q-183 -59 -390 -59q-223 0 -342.5 105.5t-119.5 303.5zM506 1421l90 232l489 -256l-53 -140zM510 672h371q16 117 -20 168t-124 51 q-184 0 -227 -219z" />
<glyph unicode="&#xe9;" horiz-adv-x="1110" d="M152 393q0 328 164.5 536t461.5 208q494 0 377 -588l-20 -103h-670q-14 -115 37 -161.5t162 -46.5q164 0 329 47l11 -242q-183 -59 -390 -59q-223 0 -342.5 105.5t-119.5 303.5zM510 672h371q16 117 -20 168t-124 51q-184 0 -227 -219zM549 1397l489 256l90 -232 l-526 -164z" />
<glyph unicode="&#xea;" horiz-adv-x="1110" d="M152 393q0 328 164.5 536t461.5 208q494 0 377 -588l-20 -103h-670q-14 -115 37 -161.5t162 -46.5q164 0 329 47l11 -242q-183 -59 -390 -59q-223 0 -342.5 105.5t-119.5 303.5zM477 1362l428 291l314 -291l-107 -131l-233 164l-320 -164zM510 672h371q16 117 -20 168 t-124 51q-184 0 -227 -219z" />
<glyph unicode="&#xeb;" horiz-adv-x="1110" d="M152 393q0 328 164.5 536t461.5 208q494 0 377 -588l-20 -103h-670q-14 -115 37 -161.5t162 -46.5q164 0 329 47l11 -242q-183 -59 -390 -59q-223 0 -342.5 105.5t-119.5 303.5zM500 1370q0 84 51 137.5t131 53.5q119 0 119 -109q0 -84 -49 -138t-127 -54 q-125 0 -125 110zM510 672h371q16 117 -20 168t-124 51q-184 0 -227 -219zM901 1368q0 86 50 139.5t130 53.5q121 0 121 -109q0 -84 -50 -138t-128 -54q-123 0 -123 108z" />
<glyph unicode="&#xec;" horiz-adv-x="501" d="M102 0l217 1120h308l-217 -1120h-308zM193 1421l90 232l489 -256l-53 -140z" />
<glyph unicode="&#xed;" horiz-adv-x="501" d="M102 0l217 1120h308l-217 -1120h-308zM236 1397l489 256l90 -232l-526 -164z" />
<glyph unicode="&#xee;" horiz-adv-x="501" d="M102 0l217 1120h308l-217 -1120h-308zM164 1362l428 291l313 -291l-106 -131l-234 164l-319 -164z" />
<glyph unicode="&#xef;" horiz-adv-x="501" d="M102 0l217 1120h308l-217 -1120h-308zM186 1370q0 84 51.5 137.5t131.5 53.5q119 0 118 -109q0 -84 -49 -138t-127 -54q-125 0 -125 110zM588 1368q0 86 50 139.5t130 53.5q121 0 121 -109q0 -84 -50 -138t-128 -54q-123 0 -123 108z" />
<glyph unicode="&#xf0;" horiz-adv-x="1124" d="M141 373q0 266 156 434t416 168q121 0 225 -29l16 82q20 96 -18 154l-188 -115l-84 139l127 78q-4 2 -11.5 5t-11.5 5l-203 86l76 172l281 -82q61 -18 108 -38l191 116l84 -139l-123 -76q115 -115 75 -323l-102 -531q-47 -246 -189.5 -370.5t-404.5 -124.5 q-190 0 -305 105.5t-115 283.5zM457 395q0 -82 39.5 -124t111.5 -42q88 0 151.5 62.5t88.5 187.5l43 219q-100 31 -184 31q-109 0 -179.5 -95t-70.5 -239z" />
<glyph unicode="&#xf1;" horiz-adv-x="1157" d="M113 0l217 1120h274l-12 -159q74 74 175 125t200 51q307 0 247 -314l-159 -823h-307l143 737q25 125 -96 125q-104 0 -234 -137l-141 -725h-307zM528 1325q61 270 254 270q70 0 137.5 -50t98.5 -50q63 0 88 80h145q-12 -115 -82 -201t-174 -86q-61 0 -130.5 50.5 t-106.5 50.5q-61 0 -88 -86z" />
<glyph unicode="&#xf2;" horiz-adv-x="1130" d="M152 385q0 336 167.5 544t456.5 208q203 0 312.5 -101.5t109.5 -300.5q0 -340 -164 -545.5t-463 -205.5q-197 0 -308 101t-111 300zM467 424q0 -174 147 -174q113 0 190 128t77 318q0 174 -148 174q-115 0 -190.5 -127t-75.5 -319zM494 1421l90 232l489 -256l-53 -140z " />
<glyph unicode="&#xf3;" horiz-adv-x="1130" d="M152 385q0 336 167.5 544t456.5 208q203 0 312.5 -101.5t109.5 -300.5q0 -340 -164 -545.5t-463 -205.5q-197 0 -308 101t-111 300zM467 424q0 -174 147 -174q113 0 190 128t77 318q0 174 -148 174q-115 0 -190.5 -127t-75.5 -319zM537 1397l489 256l90 -232l-526 -164z " />
<glyph unicode="&#xf4;" horiz-adv-x="1130" d="M152 385q0 336 167.5 544t456.5 208q203 0 312.5 -101.5t109.5 -300.5q0 -340 -164 -545.5t-463 -205.5q-197 0 -308 101t-111 300zM465 1362l428 291l313 -291l-106 -131l-234 164l-319 -164zM467 424q0 -174 147 -174q113 0 190 128t77 318q0 174 -148 174 q-115 0 -190.5 -127t-75.5 -319z" />
<glyph unicode="&#xf5;" horiz-adv-x="1130" d="M152 385q0 336 167.5 544t456.5 208q203 0 312.5 -101.5t109.5 -300.5q0 -340 -164 -545.5t-463 -205.5q-197 0 -308 101t-111 300zM467 424q0 -174 147 -174q113 0 190 128t77 318q0 174 -148 174q-115 0 -190.5 -127t-75.5 -319zM492 1325q61 270 253 270 q70 0 137.5 -50t98.5 -50q63 0 88 80h145q-12 -115 -82 -201t-174 -86q-63 0 -131.5 50.5t-105.5 50.5q-61 0 -88 -86z" />
<glyph unicode="&#xf6;" horiz-adv-x="1130" d="M152 385q0 336 167.5 544t456.5 208q203 0 312.5 -101.5t109.5 -300.5q0 -340 -164 -545.5t-463 -205.5q-197 0 -308 101t-111 300zM467 424q0 -174 147 -174q113 0 190 128t77 318q0 174 -148 174q-115 0 -190.5 -127t-75.5 -319zM487 1370q0 84 51.5 137.5t131.5 53.5 q119 0 118 -109q0 -84 -49 -138t-127 -54q-125 0 -125 110zM889 1368q0 86 50 139.5t130 53.5q121 0 121 -109q0 -84 -50 -138t-128 -54q-123 0 -123 108z" />
<glyph unicode="&#xf7;" horiz-adv-x="1021" d="M131 573l45 230h981l-45 -230h-981zM403 287q0 80 49.5 130t127.5 50q121 0 120 -105q0 -80 -48 -129t-128 -49q-121 0 -121 103zM545 1014q0 80 49 130t127 50q121 0 121 -104q0 -80 -48 -129.5t-128 -49.5q-121 0 -121 103z" />
<glyph unicode="&#xf8;" horiz-adv-x="1110" d="M127 -82l125 180q-100 100 -100 287q0 336 167.5 544t456.5 208q100 0 176 -25l45 66h199l-102 -148q104 -100 104 -295q0 -340 -164 -545.5t-463 -205.5q-104 0 -182 26l-63 -92h-199zM467 410l315 454q-25 6 -49 6q-115 0 -190.5 -126.5t-75.5 -319.5v-14zM559 256 q24 -6 55 -6q113 0 190 128t77 318v25z" />
<glyph unicode="&#xf9;" horiz-adv-x="1146" d="M178 385l144 735h307l-140 -710q-14 -70 18 -115t116 -45t132 45t62 115l139 710h308l-144 -735q-80 -401 -538 -401q-213 0 -325 116.5t-79 284.5zM502 1421l90 232l489 -256l-53 -140z" />
<glyph unicode="&#xfa;" horiz-adv-x="1146" d="M178 385l144 735h307l-140 -710q-14 -70 18 -115t116 -45t132 45t62 115l139 710h308l-144 -735q-80 -401 -538 -401q-213 0 -325 116.5t-79 284.5zM545 1397l489 256l90 -232l-526 -164z" />
<glyph unicode="&#xfb;" horiz-adv-x="1146" d="M178 385l144 735h307l-140 -710q-14 -70 18 -115t116 -45t132 45t62 115l139 710h308l-144 -735q-80 -401 -538 -401q-213 0 -325 116.5t-79 284.5zM473 1362l428 291l313 -291l-106 -131l-234 164l-319 -164z" />
<glyph unicode="&#xfc;" horiz-adv-x="1146" d="M178 385l144 735h307l-140 -710q-14 -70 18 -115t116 -45t132 45t62 115l139 710h308l-144 -735q-80 -401 -538 -401q-213 0 -325 116.5t-79 284.5zM496 1370q0 84 51 137.5t131 53.5q119 0 119 -109q0 -84 -49 -138t-127 -54q-125 0 -125 110zM897 1368q0 86 50 139.5 t130 53.5q121 0 121 -109q0 -84 -50 -138t-128 -54q-123 0 -123 108z" />
<glyph unicode="&#xfd;" horiz-adv-x="1191" d="M-72 -414l101 252q61 -10 114 -10q72 0 141.5 36t172.5 136h-51l-189 1120h324l118 -794h9q78 123 138 271t89 251.5t70 271.5h350q-88 -315 -211 -590.5t-274.5 -492.5t-336.5 -342t-378 -125q-100 0 -187 16zM524 1397l490 256l90 -232l-526 -164z" />
<glyph unicode="&#xfe;" horiz-adv-x="1130" d="M33 -414l200 1028h-12l178 922h308l-111 -567q53 74 135 121t170 47q158 0 239 -95.5t81 -279.5q0 -336 -185.5 -557t-468.5 -221q-66 0 -147 10l-80 -408h-307zM473 270q66 -20 115 -20q143 0 229 121t86 323q0 176 -127 176q-111 0 -215 -139z" />
<glyph unicode="&#xff;" horiz-adv-x="1191" d="M-72 -414l101 252q61 -10 114 -10q72 0 141.5 36t172.5 136h-51l-189 1120h324l118 -794h9q78 123 138 271t89 251.5t70 271.5h350q-88 -315 -211 -590.5t-274.5 -492.5t-336.5 -342t-378 -125q-100 0 -187 16zM475 1370q0 84 51.5 137.5t130.5 53.5q119 0 119 -109 q0 -84 -49 -138t-127 -54q-125 0 -125 110zM877 1368q0 86 50 139.5t130 53.5q121 0 121 -109q0 -84 -50.5 -138t-128.5 -54q-123 0 -122 108z" />
<glyph unicode="&#x152;" horiz-adv-x="1921" d="M221 719q72 369 256.5 550t497.5 181q168 0 280 -64l9 48h854l-54 -277h-536l-58 -289h492l-53 -274h-492l-61 -322h536l-53 -272h-854l6 37q-131 -53 -301 -53q-285 0 -411.5 187t-57.5 548zM549 719q-45 -233 5 -341t191 -108q143 0 235.5 107.5t137.5 341.5 q88 444 -198 444q-143 0 -234.5 -106.5t-136.5 -337.5z" />
<glyph unicode="&#x153;" horiz-adv-x="1826" d="M152 385q0 336 167.5 544t456.5 208q231 0 338 -127q156 127 381 127q494 0 377 -588l-21 -103h-669q-14 -115 37 -161.5t161 -46.5q164 0 330 47l10 -242q-182 -59 -389 -59q-252 0 -370 131q-154 -131 -390 -131q-197 0 -308 101t-111 300zM467 424q0 -174 147 -174 q113 0 190 128t77 318q0 174 -148 174q-115 0 -190.5 -127t-75.5 -319zM1227 672h370q16 117 -19.5 168t-123.5 51q-184 0 -227 -219z" />
<glyph unicode="&#x178;" horiz-adv-x="1206" d="M309 1434h309l125 -609h11l364 609h336l-598 -942l-96 -492h-318l97 492zM588 1708q0 84 51 137t131 53q119 0 119 -108q0 -84 -49 -138.5t-127 -54.5q-125 0 -125 111zM989 1706q0 86 50.5 139t129.5 53q121 0 121 -108q0 -84 -50 -138.5t-128 -54.5q-123 0 -123 109z " />
<glyph unicode="&#x2c6;" horiz-adv-x="884" d="M342 1362l428 291l313 -291l-106 -131l-234 164l-319 -164z" />
<glyph unicode="&#x2dc;" horiz-adv-x="817" d="M330 1325q61 270 254 270q70 0 137 -50t98 -50q63 0 88 80h146q-12 -115 -82 -201t-174 -86q-63 0 -131 50.5t-107 50.5q-61 0 -88 -86z" />
<glyph unicode="&#x2000;" horiz-adv-x="1000" />
<glyph unicode="&#x2001;" horiz-adv-x="2001" />
<glyph unicode="&#x2002;" horiz-adv-x="1000" />
<glyph unicode="&#x2003;" horiz-adv-x="2001" />
<glyph unicode="&#x2004;" horiz-adv-x="667" />
<glyph unicode="&#x2005;" horiz-adv-x="500" />
<glyph unicode="&#x2006;" horiz-adv-x="333" />
<glyph unicode="&#x2007;" horiz-adv-x="333" />
<glyph unicode="&#x2008;" horiz-adv-x="250" />
<glyph unicode="&#x2009;" horiz-adv-x="400" />
<glyph unicode="&#x200a;" horiz-adv-x="111" />
<glyph unicode="&#x2010;" horiz-adv-x="761" d="M178 492l45 233h598l-45 -233h-598z" />
<glyph unicode="&#x2011;" horiz-adv-x="761" d="M178 492l45 233h598l-45 -233h-598z" />
<glyph unicode="&#x2012;" horiz-adv-x="761" d="M178 492l45 233h598l-45 -233h-598z" />
<glyph unicode="&#x2013;" horiz-adv-x="987" d="M178 500l45 233h824l-46 -233h-823z" />
<glyph unicode="&#x2014;" horiz-adv-x="1290" d="M178 500l45 233h1127l-45 -233h-1127z" />
<glyph unicode="&#x2018;" horiz-adv-x="536" d="M270 973q25 131 106 296t171 287l203 -30q-59 -117 -114.5 -273.5t-78.5 -279.5h-287z" />
<glyph unicode="&#x2019;" horiz-adv-x="536" d="M254 881q61 117 115.5 274.5t76.5 278.5h287q-27 -131 -107.5 -296t-168.5 -288z" />
<glyph unicode="&#x201a;" horiz-adv-x="530" d="M2 -307q61 117 115.5 274.5t77.5 278.5h286q-27 -131 -107.5 -296t-168.5 -288z" />
<glyph unicode="&#x201c;" horiz-adv-x="925" d="M270 973q25 131 106 296t171 287l203 -30q-59 -117 -114.5 -273.5t-78.5 -279.5h-287zM659 973q25 131 106 296t171 287l203 -30q-59 -117 -114.5 -273.5t-78.5 -279.5h-287z" />
<glyph unicode="&#x201d;" horiz-adv-x="925" d="M254 881q61 117 115.5 274.5t76.5 278.5h287q-27 -131 -107.5 -296t-168.5 -288zM643 881q61 117 115.5 274.5t77.5 278.5h286q-27 -131 -107.5 -296t-168.5 -288z" />
<glyph unicode="&#x201e;" horiz-adv-x="884" d="M2 -307q61 117 115.5 274.5t77.5 278.5h286q-27 -131 -107.5 -296t-168.5 -288zM391 -307q61 117 115.5 274.5t77.5 278.5h286q-27 -131 -107.5 -296t-168.5 -288z" />
<glyph unicode="&#x2022;" horiz-adv-x="835" d="M268 553q0 150 93.5 248t232.5 98q104 0 160.5 -54t56.5 -149q0 -150 -92.5 -248t-231.5 -98q-106 0 -162.5 54.5t-56.5 148.5z" />
<glyph unicode="&#x2026;" horiz-adv-x="1531" d="M109 113q0 90 59 148t151 58q68 0 105 -33.5t37 -90.5q0 -90 -59.5 -150.5t-147.5 -60.5q-72 0 -108.5 34.5t-36.5 94.5zM621 113q0 90 59 148t151 58q68 0 105 -33.5t37 -90.5q0 -90 -59.5 -150.5t-147.5 -60.5q-72 0 -108.5 34.5t-36.5 94.5zM1133 113q0 90 59 148 t151 58q68 0 105 -33.5t37 -90.5q0 -90 -59.5 -150.5t-147.5 -60.5q-72 0 -108.5 34.5t-36.5 94.5z" />
<glyph unicode="&#x202f;" horiz-adv-x="400" />
<glyph unicode="&#x2039;" horiz-adv-x="747" d="M203 625l502 475l153 -172l-348 -328l213 -303l-203 -147z" />
<glyph unicode="&#x203a;" horiz-adv-x="747" d="M131 322l348 327l-213 303l203 148l317 -475l-501 -475z" />
<glyph unicode="&#x205f;" horiz-adv-x="500" />
<glyph unicode="&#x20ac;" horiz-adv-x="1214" d="M174 473l37 189h96q6 59 19 110h-95l37 189h113q90 229 270 359t428 130q166 0 324 -59l-94 -285q-144 51 -277 51q-193 0 -305 -196h350l-82 -189h-340q-12 -51 -18 -110h313l-80 -189h-239q18 -197 229 -197q154 0 307 52l-16 -285q-178 -59 -346 -59q-250 0 -378 128 t-130 361h-123z" />
<glyph unicode="&#x2122;" horiz-adv-x="1552" d="M326 1249l34 185h533l-35 -185h-168l-86 -442h-196l86 442h-168zM854 807l145 627h218l75 -332l197 332h235l-96 -627h-188l47 307h-4l-127 -227h-197l-41 227h-4l-72 -307h-188z" />
<glyph unicode="&#x25fc;" horiz-adv-x="1116" d="M0 0v1116h1116v-1116h-1116z" />
</font>
</defs>
</svg>
